<svg id="Layer_1" data-name="Layer 1" xmlns="http://www.w3.org/2000/svg" xmlns:xlink="http://www.w3.org/1999/xlink" viewBox="0 0 320 200"><defs><style>.cls-1{fill:url(#linear-gradient);}.cls-2{fill:#87783d;}.cls-3{fill:#062c7d;}.cls-4{clip-path:url(#clip-path);}.cls-5{fill:#071017;}.cls-6{fill:#fff;}.cls-7{fill:#00257d;}.cls-8{fill:#000110;}.cls-9{fill:#001017;}</style><linearGradient id="linear-gradient" x1="158.55" y1="31.9" x2="145.44" y2="178.4" gradientUnits="userSpaceOnUse"><stop offset="0" stop-color="#fff"/><stop offset="1" stop-color="#8b8b8b"/></linearGradient><clipPath id="clip-path"><path id="_Clipping_Path_" data-name="&lt;Clipping Path&gt;" class="cls-1" d="M40.56,59.69c-7.66,1.55-19,5.93-22,18.29,0,0-12.32,6.84-10.78,13s4.62,26,47.38,30.77S195,145,196.94,145s42,.68,99.39-26c0,0,1.93-6.83-3.08-8.89s-20-15-70.5-22.56c-44.95-6.7-148.57-24.25-170.69-28A31.31,31.31,0,0,0,40.56,59.69Z"/></clipPath></defs><title>plane</title><path class="cls-2" d="M130.36,95.17l-.07,11.71a14.25,14.25,0,0,1-7.18,2.5c-4.59.42-2.44,1.47-2.44,1.47h15.22a1.66,1.66,0,0,0,0-2.09c-.87-1.05-4.31-2.09-4.31-2.09l.07-11.5Z"/><path class="cls-2" d="M127.35,95.17l-.08,11.71a14.19,14.19,0,0,1-7.17,2.5c-4.6.42-2.44,1.47-2.44,1.47h15.21a1.66,1.66,0,0,0,0-2.09c-.86-1.05-4.3-2.09-4.3-2.09l.07-11.5Z"/><path class="cls-3" d="M221.2,96.3s12.54-3.94,16.89-9S281.52,31,281.52,31l16.89,1.69-15,74.31Z"/><path id="_Clipping_Path_2" data-name="&lt;Clipping Path&gt;" class="cls-1" d="M40.56,59.69c-7.66,1.55-19,5.93-22,18.29,0,0-12.32,6.84-10.78,13s4.62,26,47.38,30.77S195,145,196.94,145s42,.68,99.39-26c0,0,1.93-6.83-3.08-8.89s-20-15-70.5-22.56c-44.95-6.7-148.57-24.25-170.69-28A31.31,31.31,0,0,0,40.56,59.69Z"/><g class="cls-4"><path class="cls-5" d="M11.64,101.92s226.14,37.61,230.76,39-32.75,6.15-39.3,6.15S39.76,119.7,37.84,119,17.42,112.86,11.64,101.92Z"/></g><ellipse class="cls-6" cx="142.26" cy="90.48" rx="2.29" ry="4.96"/><ellipse class="cls-5" cx="142.26" cy="89.65" rx="2.29" ry="4.96"/><ellipse class="cls-6" cx="149.7" cy="92.13" rx="2.29" ry="4.96"/><ellipse class="cls-5" cx="149.7" cy="91.3" rx="2.29" ry="4.96"/><ellipse class="cls-6" cx="157.14" cy="92.96" rx="2.29" ry="4.96"/><ellipse class="cls-5" cx="157.14" cy="92.13" rx="2.29" ry="4.96"/><ellipse class="cls-6" cx="165.14" cy="93.78" rx="2.29" ry="4.96"/><ellipse class="cls-5" cx="165.14" cy="92.96" rx="2.29" ry="4.96"/><path class="cls-5" d="M25.58,69s7.44-.83,8.58-.83-4,7.44-4,7.44H21.58Z"/><polygon class="cls-5" points="35.31 68.17 39.88 68.17 41.03 75.61 32.45 75.61 35.31 68.17"/><polygon class="cls-5" points="41.03 68.17 44.46 68.17 47.89 75.61 42.17 75.61 41.03 68.17"/><polygon class="cls-5" points="119.31 98.32 236.87 62.78 247.85 63.55 254.85 56.6 256.96 56.75 253.76 63.97 254.27 73.93 252.63 72.16 249.4 67.8 225.71 80.19 229.31 86.23 222.36 91.53 222.14 98.13 213.3 96.68 196.03 107.04 198.31 114.64 187.13 107.24 167.22 120.72 105.42 108.92 119.31 98.32"/><path class="cls-7" d="M161.71,109.48s-22.89-14.12-42.78-14.07c-9.27,0-12.13,7.46-12.13,14.89,0,9.66-.19,17.17,3.43,19,8.59,4.34,35.19,5.42,48,5.69,5.66.13,10.37-6.72,9.9-14.87C167.82,115.79,166.22,111.65,161.71,109.48Z"/><ellipse class="cls-8" cx="111.66" cy="114.02" rx="3.15" ry="13.63"/><path class="cls-9" d="M237.78,116.91l63.49-16.52,13.73.83S274.39,121,264.09,121,245.79,122.69,237.78,116.91Z"/><path id="path19" class="cls-6" d="M259.4,78.46l1,.07-.29,8.89c0,1.38-.67,2.27-1.5,2.21l-.39,0,.05-1.56.28,0c.34,0,.56-.22.58-.84l.29-8.76Zm.08-3.34.95.07-.06,1.66-.95-.07.06-1.66Z"/><path id="path21" class="cls-6" d="M261.76,82c.06-1.25.5-1.89,1.06-1.85s.94.74.93,2l-2-.14Zm2.89,1.57,0-1.36c.07-2.14-.78-3.55-1.82-3.62s-2,.91-2.08,4.11c-.11,3.39,1,4.28,1.95,4.34.63,0,1.25-.3,1.74-1.21l-.65-1.07a1.27,1.27,0,0,1-1.06.72c-.65,0-1.1-.76-1-2.11l2.93.2Z"/><path id="path23" class="cls-6" d="M265.64,76.38l.94.06L266.5,79l.69,0,0,1.27-.69,0L266.3,85c0,.45.08.62.31.64l.36,0-.05,1.56-.5,0c-.66,0-1.11-.81-1.07-2.11l.16-4.95-.47,0,0-1.27.47,0,.09-2.5Z"/><path id="path25" class="cls-6" d="M270.23,82.32c.74.05,1,.9,1,1.81s-.39,1.72-1.13,1.67l-1.54-.11.11-3.48,1.54.11Zm-2.71,5,2.78.19c1,.07,1.88-1.16,1.95-3.16,0-1.17-.28-2.4-1-2.75v0a2.89,2.89,0,0,0,1.06-2.42c.06-1.82-.57-3.15-1.86-3.24l-2.56-.18-.38,11.59Zm2.78-9.86c.72,0,1,.84,1,1.74s-.4,1.63-1.12,1.58l-1.45-.1.11-3.32,1.45.1Z"/><path id="path27" class="cls-6" d="M273.06,76.06l.95.06-.31,9.45q0,.57.33.6l.33,0-.05,1.56-.42,0c-.69,0-1.19-.6-1.14-2.08l.31-9.58Z"/><path id="path29" class="cls-6" d="M275,79.53l.94.07-.16,4.91c0,1.12.34,1.8.88,1.84s.95-.59,1-1.71l.16-4.91.94.06L278.46,88l-.94-.07,0-.88h0a1.35,1.35,0,0,1-1.25.9c-.74,0-1.55-1.11-1.48-3l.18-5.48Z"/><path id="path31" class="cls-6" d="M280.08,83.27c.06-1.25.5-1.88,1.05-1.85s.95.74.93,2l-2-.14ZM283,84.84l.05-1.36c.07-2.13-.79-3.55-1.82-3.62s-2,.91-2.08,4.11c-.12,3.39,1,4.28,1.95,4.35.63,0,1.24-.31,1.74-1.22L282.14,86a1.24,1.24,0,0,1-1.05.72c-.65,0-1.1-.76-1.06-2.11l2.93.2Z"/><ellipse class="cls-6" cx="206.33" cy="104.52" rx="2.29" ry="4.96"/><ellipse class="cls-5" cx="206.33" cy="103.69" rx="2.29" ry="4.96"/><ellipse class="cls-6" cx="213.76" cy="106.17" rx="2.29" ry="4.96"/><ellipse class="cls-5" cx="213.76" cy="105.35" rx="2.29" ry="4.96"/><ellipse class="cls-6" cx="221.2" cy="107" rx="2.29" ry="4.96"/><ellipse class="cls-5" cx="221.2" cy="106.17" rx="2.29" ry="4.96"/><ellipse class="cls-6" cx="229.2" cy="107.82" rx="2.29" ry="4.96"/><ellipse class="cls-5" cx="229.2" cy="107" rx="2.29" ry="4.96"/><ellipse class="cls-6" cx="61.62" cy="76.43" rx="2.29" ry="4.96"/><ellipse class="cls-5" cx="61.62" cy="75.61" rx="2.29" ry="4.96"/><ellipse class="cls-6" cx="70.77" cy="78.09" rx="2.29" ry="4.96"/><ellipse class="cls-5" cx="70.77" cy="77.26" rx="2.29" ry="4.96"/><ellipse class="cls-6" cx="78.78" cy="79.74" rx="2.29" ry="4.96"/><ellipse class="cls-5" cx="78.78" cy="78.91" rx="2.29" ry="4.96"/><ellipse class="cls-6" cx="86.78" cy="81.39" rx="2.29" ry="4.96"/><ellipse class="cls-5" cx="86.78" cy="80.56" rx="2.29" ry="4.96"/><ellipse class="cls-6" cx="94.22" cy="83.04" rx="2.29" ry="4.96"/><ellipse class="cls-5" cx="94.22" cy="82.22" rx="2.29" ry="4.96"/><ellipse class="cls-6" cx="101.66" cy="84.69" rx="2.29" ry="4.96"/><ellipse class="cls-5" cx="101.66" cy="83.87" rx="2.29" ry="4.96"/><ellipse class="cls-6" cx="109.66" cy="85.52" rx="2.29" ry="4.96"/><ellipse class="cls-5" cx="109.66" cy="84.69" rx="2.29" ry="4.96"/><ellipse class="cls-6" cx="117.1" cy="87.17" rx="2.29" ry="4.96"/><ellipse class="cls-5" cx="117.1" cy="86.35" rx="2.29" ry="4.96"/><ellipse class="cls-6" cx="124.53" cy="88" rx="2.29" ry="4.96"/><ellipse class="cls-5" cx="124.53" cy="87.17" rx="2.29" ry="4.96"/><ellipse class="cls-6" cx="132.54" cy="88.83" rx="2.29" ry="4.96"/><ellipse class="cls-5" cx="132.54" cy="88" rx="2.29" ry="4.96"/></svg>