<svg id="Layer_1" data-name="Layer 1" xmlns="http://www.w3.org/2000/svg" xmlns:xlink="http://www.w3.org/1999/xlink" viewBox="0 0 1000 800"><defs><style>.cls-1{fill:#e1fdff;}.cls-2{fill:#fff;}.cls-3{clip-path:url(#clip-path);}.cls-4{fill:#424039;}</style><clipPath id="clip-path"><rect class="cls-1" x="35" y="30" width="924" height="732"/></clipPath></defs><title>storyPanel</title><rect class="cls-2" width="1000" height="800"/><rect class="cls-1" x="35" y="30" width="924" height="732"/><g class="cls-3"><rect class="cls-4" x="22.5" y="601.5" width="944" height="165"/><path class="cls-2" d="M966,602V766H23V602H966m1-1H22V767H967V601Z"/></g><path class="cls-4" d="M617.09,617.5a416.67,416.67,0,0,0-23.85-155.73C569.43,395.32,534.09,351.26,512.5,328"/><path class="cls-4" d="M629.94,611.51c-8.57-51.38-13-128.66,18.35-207.64A332.21,332.21,0,0,1,663,371.92"/><path class="cls-4" d="M642.78,609.51a345,345,0,0,1,33-99.82A324.76,324.76,0,0,1,696,475.74"/><ellipse class="cls-2" cx="739.5" cy="143.5" rx="87.5" ry="76.5"/><circle class="cls-2" cx="832.5" cy="154.5" r="37.5"/><ellipse class="cls-2" cx="809.5" cy="191.5" rx="14.5" ry="11.5"/><ellipse class="cls-2" cx="868" cy="143" rx="11" ry="12"/><circle class="cls-2" cx="873.5" cy="163.5" r="14.5"/><circle class="cls-2" cx="884.5" cy="155.5" r="11.5"/><ellipse class="cls-2" cx="898" cy="160.5" rx="7" ry="6.5"/><ellipse class="cls-2" cx="690" cy="166" rx="49" ry="51"/><circle class="cls-2" cx="655.5" cy="172.5" r="28.5"/><circle class="cls-2" cx="621" cy="184" r="17"/><circle class="cls-2" cx="671" cy="122" r="19"/><circle class="cls-2" cx="629.5" cy="168.5" r="8.5"/><circle class="cls-2" cx="637" cy="201" r="10"/><ellipse class="cls-2" cx="614" cy="189" rx="13" ry="12"/><ellipse class="cls-2" cx="195" cy="125" rx="13" ry="10"/><circle class="cls-2" cx="228.5" cy="102.5" r="12.5"/><circle class="cls-2" cx="221.5" cy="116.5" r="14.5"/><ellipse class="cls-2" cx="207.5" cy="110.5" rx="17.5" ry="14.5"/><ellipse class="cls-2" cx="244.5" cy="117" rx="18.5" ry="13"/><circle class="cls-2" cx="275.5" cy="121.5" r="25.5"/><ellipse class="cls-2" cx="252.5" cy="137.5" rx="11.5" ry="9.5"/><circle class="cls-2" cx="237.5" cy="132.5" r="7.5"/><circle class="cls-2" cx="306" cy="124" r="8"/><ellipse class="cls-2" cx="217" cy="134" rx="16" ry="10"/><ellipse class="cls-2" cx="196.5" cy="138" rx="10.5" ry="6"/><ellipse class="cls-2" cx="187.5" cy="131.5" rx="9.5" ry="6.5"/><ellipse class="cls-2" cx="178.5" cy="124" rx="7.5" ry="4"/><ellipse class="cls-2" cx="175" cy="133" rx="10" ry="8"/></svg>