<svg id="Layer_1" data-name="Layer 1" xmlns="http://www.w3.org/2000/svg" xmlns:xlink="http://www.w3.org/1999/xlink" viewBox="0 0 100 150"><defs><style>.cls-1{fill:url(#linear-gradient);}.cls-2{fill:#277052;}.cls-3{fill:url(#linear-gradient-2);}.cls-4{fill:url(#linear-gradient-3);}.cls-5{fill:#87783d;}.cls-6{fill:url(#linear-gradient-4);}.cls-7{fill:url(#linear-gradient-5);}.cls-8{fill:url(#linear-gradient-6);}.cls-9{fill:url(#linear-gradient-7);}.cls-10{fill:url(#linear-gradient-8);}.cls-11{fill:url(#linear-gradient-9);}.cls-12{fill:url(#linear-gradient-10);}.cls-13{fill:url(#linear-gradient-11);}.cls-14{fill:url(#linear-gradient-12);}.cls-15{fill:url(#linear-gradient-13);}.cls-16{fill:url(#linear-gradient-14);}.cls-17{fill:url(#linear-gradient-15);}.cls-18{fill:url(#linear-gradient-16);}.cls-19{fill:url(#linear-gradient-17);}.cls-20{fill:url(#linear-gradient-18);}.cls-21{fill:url(#linear-gradient-19);}.cls-22{fill:url(#linear-gradient-20);}.cls-23{fill:url(#linear-gradient-21);}.cls-24{fill:url(#linear-gradient-22);}.cls-25{fill:url(#linear-gradient-23);}.cls-26{fill:url(#linear-gradient-24);}.cls-27{fill:url(#linear-gradient-25);}.cls-28{fill:url(#linear-gradient-26);}.cls-29{fill:url(#linear-gradient-27);}.cls-30{fill:url(#linear-gradient-28);}.cls-31{fill:url(#linear-gradient-29);}.cls-32{fill:url(#linear-gradient-30);}.cls-33{fill:url(#linear-gradient-31);}.cls-34{fill:url(#linear-gradient-32);}.cls-35{fill:url(#linear-gradient-33);}.cls-36{fill:url(#linear-gradient-34);}.cls-37{fill:url(#linear-gradient-35);}.cls-38{fill:url(#linear-gradient-36);}.cls-39{fill:url(#linear-gradient-37);}.cls-40{fill:url(#linear-gradient-38);}.cls-41{fill:url(#linear-gradient-39);}.cls-42{fill:url(#linear-gradient-40);}.cls-43{fill:url(#linear-gradient-41);}.cls-44{fill:url(#linear-gradient-42);}.cls-45{fill:url(#linear-gradient-43);}.cls-46{fill:url(#linear-gradient-44);}.cls-47{fill:url(#linear-gradient-45);}.cls-48{fill:url(#linear-gradient-46);}.cls-49{fill:url(#linear-gradient-47);}.cls-50{fill:url(#linear-gradient-48);}.cls-51{fill:url(#linear-gradient-49);}.cls-52{fill:url(#linear-gradient-50);}.cls-53{fill:url(#linear-gradient-51);}.cls-54{fill:url(#linear-gradient-52);}.cls-55{fill:url(#linear-gradient-53);}.cls-56{fill:url(#linear-gradient-54);}.cls-57{fill:url(#linear-gradient-55);}.cls-58{fill:url(#linear-gradient-56);}.cls-59{fill:url(#linear-gradient-57);}.cls-60{fill:url(#linear-gradient-58);}.cls-61{fill:url(#linear-gradient-59);}.cls-62{fill:url(#linear-gradient-60);}.cls-63{fill:url(#linear-gradient-61);}.cls-64{fill:url(#linear-gradient-62);}.cls-65{fill:url(#linear-gradient-63);}.cls-66{fill:url(#linear-gradient-64);}.cls-67{fill:url(#linear-gradient-65);}.cls-68{fill:url(#linear-gradient-66);}.cls-69{fill:url(#linear-gradient-67);}.cls-70{fill:url(#linear-gradient-68);}.cls-71{fill:url(#linear-gradient-69);}.cls-72{fill:url(#linear-gradient-70);}.cls-73{fill:url(#linear-gradient-71);}.cls-74{fill:url(#linear-gradient-72);}.cls-75{fill:url(#linear-gradient-73);}.cls-76{fill:url(#linear-gradient-74);}.cls-77{fill:url(#linear-gradient-75);}.cls-78{fill:url(#linear-gradient-76);}.cls-79{fill:url(#linear-gradient-77);}.cls-80{fill:url(#linear-gradient-78);}.cls-81{fill:url(#linear-gradient-79);}.cls-82{fill:url(#linear-gradient-80);}.cls-83{fill:url(#linear-gradient-81);}.cls-84{fill:url(#linear-gradient-82);}.cls-85{fill:url(#linear-gradient-83);}.cls-86{fill:url(#linear-gradient-84);}.cls-87{fill:#d3bc92;}.cls-88{fill:#fcfcfc;}.cls-89,.cls-94{fill:#fff;}.cls-90{fill:#826d5c;}.cls-91{fill:#5f4e44;}.cls-92{fill:#351f07;}.cls-93{clip-path:url(#clip-path);}.cls-94{opacity:0.42;}.cls-95{clip-path:url(#clip-path-2);}.cls-96{opacity:0.65;}.cls-97{opacity:0.68;}.cls-98{clip-path:url(#clip-path-3);}.cls-99{clip-path:url(#clip-path-4);}.cls-100{fill:#b9aba0;}.cls-101{fill:url(#linear-gradient-87);}</style><linearGradient id="linear-gradient" x1="14.38" y1="32.06" x2="31.2" y2="32.06" gradientUnits="userSpaceOnUse"><stop offset="0.21" stop-color="#947441"/><stop offset="0.74" stop-color="#a58638"/></linearGradient><linearGradient id="linear-gradient-2" x1="359.25" y1="31.8" x2="376.07" y2="31.8" gradientTransform="matrix(-1, 0, 0, 1, 412, 0)" xlink:href="#linear-gradient"/><linearGradient id="linear-gradient-3" x1="43.71" y1="8.5" x2="121.01" y2="8.5" gradientTransform="translate(-24.79 108.93) rotate(-22.78)" gradientUnits="userSpaceOnUse"><stop offset="0.21" stop-color="#8a9841"/><stop offset="0.74" stop-color="#b6b908"/></linearGradient><linearGradient id="linear-gradient-4" x1="52.75" y1="99.6" x2="88.76" y2="99.6" gradientTransform="matrix(1, 0, 0, 1, 0, 0)" xlink:href="#linear-gradient-3"/><linearGradient id="linear-gradient-5" x1="71.78" y1="55.48" x2="101.08" y2="55.48" gradientTransform="matrix(0.87, 0, 0, 0.8, -40.85, 23.84)" xlink:href="#linear-gradient-3"/><linearGradient id="linear-gradient-6" x1="70.92" y1="55.41" x2="98.75" y2="55.41" gradientTransform="matrix(0.87, 0, 0, 0.8, -40.85, 23.84)" xlink:href="#linear-gradient-3"/><linearGradient id="linear-gradient-7" x1="69.67" y1="55.46" x2="97.2" y2="55.46" gradientTransform="matrix(0.87, 0, 0, 0.8, -40.85, 23.84)" xlink:href="#linear-gradient-3"/><linearGradient id="linear-gradient-8" x1="67.79" y1="55.46" x2="94.68" y2="55.46" gradientTransform="matrix(0.87, 0, 0, 0.8, -40.85, 23.84)" xlink:href="#linear-gradient-3"/><linearGradient id="linear-gradient-9" x1="65.21" y1="54.05" x2="93.24" y2="54.05" gradientTransform="matrix(0.87, 0, 0, 0.8, -40.85, 23.84)" xlink:href="#linear-gradient-3"/><linearGradient id="linear-gradient-10" x1="63.75" y1="53.75" x2="92.03" y2="53.75" gradientTransform="matrix(0.87, 0, 0, 0.8, -40.85, 23.84)" xlink:href="#linear-gradient-3"/><linearGradient id="linear-gradient-11" x1="62.42" y1="52.66" x2="89.92" y2="52.66" gradientTransform="matrix(0.87, 0, 0, 0.8, -40.85, 23.84)" xlink:href="#linear-gradient-3"/><linearGradient id="linear-gradient-12" x1="61.89" y1="52.1" x2="88.06" y2="52.1" gradientTransform="matrix(0.87, 0, 0, 0.8, -40.85, 23.84)" xlink:href="#linear-gradient-3"/><linearGradient id="linear-gradient-13" x1="60.22" y1="50.95" x2="86.92" y2="50.95" gradientTransform="matrix(0.87, 0, 0, 0.8, -40.85, 23.84)" xlink:href="#linear-gradient-3"/><linearGradient id="linear-gradient-14" x1="59.04" y1="50.08" x2="85.47" y2="50.08" gradientTransform="matrix(0.87, 0, 0, 0.8, -40.85, 23.84)" xlink:href="#linear-gradient-3"/><linearGradient id="linear-gradient-15" x1="56.56" y1="48.07" x2="83.3" y2="48.07" gradientTransform="matrix(0.87, 0, 0, 0.8, -40.85, 23.84)" xlink:href="#linear-gradient-3"/><linearGradient id="linear-gradient-16" x1="55.58" y1="47.84" x2="83.12" y2="47.84" gradientTransform="matrix(0.87, 0, 0, 0.8, -40.85, 23.84)" xlink:href="#linear-gradient-3"/><linearGradient id="linear-gradient-17" x1="53.52" y1="46.15" x2="80.8" y2="46.15" gradientTransform="matrix(0.87, 0, 0, 0.8, -40.85, 23.84)" xlink:href="#linear-gradient-3"/><linearGradient id="linear-gradient-18" x1="54.18" y1="44.59" x2="80.78" y2="44.59" gradientTransform="matrix(0.87, 0, 0, 0.8, -40.85, 23.84)" xlink:href="#linear-gradient-3"/><linearGradient id="linear-gradient-19" x1="51.77" y1="43.07" x2="79.11" y2="43.07" gradientTransform="matrix(0.87, 0, 0, 0.8, -40.85, 23.84)" xlink:href="#linear-gradient-3"/><linearGradient id="linear-gradient-20" x1="50.29" y1="40.77" x2="78.12" y2="40.77" gradientTransform="matrix(0.87, 0, 0, 0.8, -40.85, 23.84)" xlink:href="#linear-gradient-3"/><linearGradient id="linear-gradient-21" x1="50.79" y1="38.98" x2="77.1" y2="38.98" gradientTransform="matrix(0.87, 0, 0, 0.8, -40.85, 23.84)" xlink:href="#linear-gradient-3"/><linearGradient id="linear-gradient-22" x1="50.31" y1="37.89" x2="76.39" y2="37.89" gradientTransform="matrix(0.87, 0, 0, 0.8, -40.85, 23.84)" xlink:href="#linear-gradient-3"/><linearGradient id="linear-gradient-23" x1="49.81" y1="36.1" x2="76.18" y2="36.1" gradientTransform="matrix(0.87, 0, 0, 0.8, -40.85, 23.84)" xlink:href="#linear-gradient-3"/><linearGradient id="linear-gradient-24" x1="47.62" y1="34.96" x2="75.97" y2="34.96" gradientTransform="matrix(0.87, 0, 0, 0.8, -40.85, 23.84)" xlink:href="#linear-gradient-3"/><linearGradient id="linear-gradient-25" x1="47.48" y1="32.83" x2="76.22" y2="32.83" gradientTransform="matrix(0.87, 0, 0, 0.8, -40.85, 23.84)" xlink:href="#linear-gradient-3"/><linearGradient id="linear-gradient-26" x1="47.21" y1="31.41" x2="74.48" y2="31.41" gradientTransform="matrix(0.87, 0, 0, 0.8, -40.85, 23.84)" xlink:href="#linear-gradient-3"/><linearGradient id="linear-gradient-27" x1="48.82" y1="29.9" x2="75.26" y2="29.9" gradientTransform="matrix(0.87, 0, 0, 0.8, -40.85, 23.84)" xlink:href="#linear-gradient-3"/><linearGradient id="linear-gradient-28" x1="48.47" y1="28.25" x2="74.95" y2="28.25" gradientTransform="matrix(0.87, 0, 0, 0.8, -40.85, 23.84)" xlink:href="#linear-gradient-3"/><linearGradient id="linear-gradient-29" x1="49.05" y1="26.92" x2="75.46" y2="26.92" gradientTransform="matrix(0.87, 0, 0, 0.8, -40.85, 23.84)" xlink:href="#linear-gradient-3"/><linearGradient id="linear-gradient-30" x1="50.64" y1="25.58" x2="76.39" y2="25.58" gradientTransform="matrix(0.87, 0, 0, 0.8, -40.85, 23.84)" xlink:href="#linear-gradient-3"/><linearGradient id="linear-gradient-31" x1="49.92" y1="23.9" x2="76.95" y2="23.9" gradientTransform="matrix(0.87, 0, 0, 0.8, -40.85, 23.84)" xlink:href="#linear-gradient-3"/><linearGradient id="linear-gradient-32" x1="50.9" y1="22.38" x2="76.09" y2="22.38" gradientTransform="matrix(0.87, 0, 0, 0.8, -40.85, 23.84)" xlink:href="#linear-gradient-3"/><linearGradient id="linear-gradient-33" x1="51.69" y1="21.17" x2="78.37" y2="21.17" gradientTransform="matrix(0.87, 0, 0, 0.8, -40.85, 23.84)" xlink:href="#linear-gradient-3"/><linearGradient id="linear-gradient-34" x1="53.53" y1="20.09" x2="80.64" y2="20.09" gradientTransform="matrix(0.87, 0, 0, 0.8, -40.85, 23.84)" xlink:href="#linear-gradient-3"/><linearGradient id="linear-gradient-35" x1="55.27" y1="19.4" x2="80.95" y2="19.4" gradientTransform="matrix(0.87, 0, 0, 0.8, -40.85, 23.84)" xlink:href="#linear-gradient-3"/><linearGradient id="linear-gradient-36" x1="57.4" y1="18.46" x2="82.59" y2="18.46" gradientTransform="matrix(0.87, 0, 0, 0.8, -40.85, 23.84)" xlink:href="#linear-gradient-3"/><linearGradient id="linear-gradient-37" x1="56.87" y1="18.31" x2="84.3" y2="18.31" gradientTransform="matrix(0.87, 0, 0, 0.8, -40.85, 23.84)" xlink:href="#linear-gradient-3"/><linearGradient id="linear-gradient-38" x1="59.22" y1="17.64" x2="87.03" y2="17.64" gradientTransform="matrix(0.87, 0, 0, 0.8, -40.85, 23.84)" xlink:href="#linear-gradient-3"/><linearGradient id="linear-gradient-39" x1="60.56" y1="16.6" x2="88.32" y2="16.6" gradientTransform="matrix(0.87, 0, 0, 0.8, -40.85, 23.84)" xlink:href="#linear-gradient-3"/><linearGradient id="linear-gradient-40" x1="63.79" y1="16.92" x2="89.27" y2="16.92" gradientTransform="matrix(0.87, 0, 0, 0.8, -40.85, 23.84)" xlink:href="#linear-gradient-3"/><linearGradient id="linear-gradient-41" x1="65.8" y1="16.48" x2="90.4" y2="16.48" gradientTransform="matrix(0.87, 0, 0, 0.8, -40.85, 23.84)" xlink:href="#linear-gradient-3"/><linearGradient id="linear-gradient-42" x1="66.59" y1="15.35" x2="94.23" y2="15.35" gradientTransform="matrix(0.87, 0, 0, 0.8, -40.85, 23.84)" xlink:href="#linear-gradient-3"/><linearGradient id="linear-gradient-43" x1="68.44" y1="15.73" x2="96.01" y2="15.73" gradientTransform="matrix(0.87, 0, 0, 0.8, -40.85, 23.84)" xlink:href="#linear-gradient-3"/><linearGradient id="linear-gradient-44" x1="70.87" y1="15.14" x2="98.11" y2="15.14" gradientTransform="matrix(0.87, 0, 0, 0.8, -40.85, 23.84)" xlink:href="#linear-gradient-3"/><linearGradient id="linear-gradient-45" x1="72.93" y1="16.22" x2="100.86" y2="16.22" gradientTransform="matrix(0.87, 0, 0, 0.8, -40.85, 23.84)" xlink:href="#linear-gradient-3"/><linearGradient id="linear-gradient-46" x1="75.68" y1="15.48" x2="102.65" y2="15.48" gradientTransform="matrix(0.87, 0, 0, 0.8, -40.85, 23.84)" xlink:href="#linear-gradient-3"/><linearGradient id="linear-gradient-47" x1="77.95" y1="15.18" x2="104.28" y2="15.18" gradientTransform="matrix(0.87, 0, 0, 0.8, -40.85, 23.84)" xlink:href="#linear-gradient-3"/><linearGradient id="linear-gradient-48" x1="80.61" y1="15.93" x2="107.84" y2="15.93" gradientTransform="matrix(0.87, 0, 0, 0.8, -40.85, 23.84)" xlink:href="#linear-gradient-3"/><linearGradient id="linear-gradient-49" x1="80.85" y1="16.02" x2="108.69" y2="16.02" gradientTransform="matrix(0.87, 0, 0, 0.8, -40.85, 23.84)" xlink:href="#linear-gradient-3"/><linearGradient id="linear-gradient-50" x1="83.01" y1="16.77" x2="111.51" y2="16.77" gradientTransform="matrix(0.87, 0, 0, 0.8, -40.85, 23.84)" xlink:href="#linear-gradient-3"/><linearGradient id="linear-gradient-51" x1="85.54" y1="17.35" x2="113.6" y2="17.35" gradientTransform="matrix(0.87, 0, 0, 0.8, -40.85, 23.84)" xlink:href="#linear-gradient-3"/><linearGradient id="linear-gradient-52" x1="88.35" y1="18.44" x2="114.11" y2="18.44" gradientTransform="matrix(0.87, 0, 0, 0.8, -40.85, 23.84)" xlink:href="#linear-gradient-3"/><linearGradient id="linear-gradient-53" x1="89.95" y1="18.36" x2="117.1" y2="18.36" gradientTransform="matrix(0.87, 0, 0, 0.8, -40.85, 23.84)" xlink:href="#linear-gradient-3"/><linearGradient id="linear-gradient-54" x1="91.94" y1="18.82" x2="118.54" y2="18.82" gradientTransform="matrix(0.87, 0, 0, 0.8, -40.85, 23.84)" xlink:href="#linear-gradient-3"/><linearGradient id="linear-gradient-55" x1="92.25" y1="19.69" x2="120.38" y2="19.69" gradientTransform="matrix(0.87, 0, 0, 0.8, -40.85, 23.84)" xlink:href="#linear-gradient-3"/><linearGradient id="linear-gradient-56" x1="92.87" y1="20.67" x2="119.43" y2="20.67" gradientTransform="matrix(0.87, 0, 0, 0.8, -40.85, 23.84)" xlink:href="#linear-gradient-3"/><linearGradient id="linear-gradient-57" x1="95.96" y1="21.39" x2="122.82" y2="21.39" gradientTransform="matrix(0.87, 0, 0, 0.8, -40.85, 23.84)" xlink:href="#linear-gradient-3"/><linearGradient id="linear-gradient-58" x1="95.38" y1="23.12" x2="122.71" y2="23.12" gradientTransform="matrix(0.87, 0, 0, 0.8, -40.85, 23.84)" xlink:href="#linear-gradient-3"/><linearGradient id="linear-gradient-59" x1="96.5" y1="24.77" x2="122.15" y2="24.77" gradientTransform="matrix(0.87, 0, 0, 0.8, -40.85, 23.84)" xlink:href="#linear-gradient-3"/><linearGradient id="linear-gradient-60" x1="99.12" y1="25.46" x2="124.5" y2="25.46" gradientTransform="matrix(0.87, 0, 0, 0.8, -40.85, 23.84)" xlink:href="#linear-gradient-3"/><linearGradient id="linear-gradient-61" x1="97.22" y1="27.22" x2="124.57" y2="27.22" gradientTransform="matrix(0.87, 0, 0, 0.8, -40.85, 23.84)" xlink:href="#linear-gradient-3"/><linearGradient id="linear-gradient-62" x1="98.38" y1="28.46" x2="125.11" y2="28.46" gradientTransform="matrix(0.87, 0, 0, 0.8, -40.85, 23.84)" xlink:href="#linear-gradient-3"/><linearGradient id="linear-gradient-63" x1="97.45" y1="30.86" x2="125.5" y2="30.86" gradientTransform="matrix(0.87, 0, 0, 0.8, -40.85, 23.84)" xlink:href="#linear-gradient-3"/><linearGradient id="linear-gradient-64" x1="98.32" y1="32.31" x2="125.42" y2="32.31" gradientTransform="matrix(0.87, 0, 0, 0.8, -40.85, 23.84)" xlink:href="#linear-gradient-3"/><linearGradient id="linear-gradient-65" x1="97.09" y1="33.82" x2="124.31" y2="33.82" gradientTransform="matrix(0.87, 0, 0, 0.8, -40.85, 23.84)" xlink:href="#linear-gradient-3"/><linearGradient id="linear-gradient-66" x1="97.29" y1="34.49" x2="124.12" y2="34.49" gradientTransform="matrix(0.87, 0, 0, 0.8, -40.85, 23.84)" xlink:href="#linear-gradient-3"/><linearGradient id="linear-gradient-67" x1="96.97" y1="36.67" x2="124.85" y2="36.67" gradientTransform="matrix(0.87, 0, 0, 0.8, -40.85, 23.84)" xlink:href="#linear-gradient-3"/><linearGradient id="linear-gradient-68" x1="97.37" y1="38.67" x2="123.71" y2="38.67" gradientTransform="matrix(0.87, 0, 0, 0.8, -40.85, 23.84)" xlink:href="#linear-gradient-3"/><linearGradient id="linear-gradient-69" x1="94.15" y1="40.98" x2="122.58" y2="40.98" gradientTransform="matrix(0.87, 0, 0, 0.8, -40.85, 23.84)" xlink:href="#linear-gradient-3"/><linearGradient id="linear-gradient-70" x1="96.8" y1="42.57" x2="122.12" y2="42.57" gradientTransform="matrix(0.87, 0, 0, 0.8, -40.85, 23.84)" xlink:href="#linear-gradient-3"/><linearGradient id="linear-gradient-71" x1="93.32" y1="43.08" x2="119" y2="43.08" gradientTransform="matrix(0.87, 0, 0, 0.8, -40.85, 23.84)" xlink:href="#linear-gradient-3"/><linearGradient id="linear-gradient-72" x1="91.75" y1="45.32" x2="120.26" y2="45.32" gradientTransform="matrix(0.87, 0, 0, 0.8, -40.85, 23.84)" xlink:href="#linear-gradient-3"/><linearGradient id="linear-gradient-73" x1="92.78" y1="45.66" x2="117.49" y2="45.66" gradientTransform="matrix(0.87, 0, 0, 0.8, -40.85, 23.84)" xlink:href="#linear-gradient-3"/><linearGradient id="linear-gradient-74" x1="91.99" y1="46.96" x2="117.77" y2="46.96" gradientTransform="matrix(0.87, 0, 0, 0.8, -40.85, 23.84)" xlink:href="#linear-gradient-3"/><linearGradient id="linear-gradient-75" x1="90.38" y1="48.3" x2="117.18" y2="48.3" gradientTransform="matrix(0.87, 0, 0, 0.8, -40.85, 23.84)" xlink:href="#linear-gradient-3"/><linearGradient id="linear-gradient-76" x1="88.63" y1="50.32" x2="114.3" y2="50.32" gradientTransform="matrix(0.87, 0, 0, 0.8, -40.85, 23.84)" xlink:href="#linear-gradient-3"/><linearGradient id="linear-gradient-77" x1="87.55" y1="51.7" x2="112.16" y2="51.7" gradientTransform="matrix(0.87, 0, 0, 0.8, -40.85, 23.84)" xlink:href="#linear-gradient-3"/><linearGradient id="linear-gradient-78" x1="85.03" y1="52.89" x2="112.47" y2="52.89" gradientTransform="matrix(0.87, 0, 0, 0.8, -40.85, 23.84)" xlink:href="#linear-gradient-3"/><linearGradient id="linear-gradient-79" x1="82.39" y1="53.24" x2="110.88" y2="53.24" gradientTransform="matrix(0.87, 0, 0, 0.8, -40.85, 23.84)" xlink:href="#linear-gradient-3"/><linearGradient id="linear-gradient-80" x1="81.54" y1="53.97" x2="109.16" y2="53.97" gradientTransform="matrix(0.87, 0, 0, 0.8, -40.85, 23.84)" xlink:href="#linear-gradient-3"/><linearGradient id="linear-gradient-81" x1="79.31" y1="54.47" x2="107" y2="54.47" gradientTransform="matrix(0.87, 0, 0, 0.8, -40.85, 23.84)" xlink:href="#linear-gradient-3"/><linearGradient id="linear-gradient-82" x1="77.97" y1="54.42" x2="105.72" y2="54.42" gradientTransform="matrix(0.87, 0, 0, 0.8, -40.85, 23.84)" xlink:href="#linear-gradient-3"/><linearGradient id="linear-gradient-83" x1="75.48" y1="54.47" x2="102.46" y2="54.47" gradientTransform="matrix(0.87, 0, 0, 0.8, -40.85, 23.84)" xlink:href="#linear-gradient-3"/><linearGradient id="linear-gradient-84" x1="73.31" y1="54.92" x2="101.23" y2="54.92" gradientTransform="matrix(0.87, 0, 0, 0.8, -40.85, 23.84)" xlink:href="#linear-gradient-3"/><clipPath id="clip-path"><path class="cls-1" d="M14.38,32.06c0,3.76,3,6.17,7.92,6.17s8.9-3,8.9-6.81-6.82-5.54-11.73-5.54S14.38,28.3,14.38,32.06Z"/></clipPath><clipPath id="clip-path-2"><path class="cls-2" d="M15.7,32.19c0,2.88,2.3,4.73,6.06,4.73s6.81-2.34,6.81-5.22-5.22-4.24-9-4.24S15.7,29.31,15.7,32.19Z"/></clipPath><clipPath id="clip-path-3"><path class="cls-3" d="M52.75,31.8c0,3.76-3,6.17-7.92,6.17s-8.9-3-8.9-6.81,6.82-5.54,11.74-5.54S52.75,28,52.75,31.8Z"/></clipPath><clipPath id="clip-path-4"><path class="cls-2" d="M51.44,31.93c0,2.88-2.3,4.73-6.07,4.73s-6.81-2.34-6.81-5.22,5.22-4.24,9-4.24S51.44,29,51.44,31.93Z"/></clipPath><linearGradient id="linear-gradient-87" x1="54.86" y1="48.26" x2="99.76" y2="48.26" gradientTransform="translate(-6.13 16.2) rotate(-11.03)" gradientUnits="userSpaceOnUse"><stop offset="0.07" stop-color="#b6b908"/><stop offset="1" stop-color="#8a9841"/></linearGradient></defs><title>happyWave1</title><polygon class="cls-4" points="85.4 61.41 85.25 62.25 85.94 62.76 86.29 63.41 85.51 64.44 87.11 64.67 87.32 65.38 88.18 65.89 86.29 67.17 88.09 67.45 86.84 68.5 88.62 68.84 86.7 69.99 87.15 70.62 88.56 71.1 88.57 71.83 89.62 72.41 86.86 73.54 87.35 74.18 89.75 74.63 88.33 75.51 88.27 76.24 87.34 77.03 90.1 77.57 89.48 78.34 87.59 79.14 87.94 79.84 89.48 80.53 90.17 81.26 88.94 81.99 88.03 82.69 89.96 83.47 88.12 84.12 87.34 84.79 88.61 85.59 88.32 86.3 87.65 86.95 87.66 87.67 87.38 88.36 87.48 89.09 89.68 90.13 89.43 90.84 87.89 91.33 88.25 92.13 89.18 93.06 88.05 93.58 86.49 93.98 88.1 95.09 86.47 95.44 86.09 96.08 86.68 96.99 87.73 98.05 86.77 98.53 86.1 99.08 86.47 99.97 86.61 100.81 86.42 101.53 86.49 102.36 84.9 102.5 83.56 102.71 83.08 103.27 84.9 104.91 83.33 104.97 83.98 106.11 82.59 106.2 82.57 107.01 82.97 108.09 81.15 107.83 80.63 108.34 80.27 108.95 81.77 110.87 80.41 110.8 80.32 111.65 79.83 112.2 79.56 112.94 79.05 113.48 77.01 112.59 77.64 114.18 77.15 114.73 77.25 115.92 75.18 114.69 74.47 114.93 74.2 115.7 73.41 115.8 72.72 116.01 72.22 116.5 71.97 117.39 72.38 119.52 71.66 119.8 70.29 118.73 69.47 118.65 68.64 118.47 68.58 120.22 68.09 121.05 66.7 119.15 66.22 119.95 65.5 119.98 65.11 121.45 64.33 121.31 63.55 121.01 62.67 119.86 62.28 122.64 61.52 122.62 60.69 121.22 59.99 121.57 59.26 121.12 58.57 120.29 57.77 122.56 57.08 121.74 56.27 122.63 55.8 120.18 54.82 122.14 54.19 121.4 53.53 120.98 53.04 119.75 52.16 120.47 51.66 119.51 50.63 120.64 50.07 119.97 49.33 119.94 48.22 121.05 48.39 118.24 47.42 118.87 46.96 118.06 45.41 120.04 44.71 119.79 44.17 119.17 43.86 118.08 43.39 117.38 42.67 117.22 42.24 116.47 41.18 116.94 41.16 115.47 40.52 115.15 39.27 115.9 38.24 116.2 38.11 115 38.13 113.62 36.92 114.17 36.22 113.92 36.27 112.57 34.56 113.75 34.24 112.94 33.34 112.92 33.18 111.92 33.16 110.76 32.6 110.32 32.52 109.28 31.53 109.36 31.33 108.5 29.45 109.54 29.48 108.42 29.5 107.33 27.92 107.95 28.56 106.25 27.91 105.88 27.68 105.11 26.73 105.03 26.72 104.07 25.61 104.1 24.76 103.9 23.8 103.76 23.21 103.29 23.29 102.28 22.39 102.06 22.95 100.69 21.67 100.76 20.79 100.49 22.08 98.66 21.08 98.49 19.97 98.37 21.16 96.72 20.01 96.61 19.84 95.87 19.54 95.22 18.87 94.78 17.98 94.45 17.67 93.78 17.69 92.96 16.81 92.58 16.93 91.72 17.03 90.89 15.07 90.94 14.87 90.21 16.34 88.86 15.92 88.25 14.85 87.84 14.54 87.17 16.36 85.89 14.24 85.72 14.8 84.83 14.18 84.23 13.83 83.55 13.7 82.82 14.12 82.03 13.58 81.35 13.49 80.62 14.37 79.85 13.24 79.14 14.66 78.44 15.44 77.79 13.85 76.96 13.54 76.18 13.48 75.41 15.19 74.99 13.93 73.98 13.93 73.21 14.93 72.73 13.79 71.58 16.06 71.62 15.64 70.69 14.64 69.44 16.65 69.58 16.81 68.86 17.3 68.31 17.72 67.74 17.02 66.44 17.32 65.75 17.36 64.86 17.85 64.28 18.32 63.69 20.88 64.85 19.22 62.47 20.8 62.91 20.98 62.08 22.71 62.79 21.35 60.36 23.53 61.62 23.93 61.01 23.8 59.77 25.39 60.57 25.07 59.04 25.26 58.11 25.42 57.1 26.11 56.78 27.89 58.04 28.06 57.03 27.84 55.4 28.56 55.15 29.03 54.53 30.71 55.87 31.24 55.36 31.11 53.69 32.91 55.4 33.48 54.96 32.89 52.36 34.41 53.69 35.33 53.92 35.74 53.14 35.61 51.2 36.55 51.49 37.09 50.91 37.5 50.03 39.16 51.98 38.84 49.42 40.27 50.9 40.55 49.68 40.83 48.42 42.32 50.21 42.38 48.34 43.39 48.94 43.73 47.74 44.42 47.48 45.2 47.49 45.72 46.72 46.53 46.82 47.99 49.08 48.42 48.03 49.06 47.66 49.75 47.42 50.58 47.79 51.16 47.14 51.9 47.17 52.25 45.35 53.34 47.05 54.01 46.76 54.54 45.58 55.5 47.02 56.22 47.05 56.78 45.87 57.38 44.67 58.19 45.47 58.86 44.63 59.69 46.41 60.33 44.56 61.09 46.36 61.8 45.4 62.49 46.58 63.18 46.7 63.98 45.28 64.84 44.01 65.49 44.91 66.08 45.98 67 44.89 67.56 45.87 68.11 46.67 69.29 45.01 69.98 45.34 70.24 46.97 70.82 47.44 71.22 48.34 71.85 48.6 72.82 48.16 73.14 49.08 74.91 47.34 75.53 47.79 76.22 48.12 75.8 50.05 76.86 49.81 77.69 49.94 78.45 50.2 77.91 51.89 78.68 52.11 79.87 51.96 80.49 52.4 80.55 53.32 81.45 53.53 82.2 53.89 81.91 55.03 82.41 55.57 82.15 56.61 83.69 56.51 84.59 56.84 82.52 58.83 83.14 59.3 83.86 59.73 83.41 60.73 85.95 60.37 85.4 61.41"/><path class="cls-5" d="M70.59,119.44l-.13,14.72s-4.73,2.63-13.14,3.15-4.47,1.84-4.47,1.84H80.71a1.63,1.63,0,0,0,0-2.63c-1.58-1.31-7.88-2.62-7.88-2.62L73,119.44Z"/><ellipse class="cls-6" cx="70.75" cy="99.6" rx="18" ry="20.89"/><path class="cls-5" d="M67.07,119.44l-.13,14.72s-4.73,2.63-13.14,3.15-4.46,1.84-4.46,1.84H77.19a1.63,1.63,0,0,0,0-2.63c-1.57-1.31-7.88-2.62-7.88-2.62l.13-14.46Z"/><polygon class="cls-7" points="46.05 68.88 46.79 70.13 45.28 70.96 42.79 70.92 43.79 72.44 41.54 71.76 43.12 74.4 42.87 75.71 40.24 73.6 40.78 76.27 39.69 76.24 39.11 77.46 37.74 76.24 36.73 75.77 36.14 77.84 35.01 75.56 34.18 76.71 33.24 77.4 32.47 75.98 31.99 73.98 30.91 75.21 29.83 75.79 29.23 74.95 27.5 76.44 28.21 73.45 26.3 74.68 25.83 73.8 25.38 72.97 23.27 73.28 26 70.71 23.62 70.79 21.57 70.14 21.39 68.89 22.29 67.75 26.43 67.86 24.59 66.38 25.63 66.03 24.05 63.69 25.06 63.18 28.13 65.44 27.95 63.91 28.85 63.9 28.64 61.45 29.7 61.62 31.28 63.98 31.23 59.95 32.45 61.69 33.18 59.61 34.18 62.68 35.21 59 36.14 59.87 36.5 63.13 37.82 61.2 37.79 64.09 40.23 60.26 39.54 63.83 40.03 64.5 40.64 64.91 43.76 62.69 43.35 64.48 42.97 65.87 44.35 66.1 45.83 66.64 43.94 68.08 46.05 68.88"/><polygon class="cls-8" points="44.74 68.81 41.32 69.46 44.77 71.26 42.23 71.37 41.27 71.8 39.99 71.77 41.15 74.01 41.11 75.5 39.93 75.61 37.56 73.26 37.04 73.89 37.35 77.07 36.57 77.94 35.09 75.76 34.11 74.9 33.44 76.78 32.52 77.92 31.67 76.12 31.04 74.36 29.55 77.88 28.79 76.89 27.55 77.53 28.29 73.35 26.93 74.38 24.69 76.28 24.36 74.99 26.16 71.69 23.79 72.86 21.34 73.42 23.24 71.16 23.86 70.08 20.65 69.98 22.65 68.78 22.75 67.97 23.44 67.34 21.93 65.82 23.77 65.82 24.76 65.6 23.55 63.24 25.49 64.11 26.46 64.12 27.62 64.65 26.72 60.77 28.78 63.67 29.23 62.42 29.97 61.9 30.62 60.25 31.72 62.52 32.52 59.18 33.56 58.78 34.48 59.81 35 62.28 36.02 61.67 36.77 62.22 36.86 64.16 38.2 63.18 37.95 65.1 38.56 65.38 40.38 64.42 41.77 64.35 41.37 65.76 44.15 65.33 44.68 66.41 43.99 67.74 44.74 68.81"/><polygon class="cls-9" points="43.42 68.6 40.68 69.4 39.29 69.8 42.64 72.16 39.74 71.63 39.77 72.74 40.13 74.42 38.88 74.51 38.9 76.29 36.83 74.71 36.83 76.88 34.58 73.6 34.82 77.23 33.27 74.6 32.8 77.05 31.82 76.63 30.93 74.67 29.93 77.66 29.44 74.25 28.79 73.73 27.27 76.36 26.14 76.75 26.15 74.4 25.33 74.19 25.63 72.28 23.3 74.1 22.15 73.97 22.98 71.98 21.93 71.74 20.76 71.38 22.92 69.58 20.35 69.52 19.97 68.62 20.96 67.72 19.56 66.45 20.03 65.46 23.35 66.39 21.87 64.3 21.69 62.76 24.4 64.62 24.86 63.95 24.62 61.8 24.98 60.27 27.04 63.13 26.82 59.26 28.58 62.83 29.42 63.26 29.91 59.3 30.91 59.14 31.84 60.22 32.47 62.73 33.56 61.19 34.52 61.04 35.16 61.97 36.69 60.62 37.03 62.12 36.48 64.65 39.49 61.91 39.89 63.03 39.98 64.28 39 66.04 40.37 66.15 42.46 66.38 39.28 68 43.42 68.6"/><polygon class="cls-10" points="38.9 68.25 37.73 68.83 40.63 70.41 41.24 71.91 37.45 70.81 38.16 72.36 37.69 73.17 35.71 72.14 35.91 73.79 36.34 76.39 34.83 75.58 33 73.31 33.27 76.97 31.68 74.22 31.3 77.27 30.31 77.39 29.31 77.64 28.31 77.68 27.58 75.91 26.81 75.32 25.57 76.47 24.86 75.65 24.03 75.26 23.15 74.94 22.03 74.95 23.3 71.85 22.99 71.17 20.88 72.08 21.81 70.41 21.97 69.57 17.93 70.49 19.85 68.91 19.14 68.2 18.19 67.25 20.53 66.81 20.96 66.29 21.22 65.68 18.76 62.62 21.32 63.72 20.81 61.6 22.11 61.72 22.7 60.78 23.7 60.62 24.51 60 25.55 60.07 26.34 59.13 27.44 59.81 28.48 61.28 29.33 62.02 30.16 61.66 31.27 59.43 32.21 59.66 32.52 62.25 33.55 61.72 35.17 60.13 34.73 63.14 36.83 61.31 36.54 63.33 38.13 62.88 39.12 63.34 36.72 66.16 38.71 65.85 39.57 66.45 38.63 67.52 38.9 68.25"/><polygon class="cls-11" points="37.63 67.78 37.33 68.54 38.4 69.71 37.14 70.16 37.07 71.11 36.91 72.14 36.82 73.41 34.68 72.32 35.01 74.29 34.78 75.85 31.95 72.16 32.22 74.93 31.7 76.37 30.23 74.19 29.32 73.46 28.6 73.87 27.81 75.35 26.92 75.58 26.09 75.22 24.96 76.22 25.11 72.6 23.09 75.8 23.57 72.63 23.15 71.89 22.61 71.47 20.23 73.26 18.83 73.38 18.97 71.94 20.15 70.02 19.07 69.8 18.41 69.23 19.96 67.96 19.91 67.38 15.69 66.73 19.07 66.33 17.83 65.06 19.89 65.35 18.34 63.12 20.32 63.85 21.36 63.93 20.2 60.65 21.41 60.78 22.45 60.82 23.6 61.37 24.67 62.06 25.5 62.19 25.75 58.17 26.9 60.06 27.8 60.76 28.7 60.04 29.58 60.14 30.43 60.49 31.03 61.62 32.09 61.04 32.34 62.66 32.78 63.46 35.29 60.85 35.98 61.61 37.15 61.83 36.77 63.56 38.49 63.53 37.07 65.43 39.28 65.59 39.99 66.6 37.63 67.78"/><polygon class="cls-12" points="37.13 67.2 38.95 68.49 36.42 68.96 35.52 69.5 36.53 71.17 36.14 72.18 35.06 72.54 34.24 73.06 32.67 72.41 33.18 75.06 31.82 74.55 29.88 72.05 30.34 76.2 29.17 75.61 27.87 73.19 27.14 73.63 26.37 73.26 25.32 75.57 24.87 72.58 24.22 72.1 23.45 72.08 21.52 74.6 19.89 75.54 21.06 71.71 18.2 74.08 19.12 71.49 17.07 72.14 18.26 69.96 15.37 70.68 17.71 68.4 14.43 68.61 14.67 67.39 17.18 66.28 14.96 65.05 14.9 63.79 15.68 62.92 17.93 63.49 18.29 62.66 19.34 62.64 19.79 61.83 19.21 58.8 21.75 62.14 21.16 57.96 22.81 60.07 24.01 61.58 24.48 59.23 25.43 59.6 26.32 60.67 27.2 59.7 28.3 57.97 29.07 59.24 30.4 57.85 30.13 61.85 31.15 61.4 31.5 62.48 32.17 62.81 33.43 62.4 33.89 63.11 36.17 62.23 33.82 65.03 35.59 64.85 37.8 65 38.84 65.97 37.13 67.2"/><polygon class="cls-13" points="36 66.51 33.09 67.03 35.01 68.28 34.09 68.81 34.29 69.93 32.76 69.81 34.26 72.52 32.91 72.51 32.3 73.34 30.09 71.38 29.9 72.81 29.86 75.14 27.87 71.99 27.77 75.07 26.88 75.77 25.81 74.92 24.94 72.68 24.18 72.31 22.86 75.04 21.76 75.24 21.39 73.24 20.8 72.38 20.58 71.02 19.3 71.57 17.7 72.22 16.9 71.64 15.75 71.35 16.39 69.59 16.45 68.51 13.96 68.76 13.28 67.86 14.14 66.54 15.14 65.54 13.88 64.45 14.7 63.67 16.27 63.61 15.79 62.16 17.84 63.1 16.9 60.57 17.03 58.93 18.42 59.38 20.49 61.86 21.02 61.1 21.32 59.18 21.75 56.71 22.78 56.54 24.05 59.69 24.88 57.54 25.82 58.15 26.7 58.59 27.07 61.45 28.54 58.79 28.9 60.57 29.4 61.46 31.02 60.01 31.43 61.05 33.05 60.36 34.16 60.63 34.34 61.87 36.04 61.95 33.43 64.51 32.97 65.38 37.12 65.32 36 66.51"/><polygon class="cls-14" points="33.38 65.72 31.54 66.2 33.69 67.51 32.66 67.99 33.15 69.31 31.52 69.13 32.8 71.65 31.3 71.43 29.8 70.86 28.9 70.94 29 73.05 27.79 72.53 26.72 72.01 26.07 72.81 25.17 72.53 24.46 74.74 23.6 71.37 22.49 74.21 21.31 75.1 21.16 71.73 19.97 72.61 19.87 70.68 17.87 72.63 16.49 72.9 17.43 70.06 16.98 69.33 16.22 68.93 16.72 67.54 16.34 66.94 12.82 67.88 15.19 65.89 14.93 65.19 15.44 64.71 14.05 64.02 15.1 63.71 12.96 61.48 13.28 60.32 15.82 61.59 17 61.85 15.63 58.1 17.25 59.01 18.59 59.83 19.18 58.95 19.39 56.3 21.12 59.68 21.73 58.2 22.61 57.98 23.51 58.84 24.33 59.16 25.44 56.9 26.06 58.81 27.12 58.16 27.39 60.16 27.87 61.01 29.3 59.85 29.28 61.46 31.1 60.3 30.46 62.28 30.7 62.99 31.93 62.95 32.49 63.51 31.96 64.48 35.5 64.57 33.38 65.72"/><polygon class="cls-15" points="33.05 64.84 33.06 65.83 30.78 66.06 32.6 67.77 31.32 68.08 30.05 68.11 31.77 71.08 30.78 71.56 28.62 70.19 27.32 69.62 26.88 70.48 27.12 73.34 25.95 72.94 24.41 70.43 23.99 72.65 23.11 73.06 22.09 74.56 21.19 73.18 20.59 71.36 19.75 71.29 19.28 70.14 18.38 70.24 15.88 72.9 16.75 69.77 14.17 71.57 15.87 68.27 14.73 68.21 13.78 67.86 12.92 67.33 12.06 66.73 11.82 65.78 11.9 64.76 11.75 63.84 13.45 63.29 11.37 61.69 13.62 61.99 12.72 60.13 12.83 58.77 15.92 61.33 16.43 60.81 16.01 58.29 16.78 57.76 17.31 56.42 18.18 55.86 19.84 59.01 20.5 57.97 21.18 55.54 22.19 58.88 23.22 55 24.04 56.71 24.55 58.93 26.27 55.53 26.29 58.65 27.23 58.57 27.39 60.11 28.33 60.02 29.43 59.88 29.77 60.74 31.56 60.28 30.6 62.08 34.03 61.26 32.83 62.92 34.51 63.64 33.05 64.84"/><polygon class="cls-16" points="31.97 63.88 30.5 64.64 33.26 66.44 29.92 66.05 31.76 68.31 30.33 68.51 27.38 66.78 27.3 67.78 28.43 70.83 27.22 70.71 26.69 71.77 25.8 72.18 24.21 70.4 23.22 69.75 22.95 73.26 21.93 73.72 20.83 73.59 20.11 70.99 19.4 70.2 18.26 71.13 16.77 72.38 17.17 69.26 14.9 71.46 14.89 69.68 14.47 68.74 12.88 69.1 13.4 67.32 11.29 67.82 12.68 65.73 10.35 66.02 12.73 63.89 13.09 62.97 12.62 62.77 10.77 62 10.44 60.88 11.91 60.71 11.26 58.98 11.69 57.94 13.43 58.63 13.02 56.17 15.8 59.46 15.97 57.88 17.1 58.56 17.65 57.6 18.36 56.89 19.13 56.09 20.18 58.15 20.94 54.48 21.94 54.45 22.81 55.61 23.59 56.47 24.39 56.92 24.5 59.26 26.91 55.47 27.81 55.99 28.92 56.2 29.1 57.74 29.23 59.04 27.89 61.36 30.83 60.15 32.44 60.47 31.29 62.05 30.2 63.16 31.97 63.88"/><polygon class="cls-17" points="31.37 62.85 30.44 63.81 29.32 64.41 27.89 64.56 28.36 65.7 28.39 66.81 27.4 67.04 26.96 67.83 25.38 67.02 24.71 67.34 24.75 69.14 24.84 71.7 23.72 71.61 22.41 70.38 21.71 71.78 20.54 68.16 19.68 71.89 19.11 68.84 18.45 68.28 16.63 71.49 16.11 70.08 15.47 69.28 15.14 68.11 12.95 69.69 14.57 66.22 11.95 67.81 11.77 66.69 9.57 67.2 12.24 64.2 10.58 64.22 11.37 62.88 11.53 61.98 8.19 61.91 8.65 60.76 8.66 59.56 8.51 58.08 11.13 58.95 12.17 58.87 13.47 59.37 12.73 56.67 12.78 54.67 14.03 55.01 15.65 56.77 16.48 56.6 17.2 55.99 17.92 54.92 18.95 56.48 19.76 56.55 20.79 53.04 21.55 55.16 21.96 57.73 22.91 56.99 24.84 53.82 25.4 55.19 26.25 55.67 27.27 55.89 27.62 57.09 26.59 59.54 30.33 57.28 27.71 60.39 31.13 59.5 27.62 61.8 29.33 62.08 31.37 62.85"/><polygon class="cls-18" points="31.22 61.76 29.54 62.77 30.76 64.29 29.89 65.19 27.89 65.12 26.83 65.38 26.67 66.42 26.81 68.03 24.53 66.42 25.17 69.12 23.03 66.95 22.26 67.12 22.43 70.12 21.7 71.29 20.57 70.93 19.39 67.9 18.61 69.14 17.92 68.09 16.26 71.2 16.31 68.05 15.55 67.77 13.3 69.87 13.37 68 11.83 68.4 11.97 66.8 12.25 65.28 10.09 66.03 9.18 65.56 9.99 63.77 7.6 64.37 7.35 63.41 7.86 61.84 7.44 60.69 8.51 59.84 10.17 59.67 8.84 57.96 9.9 57.65 8.95 55.26 11.89 57.47 12.28 56.61 11.72 53.69 14.12 56.78 14.81 56.46 14.75 53.27 15.98 54.5 16.89 54.7 17.77 55.13 18.58 53.69 19.36 55.8 20.16 55.7 21.35 53.72 21.98 54.97 23.22 54 23.11 56.68 24.66 55.35 24.29 57.6 26.49 55.94 25.97 57.87 27.2 57.83 28.38 58.09 27.98 59.35 30.71 59.36 26.63 61.22 31.22 61.76"/><polygon class="cls-19" points="28.21 60.61 29.21 61.76 28.81 62.8 28.77 64.01 24.86 62.52 27.71 65.94 24.53 64.09 23.84 64.44 24.21 66.34 22.3 64.8 22.3 66.45 21.32 66.22 20.95 67.61 20.34 68.78 19.58 70.11 18.52 70.53 17.41 69.98 16.64 68.33 16.07 67.09 15.91 65.39 13.94 67.74 13.25 67.11 14.11 64.45 13.57 63.97 12.22 64.29 10.65 64.65 10.68 63.44 8.36 64.23 8.14 63.23 7.62 62.5 6.93 61.88 7.72 60.29 5.56 59.52 6.61 58.45 7.34 57.64 8.06 56.98 9.59 57.17 8.75 55.05 8.96 53.68 11.37 55.68 12.29 55.73 12.27 53.66 13.06 53.19 14.44 54.81 15.32 55.2 16.01 54.71 16.64 52.6 17.55 55.26 18.45 52.68 19.19 54.06 20.56 51.31 20.51 55.44 21.49 54.85 22.79 53.86 23.94 53.6 23.44 56.16 24.53 55.96 24.83 56.81 24.87 57.76 27.89 56.57 27.3 58.03 29.02 58.41 29.16 59.51 28.21 60.61"/><polygon class="cls-20" points="27.19 59.41 29.19 60.75 27.68 61.54 26.8 62.25 24 61.38 24.93 63.1 23.88 63.22 24.86 65.74 24.16 66.47 21.29 63.52 20.81 64.19 21.55 67.92 19.84 65.96 19.37 67.52 18.06 65.09 17.42 65.9 16.63 66.67 15.33 68.93 14.74 67.17 14.94 64.37 12.11 68.11 11.16 67.6 12.59 64.04 10.12 65.64 10.6 63.78 9.09 64 9.42 62.5 9.17 61.57 8.95 60.63 8.53 59.86 8.31 58.93 6.13 59.39 8.5 58.33 8.33 57.91 7.01 56.73 9 57.11 9.12 56.41 8.69 54.88 10.31 55.68 10.14 54.01 10.22 52.29 11.83 53.7 11.94 51.51 13.01 51.85 14.04 52.39 14.88 52.22 15.78 52.85 16.59 53.04 17.56 50.41 18.35 51.95 19.5 50.65 20.02 52.53 21.39 51.19 21.84 52.65 23.27 51.88 23.27 53.74 24.17 54.01 23.52 55.99 26.59 54.32 26.68 55.55 25.79 57.09 25.68 57.97 25.14 58.79 27.19 59.41"/><polygon class="cls-21" points="23.62 58.17 27.74 59.4 23.57 59.05 26.77 61.48 23.06 60.08 24.66 62.41 23.18 62.16 22.96 63.19 22 63.34 20.51 62.45 20.04 63.16 19.6 64.08 19.49 66.28 18.67 66.95 17.36 65.01 16.68 67.79 15.5 68.05 14.64 66.75 14.08 65.3 12.92 65.77 11.86 65.72 12.82 62.65 12.28 62.15 10.86 62.59 9.79 62.47 7.38 63.54 9.19 60.68 6.72 61.66 6.35 60.81 6.13 59.85 4.68 59.92 5.4 58.09 6.06 57.07 4.66 55.97 4.04 54.46 7.6 55.49 7.87 54.81 9.08 55.09 9.15 54.04 9.91 53.84 9.2 50.73 10.79 52.04 11.18 50.58 12.68 52.58 13.45 52.49 13.93 50.37 14.73 48.85 15.72 52.3 16.7 49.13 17.28 52.3 18.54 49.91 19.63 49.51 19.86 51.87 20.09 53.44 21.66 52.04 23.32 51.08 24.65 51.05 25.34 51.94 25.07 53.63 26.03 54.17 26.29 55.2 26.44 56.22 24.31 57.55 23.62 58.17"/><polygon class="cls-22" points="25.26 56.9 25.45 57.83 25.62 58.88 22.92 58.47 24.17 60.2 22.79 60.15 22.25 60.72 20.94 60.35 20.95 61.66 21.71 64.56 19.5 62.38 19.82 65.21 18.2 63.5 17.52 64.18 16.9 65.84 15.88 66.04 14.96 64.49 14.02 64.75 12.73 65.64 12.09 64.59 10.6 65.2 10.61 63.41 10.6 62.01 9.09 62.39 9.35 60.86 8.67 60.32 9.54 58.37 7.55 59 7.79 57.65 5.81 58.22 4.28 58.4 6.42 55.8 5.88 55.77 2.76 54.42 7.22 55.1 6.92 54.29 6.85 53.32 6.78 52.05 8.8 53.38 8.43 51.38 9.71 52.04 9.72 50.05 9.87 47.73 11.82 50.99 11.86 47.18 13.2 49.37 13.93 47.16 14.95 47.26 15.7 51.44 16.69 49.63 17.75 48.73 18.29 50.35 18.67 51.81 20.45 49.58 20 52.44 21.47 51.48 23.53 50.22 21.52 53.86 23.21 53.27 25.65 52.64 24.5 54.42 26.88 54.57 26.15 55.87 25.26 56.9"/><polygon class="cls-23" points="22.34 55.61 24.08 56.4 22.94 56.8 21.84 56.94 22.79 58.39 21.74 58.51 21.39 59.24 21.34 60.43 19.52 59.29 20.47 62.31 18.77 61.01 19.05 63.69 17.71 62.78 16.71 62.41 15.85 62.17 15.15 63.31 14.24 63.6 13.67 62.13 12.14 64.04 11.71 62.68 11.11 61.97 10.68 61.12 8.65 62.19 9.76 59.66 9.76 58.48 9.16 57.92 6.04 59.63 6.64 57.9 4.89 58.31 7.03 55.19 4.5 56.34 3.66 55.73 3.19 54.53 5.12 53.84 4.35 52.74 4.44 51.69 4.54 50.48 7.68 52.61 7.72 51.52 7.57 49.78 9.26 51.22 8.27 46.89 9.65 47.78 11.17 49.81 11.35 46.72 12.7 49.42 13.42 48.33 14.27 46.27 15.22 47.06 16.27 46.33 16.66 49.53 17.71 48.7 19.14 47.21 20.18 47.34 20.81 48.35 22.14 48.1 23.2 48.48 21.44 51.95 21.66 52.72 21.99 53.3 25.29 52.42 22.64 54.4 25.99 54.5 22.34 55.61"/><polygon class="cls-24" points="24.13 54.31 23.46 55.08 23.9 56.11 24 57.22 22.95 57.64 22.57 58.5 22.17 59.41 19.88 58.01 19.61 58.97 20.15 61.45 18.42 60.16 18.53 62.51 17.12 61.43 16.64 63.03 15.73 63.73 14.51 60.39 13.8 61.22 12.93 61.5 12.45 60.49 11.96 59.86 10.37 60.91 8.35 62.02 8.6 60.24 9.29 58.23 6.75 59.54 8.61 56.56 5.47 58.32 6.57 56.12 3.91 57.42 4.99 55.22 3.3 55.67 4.75 53.35 5.2 53.09 5.37 52.72 5.34 52.19 2.77 49.59 6.07 51.17 5.7 49.65 6.93 49.91 7.01 48.49 7.32 47.16 9.43 49.8 9.59 47.98 9.71 45.23 11.01 46.56 11.96 46.92 12.86 47.34 13.7 44.84 14.56 47.03 15.25 48.48 16.03 48.53 16.89 48.28 17.46 49.09 19.34 46.64 20.59 46.38 19.48 50.03 21.91 48.1 21.68 49.8 22.95 49.85 22.24 51.46 22.69 52.09 25.38 52.05 23.24 53.54 24.13 54.31"/><polygon class="cls-25" points="22.32 53 21.31 53.41 25.2 55.52 21.51 54.72 21.33 55.46 22.34 57.42 20.3 56.58 20.4 57.97 20.01 58.94 17.83 57.04 17.66 58.31 17.37 59.61 16.01 58.35 15.45 59.04 15.04 61.04 14.15 61.96 13.12 61.39 11.78 62.59 10.89 61.75 10.45 60.41 9.56 60.05 10.64 57.3 9.4 57.52 8.6 57.14 5.83 58.64 8.67 54.73 6.33 55.76 5.1 55.74 6.82 52.86 5.51 52.89 4.88 52.26 4.24 52.02 4.04 51.79 2.34 50.81 4.19 50.54 5.23 50.41 5.69 49.95 3.88 46.71 5.59 47.34 7.04 48.04 7.8 47.77 8.83 48.18 9.11 46.64 10.34 47.99 10.49 45.03 11.15 43.1 12.19 43.18 13.22 43.35 14.21 43.8 15.22 43.71 16.13 44.27 16.59 46.35 17.9 45.16 17.59 48.3 19.56 46.11 21.12 45.45 19.69 49.03 21.41 48.27 21.89 49.03 21.33 50.44 21.27 51.24 24.08 51.01 25.05 51.88 22.32 53"/><polygon class="cls-26" points="22.4 51.7 23.28 52.61 24.56 54.11 22.82 54.4 23.34 55.96 19.98 54.25 20.79 56.2 19.06 55.43 18.48 55.92 17.52 55.84 18.22 58.78 17.33 59.05 16.33 58.98 15.85 60.55 14.89 60.96 13.81 61.32 12.51 61.63 11.36 61.07 10.11 60.86 9.97 58.88 10.78 56.26 9.07 56.97 8.26 56.5 8.43 55.05 5.39 56.69 4.75 56.03 4.11 55.4 3.67 54.58 3.77 53.19 2.81 52.9 1.54 52.41 3.71 50.46 0.44 49.16 4.9 49.76 2.81 47.59 4.81 48.15 4.48 46.55 5.91 47.03 5.19 44.18 6.82 45.2 7.99 45.7 9.04 46.21 8.78 42.23 10.19 44.01 11.2 44.75 12.05 44.97 12.87 44.37 13.78 43.61 14.75 43.26 15.63 43.69 16.25 44.97 16.86 45.83 17.41 46.56 18.24 46.62 18.73 47.3 21.16 45.38 21.86 46.12 20.51 48.59 20.49 49.45 21.18 49.81 24.03 49.6 25.02 50.52 22.4 51.7"/><polygon class="cls-27" points="23.71 50.41 21.02 50.87 24.81 53.03 22.22 52.9 22.72 54.39 21.69 54.78 20.42 54.78 20.18 55.87 18.37 54.84 18.9 57.26 16.94 55.52 16.38 56.17 16.8 59.65 15.77 59.85 14.45 58.58 13.42 56.15 12.74 57.42 11.26 59.21 11.89 55.54 10.74 56.06 10.08 55.57 9.27 55.19 6.67 56.53 6.03 55.81 6.95 53.65 6.9 52.41 6.57 51.41 5.51 51.13 5.42 49.8 2.56 51.66 3.47 49.46 2.13 49.27 0.32 47.89 1.01 46.66 4.09 47.42 2.46 44.8 3.17 43.97 5.59 45.63 6 44.69 7.6 46 8.14 45.37 8.39 43.71 9.63 45 10.31 44.5 10.74 41.97 11.59 40.58 12.62 41.38 13.46 43.49 14.17 44.59 15.52 41.72 16.57 41.58 17.19 42.86 18.44 42.31 19.59 42.33 18.39 46.15 19.34 46.11 21.61 44.83 19.94 47.56 20.33 48.1 24.19 46.95 24.22 48.17 25.23 49.16 23.71 50.41"/><polygon class="cls-28" points="21.21 49.13 22.78 50.01 20.71 50.09 23.72 52.61 21.59 52.35 22.58 54.47 19.39 52.51 19.91 54.42 18.45 53.87 18.06 54.8 17.34 55.25 16.48 55.43 15.64 55.56 15.02 56.36 14.59 58.8 13.39 57.55 12.89 54.73 11.47 56.92 10.81 56.1 10 55.67 10.48 53.71 9.55 53.49 8.75 53.04 7.76 52.73 5.45 53.68 7.69 50.19 4.13 52.49 5.45 49.75 5.01 48.8 2.57 50.28 2.98 48.46 1.62 48.04 0.08 46.6 2.31 46.09 1.77 44.5 3.21 44.38 3.38 43.09 5.69 44.69 6.45 44.42 6.55 42.83 7.09 41.85 8.09 41.92 8.68 40.68 9.39 39.35 10.83 42.25 11.59 41.18 12.49 40.43 13.34 42.19 14.14 42.52 15.22 41.34 15.41 44.16 17.64 39.93 16.92 44.28 19.13 41.67 19.37 43.15 19.11 44.97 21.65 43.39 21.28 45.06 22.63 45.24 21.32 47 22.76 47.32 22.49 48.29 21.21 49.13"/><polygon class="cls-29" points="24.39 47.79 24.03 48.95 20.82 48.79 21.42 49.87 21.27 50.76 22.17 52.75 18.91 50.64 18.32 51.06 18.18 52.15 17.2 52.05 16.82 52.93 17.2 55.67 15.33 53.41 15.37 56.24 14.27 55.63 13.38 55.93 12.25 56.68 11.54 55.4 9.81 56.44 11.1 52.9 8.82 54.25 8.07 53.64 8.9 51.54 6.95 52.14 6.86 50.96 5.99 50.53 6.81 48.32 5.67 48.13 2.8 50.1 2.07 49.66 2.93 47.15 2.39 46.6 1.48 45.55 4.62 45.88 5.08 45.64 2.59 42.41 3.35 41.7 6.17 44.06 4.82 40.24 5.6 39.53 7.6 41.75 8.47 41.71 9.35 41.8 9.62 39.15 10.82 40.8 11.67 40.92 12.49 39.04 13.24 42.34 14.06 41.89 15.12 40.52 16.23 39.75 17.24 39.74 17.63 41.3 18.95 40.69 18.2 43.64 18.65 44.21 22.17 41.5 21.02 43.94 22.76 43.82 21.29 45.67 21.31 46.44 22.37 46.97 24.39 47.79"/><polygon class="cls-30" points="24.13 46.43 23.59 47.45 21.48 47.63 22.61 49.14 20.46 48.62 20.9 50.03 21.32 51.76 19.43 50.9 19.85 52.96 17.6 51.08 16.83 51.29 15.98 51.28 15.83 52.96 15.93 56.2 14.13 52.63 13.57 55.24 12.22 56.1 12.11 53.08 11.47 52.62 11.33 51.51 9.61 52.17 9.84 50.67 7.43 51.71 6.8 51.05 5.46 51.11 7.59 47.67 4.35 49.79 4.43 48.37 3.18 48.54 4.39 45.41 1.18 47.53 1.33 45.4 4.15 44.69 3.76 44 5.17 44.22 5.38 43.66 5.01 42.17 5.51 41.47 5.48 39.74 5.69 38 7.11 38.77 7.67 37.47 8.6 37.05 10.03 38.95 10.76 37.79 11.78 38.71 12.66 40.73 13.52 39.33 14.32 39.75 15.36 38.76 16.81 36.86 16.71 40.37 18.6 38.08 18.64 40.22 18.41 42.2 19.72 41.69 21.11 41.42 23.09 40.97 23.12 42.33 20.91 44.57 22.36 44.79 22.77 45.57 24.13 46.43"/><polygon class="cls-31" points="23.4 45.16 23.07 45.99 24.57 47.56 21.91 47.23 23.86 49.78 19.82 47.43 19.31 47.9 20.29 50.31 19.14 50.19 18.03 49.99 18.99 53.47 16.24 49.9 16.34 52.18 15.97 53.95 14.67 52.53 13.95 55.26 13.03 52.71 12.57 51.58 12.39 50.53 10.57 51.55 8.31 52.53 9.01 50.51 9.94 48.37 9.44 47.56 8.12 47.52 7.41 46.9 7.37 45.51 4.37 47.62 4.29 46.31 4.38 44.59 1.69 46.16 1.68 44.14 3.21 43.15 1.93 41.66 1.92 40.23 4.49 41.17 5.06 40.56 5.32 39.43 6.03 38.85 6.88 38.51 7.45 37.53 9.2 39.75 9.57 38.14 9.94 35.67 11.43 38.97 12.2 38.7 12.99 39.79 13.78 39.18 14.51 39.59 15.43 38.85 16.45 38.15 16.87 39.62 17.79 39.44 19.02 38.86 19.16 40.28 21.31 38.81 22.7 38.84 21.84 41.05 21.33 42.45 21.48 43.19 23.66 43.23 24.1 44.15 23.4 45.16"/><polygon class="cls-32" points="25.38 44 21.68 44.39 22.7 45.37 22.78 46.3 22.95 47.51 20.39 46.33 22.7 49.98 19.89 48.02 18.96 48.08 19.01 49.64 18.89 51.21 16.67 48.62 16.36 49.82 16.41 52.63 15.54 53.36 14.26 49.6 13.8 50.45 12.38 51.83 13.3 48.88 11.89 49.47 9.95 50.15 10.73 48.16 9.26 48.28 7.76 48.45 8.3 46.64 5.87 47.92 7.48 44.73 4.5 46.96 5.62 43.99 3.79 45.05 4.88 42.34 5.33 42.42 5.11 42.25 5.62 42.09 3.06 39.56 5.8 40.84 6.28 40.32 5.44 37.72 6.89 38.34 8.39 39.47 8.19 36.97 8.73 35.78 10.12 37.21 11.27 38.57 11.86 37.39 12.78 38.79 13.48 37.6 14.31 37.22 15.36 35.6 15.73 38.6 16.42 38.93 18.41 35.41 18.65 37.43 19.85 37.04 21.36 36.47 19.93 40.05 22.39 38.5 20.75 41.2 24.03 39.83 23.15 41.46 21.9 42.77 22 43.39 25.38 44"/><polygon class="cls-33" points="25.86 42.93 23.84 43.68 24.21 44.69 23.63 45.38 22.39 45.49 23.23 47.38 21.63 47 20.86 47.38 20.5 48.31 18.96 47.47 19 49.17 19.04 51.3 17.84 50.92 17.36 52.55 15.78 50.29 14.91 49.12 14.6 48.9 13.22 50.34 11.36 51.2 12.82 48.12 11.48 48.21 10.93 47.48 9.82 47.25 8.88 46.9 7.75 46.79 8.73 44.39 8.57 43.06 7.1 43.36 5.11 44.57 5.47 42.37 2.93 43.95 2.43 42.01 4.45 40.93 4.94 40.36 5.6 39.96 4.2 37.5 6.13 38.27 6.35 37.06 8.03 38.17 9.23 38.84 9.81 38.33 9.96 36.45 11.12 37.49 11.99 37.89 12.42 35.81 13.16 34.32 14.11 33.52 15.02 35.02 15.85 35.68 17.07 33.94 17.49 36.24 19.25 33.74 18.99 37.04 19.52 37.79 20.38 37.91 23 35.86 20.91 39.66 23.27 38.55 24.5 38.88 24.52 40.04 24.54 41.07 24.65 42.01 25.86 42.93"/><polygon class="cls-34" points="24.48 41.96 23.15 42.35 25.12 43.77 24.72 44.6 24.29 45.42 23.64 46.06 24.25 48.09 22.01 46.89 22.56 49.2 21.79 49.83 20.3 49.17 20.08 50.86 18.82 50.45 17.28 48.83 16.32 48.2 15.75 49.77 14.53 50.8 15.09 47.51 13.4 48.63 13.69 47.08 11.02 48.32 11.43 46.73 9.88 46.91 10.46 45.12 10.29 43.95 10.18 42.61 8.47 43.14 7.61 42.73 6.13 43.29 5.24 43.06 5.02 41.6 6.36 40.38 6.34 40.15 3.28 38.15 5.58 38.37 6.11 37.68 8.03 38.71 8.54 38.21 9.32 38.12 9.59 37.01 8.85 33.08 10.39 34.46 11.96 36.75 12.65 36.37 12.91 32.77 14.01 34.24 14.89 36.59 15.74 34.87 16.77 33.58 17.64 34.07 18.24 35.38 19.19 35.21 19.22 37.33 20.05 37.29 22.37 35.05 23.61 35.1 22.83 37.49 23.58 37.97 23.31 39.19 24.48 39.46 23.84 40.56 24.66 41.15 24.48 41.96"/><polygon class="cls-35" points="24.84 41.08 25.81 41.89 24.06 42 24.51 43 25.98 45.17 25.2 45.8 24.82 46.84 22.19 45.07 21.09 44.88 21.7 47.33 21.68 49.16 20.75 49.48 19.23 48.33 19.04 50.63 17.73 49.69 16.66 48.91 15.69 49.1 14.79 48.66 12.97 49.2 13.12 47.59 14.18 45.44 14.19 44.21 11.8 45.07 12.66 42.94 10.08 44.25 9.24 43.87 9.18 42.51 8.68 41.62 6.75 42.91 7.53 39.84 5.46 41.26 5.93 39.77 3.97 38.67 8.01 39.2 7.44 38.22 8.67 38.5 7 35.37 9.68 37.69 8.16 33.54 9.3 33.62 11.18 35.7 10.96 32.57 11.74 31.7 13.32 34.31 13.77 31.55 14.75 31.05 15.8 33.43 16.81 31.52 17.69 32.66 18.89 31.44 19.3 33.95 20.13 34.24 21.13 34.14 22.47 33.57 22.64 35.17 23.1 36.04 25.63 34.63 23.85 37.63 26.76 36.65 25.94 38.31 27.09 38.95 24.74 40.4 24.84 41.08"/><polygon class="cls-36" points="29.06 40.28 25.77 40.83 25.03 41.16 25.38 42.09 23.96 41.89 25.01 43.82 25.01 45.09 24.71 46.17 24.15 47.02 23.29 47.42 22.76 48.43 20.05 45.04 20.5 48.11 19.56 48.21 18.17 46.16 17.68 47.68 17.44 46.33 15.66 48.07 15.1 47.18 15.75 45.36 12.68 46.76 12.23 45.97 12.65 44.43 10.65 45.15 10.95 43.64 10.14 43.27 10.18 41.78 9.28 41.47 9.74 38.97 8 40.05 7.61 39.17 9 38.45 7.38 38.28 8.23 37.99 5.56 35.13 6.88 34.78 9.28 36.15 8.34 33.27 10.57 35.2 10.77 33.71 12.54 35.7 13.29 35.58 13.21 32.51 14.15 32.54 15.06 32.49 15.88 31.52 16.84 33 17.71 33.02 18.68 32.22 19.32 33.77 20.68 31.86 20.63 35 22.84 31.8 23.62 32.56 23.7 34.34 24.9 34.27 26.51 34 25.35 36.45 24.91 37.74 27.75 37.15 25.11 39.1 27.54 39.33 29.06 40.28"/><polygon class="cls-37" points="28.4 39.57 29.33 40.71 28.33 41.43 28.2 42.46 26.93 42.66 28.06 44.97 24.63 42.65 26.03 45.68 24.92 45.74 23.67 45.47 21.85 43.95 21.09 44.11 20.55 44.69 20.06 45.5 19.53 46.39 18.87 47.76 17.26 49.11 16.74 47.41 18.2 44.6 16.08 45.35 14.1 45.77 14.24 44.5 14.75 42.83 13.95 42.28 13.62 41.23 11.24 42.65 12.22 39.83 10.84 40.16 10.57 38.78 8.48 40.64 7.97 39.45 7.07 38.52 9.15 37.66 9.48 37.33 9.64 36.73 7.75 33.76 10.34 35.33 10.41 33.96 11.41 33.92 11.27 31.62 13.33 34.08 13.54 32.18 15.17 34.71 15.4 32.24 16.41 33.15 17.3 34.3 18 29.71 18.89 31.96 19.51 34.06 20.51 32.89 22.08 30.25 22.35 32.66 22.76 33.95 24.49 32.4 23.69 35.45 24.58 35.45 26.34 34.68 26.13 36.06 26.83 36.53 26.59 37.55 27.41 38.03 27.68 38.78 28.4 39.57"/><polygon class="cls-38" points="28.87 38.95 30.23 39.99 28.86 40.46 27.66 40.65 30.05 43.55 26.14 41.21 27.53 43.87 26.36 43.85 26.49 45.55 25.75 46.15 24.84 46.46 23.99 46.85 23 46.94 21.15 44.38 21.21 47.62 20.12 46.59 20.1 44.71 18.55 46.06 17.91 45.42 17.06 44.93 15.41 45.05 16.94 42.65 16.29 41.93 13.19 43.72 14.61 40.9 13.85 40.33 13.28 39.49 13.15 37.86 10.96 39.69 9.61 40.36 10.07 37.75 11.1 37.1 10.79 37.08 10.3 36.46 8.92 34.51 10.38 34.56 9.62 32.14 10.89 32.12 12.88 33.66 14.36 34.82 14.04 32.06 15.69 34.16 15.96 32.33 16.74 31.97 17.5 31.27 18.45 32 19.27 29.75 20.1 32.28 21.04 31.41 22.12 30.52 22.23 33.82 24.43 29.7 24.6 32 25.68 31.91 26.73 32.07 27.52 32.68 26.45 35.27 29.17 33.94 28.46 35.68 30.75 35.54 28.23 37.54 29.94 38 28.87 38.95"/><polygon class="cls-39" points="31.77 38.4 28.51 38.66 32.23 40.85 29 40.07 28.26 40.39 29.93 43.04 27.84 42.11 28.21 43.91 26.13 42.5 26.53 44.65 24.43 42.69 24.16 43.83 24.93 47.71 22.88 44.88 22.5 46.65 21.63 48.49 21.4 44.48 21.33 43.97 20.61 43.78 20.67 42.7 19.09 42.7 16.77 43.37 17.53 41.49 15.35 42.38 14.44 42.17 15.87 38.91 14.17 39.66 12.86 40.05 12.25 39.35 12.77 36.22 12.22 36.13 8.45 37.76 10.35 36.24 9.88 34.99 9.29 33.16 12.43 34.73 13.9 35.34 13.78 33.9 14.26 33.11 14.16 30.97 15.67 32.16 15.9 30.16 16.69 29.44 17.78 29.79 18.76 29.93 19.81 31.32 20.65 28.59 21.47 31.75 22.26 32.12 23.42 30.36 23.62 33.21 24.44 33.09 25.38 32.83 26.31 32.78 26.46 34.08 28.16 33.08 29.18 33.3 27.67 35.81 28.6 35.93 28.52 36.72 29.06 37.17 30.61 37.56 31.77 38.4"/><polygon class="cls-40" points="34.6 37.92 32.04 38.71 34.15 40.59 31.47 40.26 31.38 41.28 31.09 42.26 30.47 42.95 29.42 43.1 28.75 43.69 27.93 44.06 26.39 43.11 25.8 43.71 26.03 46.35 24.63 45.26 24.3 47.55 22.84 43.45 21.57 46.67 21.13 45.3 21.22 44.02 22.07 42.32 19.93 42.69 18.55 42.62 17.75 42.17 16.37 42.41 15.73 41.98 15.77 40.58 16.78 37.42 15.98 36.77 14.21 37.98 13.7 36.87 13.44 35.95 10.49 37.14 12.82 35.91 13.5 35.63 11.51 33.28 13.83 34.18 15.1 34.53 14.6 32.43 15.31 31.89 15.57 30.36 17.9 33.58 18.58 33.28 18.02 28.46 19.51 30.57 20.64 32.25 21.22 29.93 22.12 29.47 22.93 31.59 24.09 28.82 24.66 31.09 25.01 33.04 27.25 28.78 26.8 32.49 27.23 33.35 28.37 32.92 29.18 33.2 28.58 35 32.56 32.47 32.02 34.19 30.3 36.1 32.36 36.12 32.75 36.98 34.6 37.92"/><polygon class="cls-41" points="33.83 37.53 33.12 38.18 35.7 40.2 33.02 39.85 31.55 39.72 30.81 40.03 30.3 40.58 29.95 41.38 29.96 42.79 28.19 41.58 27.85 42.52 26.91 42.42 26.8 44.08 26.75 46.47 25.48 45.58 24.54 45.39 24.02 44.6 22.72 44.84 22.52 43.8 21.95 43.08 22.91 41.24 20.22 42.11 21.48 39.72 18.23 41.72 20.26 37.91 17.58 39.88 17.79 37.88 16.97 37.36 15.52 38.13 15.63 35.64 14.65 36.03 11.65 36.91 12.16 35.19 13.17 34.25 12.41 32.34 14.19 32.5 15.76 32.96 15.92 31.65 17.11 31.92 16.73 29.1 18.66 31.19 20.14 32.88 20.32 30.74 21.23 30.91 21.81 29.15 22.65 27.85 23.69 29.82 24.63 29.09 25.42 30.26 26.73 28.09 26.61 32.51 28.65 28.84 29.09 30.41 30.61 29.54 30.83 31.13 32.32 30.77 30.6 34.12 31.04 34.66 34.59 33.13 31.71 35.77 35.71 35.16 32.91 36.8 33.83 37.53"/><polygon class="cls-42" points="35.99 37.16 35.24 37.94 33.77 38.13 33.43 38.67 33.2 39.39 35.44 42.65 34.1 42.7 31.42 40.86 32.46 43.7 32.14 44.94 29.81 42.84 29.81 44.66 28.25 43.4 27.22 42.89 27.43 46.62 26.14 44.4 25.71 44.2 23.82 45.14 25.02 43.04 22.15 43.87 24.87 41.08 22.03 41.98 21.61 41.28 22.03 39.71 19.6 41.1 21.29 37.7 19.77 38.22 19.23 37.38 18.42 36.98 16.85 38.18 16.8 36.19 15.72 36.54 16.93 35.21 14.46 34.91 16.93 34.98 17.02 34.39 15.08 31.32 18.02 33.41 19.16 33.79 19.04 32.09 18.7 29.42 19.84 29.64 20.37 28.3 22.35 31.77 22.95 30.86 23.69 30.34 24.36 28.21 25.33 29.49 26.08 31.85 27.18 29.06 28 29.65 28.26 32.13 29.23 31.57 30.53 30.53 30.43 32.61 31.42 32.41 31.71 33.3 33.98 31.95 33.96 33.22 34.3 34.03 35.3 34.48 36.54 35.05 34.92 36.38 35.99 37.16"/><polygon class="cls-43" points="36.89 36.9 36.84 37.65 36.8 38.5 35.34 38.53 37.45 41.24 35.06 40.33 34.42 40.86 32.72 40.06 33.85 42.97 32.12 41.96 31.53 42.58 31.81 44.96 30 43.23 28.95 42.68 28.27 42.78 27.95 47.11 28.36 42.56 26.33 44.09 27.05 42.61 25.28 42.69 24.25 42.34 22.74 42.45 24.18 40.27 24.28 38.9 21.32 40.88 21.91 38.88 21.75 37.58 20.07 38.65 18.82 39.3 18.22 38.76 19.13 34.48 18.05 35.33 18.01 35.16 18 34.89 16.85 33.78 16.19 32.04 17.11 31.39 17.59 30.3 19.91 32 20.71 31.74 21.49 31.43 22.65 32.1 22.95 30.59 23.68 30.06 24.88 31.61 24.96 27.03 26.13 28.62 27.06 28.62 27.95 29.26 28.71 30.26 29.85 28.75 30.35 30.5 31.36 30.11 31.97 30.93 32.16 32.33 33.65 31.37 34.67 31.45 34.54 32.9 37.31 31.6 37.52 32.8 36.26 34.58 35.47 35.67 36.96 36.07 36.89 36.9"/><polygon class="cls-44" points="38.21 36.7 39.13 37.59 36.76 37.4 36.64 38 38.09 40.08 37.54 40.81 35.02 39.33 35.73 41.43 35.23 42.21 34.51 42.7 32.9 41.66 33.22 44.03 31.89 43.27 31.81 45.47 30.52 44.48 29.69 45.29 29.7 43.17 30.11 42.28 26.43 43.84 25.89 43.13 27.84 40.96 27.76 39.84 25.13 40.8 26.42 38.33 25.78 37.54 25.06 36.84 21.99 39.82 21.64 38.92 21.68 37.07 19.93 38.83 20.97 34.13 19.13 36.28 16.88 36.18 17.88 34.45 20.46 34.54 20.11 33.6 21.37 33.88 19.55 30.34 21.57 31.62 22.93 32.33 23.49 31.7 24.15 31.2 23.78 27.55 24.91 27.84 26.67 31.38 26.9 27.82 27.96 28.9 28.85 27.74 29.58 31.54 30.92 26.84 31.79 27.81 32.92 27.41 33.74 28.22 33.78 30.67 35.52 29.17 36.48 29.56 37.3 30.19 37.21 31.79 37.47 32.77 37.87 33.54 38.38 34.23 37.43 35.42 40.84 35.55 38.21 36.7"/><polygon class="cls-45" points="39.72 36.57 39.26 36.98 40.11 38 39.94 38.85 40.8 40.69 38.55 39.85 39.84 42.55 36.42 39.81 37.89 43.22 37.09 43.72 34.34 40.84 33.87 41.57 33.09 41.72 33.24 44.19 32.24 43.86 31.58 46.18 30.75 44.18 31.36 42.72 30.64 42.37 28.89 42.31 27.2 42.36 27.18 41.48 26.63 40.97 28.55 37.88 26.28 39.04 26.39 37.42 24.61 38.54 24.28 37.4 23.85 36.29 22.18 37.9 21.67 36.95 21.22 35.75 22.2 34.52 18.48 34.17 22.12 34.3 21.93 33.44 21.66 32.05 22.58 31.77 23.04 30.88 24.98 32.56 25.51 31.94 26.42 32.1 26.5 30 27.45 30.2 28.2 29.77 29.25 31.07 29.65 26.73 30.7 27.31 31.45 31.21 32.59 28.11 33.65 27.66 33.89 30.57 34.48 31.32 35.85 30.05 36.07 31.5 37.98 29.96 37.11 32.67 39.1 31.61 41.28 30.99 39.72 33.41 40.7 33.87 40.31 34.96 42.38 35.47 39.72 36.57"/><polygon class="cls-46" points="42.65 36.49 40.67 36.76 42.9 38.37 42.21 39.02 40.33 38.59 40.02 39.34 40.35 40.9 38.98 40.58 39 42.03 39.34 44.19 37.05 42.17 35.87 41.71 35.11 41.92 35.26 44.46 34.18 43.96 33.39 44.23 32.74 44.01 31.4 43.93 32.27 42.45 31.17 42.01 30.65 41.3 30.79 40.14 28.32 41.1 30.04 38.24 28.53 38.56 28.19 37.5 26.07 39.27 25.64 38.41 25.32 37.18 25.13 35.4 23.38 37.45 23.79 34.52 21.04 35.87 22.5 34.34 20.59 32.43 22.45 32.22 24.14 32.6 24.64 31.91 23.86 29.1 25.04 29.09 27.28 31.58 26.56 27.63 28.23 29.42 29.28 29.88 30.4 31.06 31.14 30.87 31.71 28.7 32.61 29.36 33.5 28.81 34.37 29.03 35.56 27.51 35.55 31.42 36.55 30.75 36.83 32.12 37.72 31.91 40.37 29.14 40.38 30.85 41.14 31.4 42.27 31.69 43.41 32.16 44.2 33.03 40.47 35.44 42.76 35.63 42.65 36.49"/><polygon class="cls-47" points="46.59 36.47 42.88 36.81 45.68 38.77 42.48 37.84 45.22 41.09 44.31 41.67 42.49 41.12 42.23 42.22 40.41 41.26 40.49 42.94 39.97 43.84 39.41 44.77 36.9 41.59 36.98 43.86 35.84 42.91 35.47 46.6 35.94 42.73 33.79 43.6 33.97 42.54 33.47 41.79 31.27 42.05 32.54 40.26 33.38 38.29 30.34 40.01 31.52 37.22 28.44 40.07 29.56 36.67 27.56 38.55 27.35 37.04 27.11 35.31 25.91 35.92 26 33.99 23.59 35.58 22.45 34.12 22.37 32.33 24.98 32.69 27.07 33.69 25.65 30.64 26.36 29.96 27.61 30.24 29.11 31.3 28.57 27.76 30.66 30.81 30.54 27.37 31.62 27.65 32.89 29.53 33.85 30.98 34.56 29.67 35.55 27.12 36.19 29.99 36.96 30.3 37.89 29.95 39.54 27.75 40.3 28.58 40.49 30.35 41.35 30.63 41.75 31.57 42.78 31.7 44.91 31.09 44.24 32.88 42.34 34.84 42.5 35.39 42.53 35.94 46.59 36.47"/><polygon class="cls-48" points="44.61 36.51 45.96 37.15 45.26 37.58 47.3 39.84 46.48 40.5 43.9 39.3 44.9 41.63 42.04 39.48 41.48 40 42.91 43.65 40.2 40.87 41.66 45.31 39.9 43.85 38.87 43.66 37.9 43.26 37.37 45.12 36.57 44.16 35.71 43.66 34.35 43.39 36.12 41.16 34.23 41.37 32.63 41.65 31.59 41.57 31.63 40.28 31.82 38.61 31.1 38.02 30.98 36.49 28.77 38.3 29.59 35.06 28.23 35.54 26.17 37.48 26.81 34.96 24.76 34.26 25.19 32.87 27.36 33.24 27.09 31.7 27.67 30.88 28.23 29.97 29.94 31.05 30.82 30.87 30.66 28.29 32.49 30.46 33.66 31.43 34.35 31.06 34.7 28.51 35.59 28 36.55 29.8 37.54 27.2 38.23 29.71 39.28 28.69 39.55 31.21 41.49 27.89 41.08 31.42 43.26 28.91 44.51 28.84 43.85 31.47 43.13 33.46 43.93 33.62 45.01 33.72 46.96 33.61 48.13 34.28 45.98 35.75 44.61 36.51"/><polygon class="cls-49" points="49.55 36.6 47.68 37.19 48.17 38.2 47.51 38.77 49.15 41.3 48.44 42.09 46.77 41.72 45.53 41.65 44.34 41.5 43.67 42.02 43.76 43.87 41.76 42.04 41.35 43.05 41.02 44.48 39.52 42.52 39.14 43.8 40.2 42.83 39.5 42.59 36.79 43.1 35.12 43.17 38.07 39.87 35.5 40.8 35.49 39.48 32.99 41.06 33.94 38.4 32.49 38.86 31.32 39.06 30.72 38.34 30.49 36.9 30.1 35.64 28.31 37.15 27.85 35.63 26.73 34.37 28.06 33.55 30.52 34.49 28.01 30.7 30.95 32.89 31.99 33.03 31.08 29.81 32.02 29.56 33.29 30.17 33.29 27.56 35.6 31.74 35.66 28.73 36.46 27.84 37.67 30.46 38.43 29 39.22 30.53 40.14 29.5 40.63 31.45 42.16 28.57 42.74 29.81 43.27 30.79 44.77 29.71 43.98 32.69 46.65 30.37 47.18 31.28 46.81 32.87 45.69 34.59 49.26 33.51 46.31 35.54 49.08 35.66 49.55 36.6"/><polygon class="cls-50" points="52.64 36.76 51.71 37.98 48.51 37.59 50.23 39.57 49.55 40.23 50.19 42.19 46.76 39.79 46.8 41.11 47.23 43.19 45.85 42.75 43.91 41.18 45.25 45.38 44.23 45.51 42.04 42.64 42.34 46.23 40.89 43.27 39.92 44.65 38.29 44.49 37.93 43.67 39.73 41.74 39.06 41.05 37.53 41.18 38.14 39.34 35.61 40.9 35.01 40.4 34.63 39.55 35.84 36.12 33.35 38.48 34.07 35.45 32.91 35.68 30.88 37.76 31.77 33.91 29.03 36.28 29.21 34.61 29.55 33.51 29.33 31.95 30.12 31.18 31.14 30.82 31.81 30.04 34.5 32.85 33.81 29.66 34.32 28.45 35.62 29.13 36.63 29.24 37.5 28.95 38.65 30.23 39.17 27.01 40.25 31.37 41.14 29.07 41.84 30.59 43.35 27.07 43.27 31.39 45.1 28.4 44.97 31.21 45.35 32.21 47.31 30.5 49.01 29.84 48.47 31.99 47.49 33.99 49.19 33.64 48.22 35.03 49.52 35.26 50.23 35.92 52.64 36.76"/><polygon class="cls-51" points="51.14 36.97 53.37 38.17 52.4 38.91 51.02 39.1 50.96 40.14 49.3 39.7 50.64 42.47 49.13 42.08 47.57 41.41 46.96 41.98 45.94 41.88 45.82 43.37 46.27 46.35 44.57 44.85 43.24 43.57 42.76 45.21 43.81 43.58 40.59 44.34 43.25 42.2 40.86 42.32 41.57 40.71 38.62 42.02 38.7 40.84 38.08 40.31 37.79 39.3 37.67 37.92 35.44 39.83 35.74 37.66 33.87 39.3 33.43 38.35 33.21 36.87 33.46 34.22 30.68 36.62 29.24 34.65 33.93 35.27 30.69 31.81 33.21 32.93 34.98 33.89 34.7 32.05 35.04 30.88 36.62 32.06 36.06 28.63 37.33 29.22 38.17 28.73 38.9 27.64 40.59 31.55 41.01 28.15 42.01 27.03 42.91 29.16 43.65 30.45 44.57 30 44.94 31.94 46.37 30.03 47.11 30.54 46.94 32.74 48.3 31.9 50.26 30.71 49.54 32.93 49.77 33.76 50.38 34.23 50.22 35.13 52.5 35.09 51.55 36.2 51.14 36.97"/><polygon class="cls-52" points="52.03 37.26 53.34 37.96 53.05 38.66 53.25 39.78 53.69 41.36 50.26 39.25 52.29 42.72 51.28 42.98 50.51 43.49 49.8 44.08 49.05 44.62 47.73 44.12 46.99 44.62 46.38 45.47 45.22 44.91 44.57 47.09 44.44 44.56 45.16 43.47 41.17 44.09 41.67 43.09 41.8 42.08 41.52 41.22 39.39 42.25 40.84 39.31 40.31 38.46 40.01 37.23 37.37 39.8 38.35 36.31 36.63 37.61 36.45 35.99 34.5 38.04 34.45 36.03 33.25 36.23 31.11 34.98 34.89 35.13 33.45 33.06 35.59 34.02 35.28 32.29 36.61 32.7 36.76 31.23 36.96 29.57 38.54 30.81 38.77 28.83 39.54 27.97 41.18 30.46 41.72 28.54 42.78 29.31 43.69 27.88 44.71 27.5 45.65 28.27 45.91 32.05 46.66 32.08 48 30.46 48.68 31.11 49.12 32.09 50.78 30.96 52.15 30.73 51.08 33.36 51.27 34.2 53.1 33.84 53.07 34.85 55.82 34.86 55.03 36.21 52.03 37.26"/><polygon class="cls-53" points="57.63 37.61 53.55 37.89 56.12 39.79 54.66 40 55.18 41.62 55.22 43.06 51.82 40.68 52.49 42.84 52.21 43.99 51.55 44.69 49.06 42.29 48.7 43.32 48.3 44.37 47.23 44.01 46.39 43.9 46.19 47.72 43.94 45.81 42.71 45.15 45.87 43.22 46.49 41.69 43.27 42.54 44.47 40.36 41.55 42.06 43.35 38.54 40.24 41.25 39.35 41.18 39.81 38.81 39.63 37.29 38.55 37.41 37.09 38.4 36.1 38.49 35.8 36.98 35.89 35.71 33.3 35.4 33.42 33.68 35.16 33.51 37.88 35.18 37.91 34.05 36.55 30.42 38.4 31.65 38.55 29.89 39.88 30.54 40.84 30.48 42.32 32.26 42.32 28.83 43.92 32.46 44.25 28.16 45.3 28.2 46.14 30.77 47.36 27.8 48.25 28.66 48.62 31.13 49.82 30.21 51.13 29.5 51.39 31.18 52.12 31.72 53.73 31.12 53.2 33.17 55.73 32.15 52.8 35.44 55.12 35 54.3 36.2 53.37 37.06 57.63 37.61"/><polygon class="cls-54" points="57.42 38.03 55.84 38.55 56.03 39.36 55.81 40.16 54.15 39.79 54.74 41.44 55.18 43.26 54.84 44.35 51.65 41.49 52.7 44.56 52.14 45.39 49.63 42.66 49.69 44.58 49.15 45.47 47.94 44.52 47.73 48.37 46.26 45.87 47.24 44.71 48.48 43.32 45.06 43.67 46.88 41.47 46.03 40.77 44.68 40.75 44.41 39.58 43.56 39.13 42.43 39.19 40.23 41.25 39.72 40.49 40.62 36.73 38.4 39.37 38.3 37.41 37.72 36.48 36.23 37.16 38.45 36.12 38.27 36.07 35.74 33.09 36.42 32.16 37.3 31.56 39.1 32.48 40.79 33.67 41.25 32.78 41.9 32.15 43.19 33.22 43.83 32.67 44.16 30.67 44.77 28.9 45.91 30.18 46.82 29.67 47.68 30.77 48.29 32.8 49.76 29.14 49.78 32.88 51.43 30.36 51.87 31.74 53.62 30.26 53.85 31.81 53.03 34.39 54.64 33.69 54.33 35.03 57.03 34.09 57.22 35.14 58.07 35.91 57.39 37.1 57.42 38.03"/><polygon class="cls-55" points="60.28 38.53 60.67 40.08 58.94 40.66 58.19 41.36 57.92 42.38 56.3 42.09 54.99 41.88 54.9 43.1 54.49 44.02 53.67 44.38 52.82 44.65 52.68 46.24 51.92 46.8 50.49 45.82 50.45 48.57 48.78 45.28 50.19 45.77 49.81 45.04 46.07 44.98 48.53 43.15 48.73 41.7 46.83 41.89 45.13 42.4 44.94 41.31 44.3 40.71 44.8 38.17 43.75 38.05 41.13 41.15 40.63 40.26 40.57 38.28 39.23 39.16 38.17 39.48 37.54 37.8 40.23 36.62 37.13 35.07 37.53 33.93 39.23 34.27 38.7 32.03 40.98 33.73 41.23 32.39 42.27 32.44 43.12 32.18 43.89 31.71 44.43 30.42 45.64 31.39 46.06 28.58 47.23 29.53 48.24 30.34 49.15 30.69 49.72 33.31 51.14 29.88 52.24 29.54 52.91 30.7 53.87 30.92 55.24 30.4 55.69 31.68 55.49 33.56 57.68 32.49 57.59 33.99 57.1 35.48 57.74 36.08 60.62 36.06 59.11 37.56 60.28 38.53"/><polygon class="cls-56" points="59.44 39.11 61.91 40.64 59.92 41.06 60.57 42.73 58.46 42.27 57.85 42.91 56.96 43.23 56.74 44.37 55.84 44.66 54.22 43.77 54.88 46.52 53.36 45.65 52.36 45.58 52.1 47.14 51.46 48.16 49.97 44.95 50.87 46.6 47.85 46.08 49.78 44.9 48.27 44.5 47.35 44.22 48.58 42.12 48.23 41.02 47.49 40.32 46.17 40.54 43.87 42.66 44.56 39.65 43.13 40.5 43.38 37.8 41.44 39.99 41.28 38.01 40.09 38.58 40.77 36.54 38.85 37.03 39.3 36.15 40.85 36.33 41.59 36.07 40.24 32.9 41.43 32.91 42.6 33.07 44.46 34.84 45.09 34.31 44.67 30.79 45.38 29.72 46.71 30.87 47.93 32.4 48.83 33.18 49.57 30.6 50.53 30.34 51.07 33.7 51.83 33.67 52.74 33.17 54.01 31.94 54.88 32.21 55.63 32.75 55 35.39 57.99 32.64 59.22 32.85 58.63 34.81 59.88 35.11 60.35 36.04 59.68 37.35 58.85 38.38 59.44 39.11"/><polygon class="cls-57" points="63.51 39.77 61.05 40.66 59.47 40.81 59.1 41.4 60.87 44.02 57.49 41.93 57.57 43.19 57.31 44.2 56.32 44.28 55.94 45.24 55.61 46.39 53.82 44.95 53.33 45.76 53.2 47.57 51.95 46.65 51.57 49.32 49.72 47.49 48.72 46.65 50.28 45.71 49.44 45.17 49.53 44.23 50.98 41.72 49.91 41.2 48.41 41.45 46.4 42.83 46.87 40.33 45.12 41.66 44.47 41.01 42.97 42.23 43.36 39.02 42.74 38.06 40.93 40.31 39.12 40.08 40.99 37.73 41.95 37.65 41.56 36.54 41.85 35.62 42.81 35.45 42.58 33.48 44.73 35.4 44.2 32.42 45.56 33.2 47.08 34.77 47.13 32.21 48.25 32.91 49.23 33.56 50.02 33.49 50.79 34.08 51.81 29.95 52.53 32.44 53.42 32.44 53.99 33.71 55.59 31.56 56.96 30.88 57.15 32.82 56.49 35.61 58.82 33.79 59.81 34.16 60.45 34.96 60.73 36 58.38 38.23 60.18 38.23 61.91 38.75 63.51 39.77"/><polygon class="cls-58" points="61.43 40.51 62.07 41.38 61.29 41.94 62.69 44.01 61.58 44.43 59.74 43.88 58 43.15 57.72 44.06 56.91 44.31 57.47 46.69 56.68 47.12 56.2 48.1 55.08 47.92 53.95 47.52 53.78 49.73 52.34 47.35 51.16 48.16 49.48 47.26 50.33 46.6 51.51 45.5 51.61 44.34 50.41 44.09 48.88 44.51 49.39 42.44 47.06 44.42 46.91 43.08 46.69 41.6 45.38 42.29 44.77 41.47 44 40.99 42.83 41.55 41.83 41.74 43.21 37.7 39.66 38.41 43.55 38.69 41.64 36.36 41.83 35.07 43.2 35.23 44.2 35.05 44.7 34.1 44.82 32.19 47.49 35.93 48.02 35.06 48.29 33.15 49.25 33.24 50.08 32.8 50.84 31.13 51.89 31.37 52.8 32.54 53.56 33.74 54.32 34.2 55.17 34.15 55.85 34.73 56.86 34.4 57.71 34.59 58.65 34.72 60.86 33.32 58.42 37.52 59.17 37.7 59.6 38.21 60.55 38.45 61.69 38.85 60.94 39.82 61.43 40.51"/><polygon class="cls-59" points="65.62 41.34 62.11 41.91 63.63 43.54 62.01 43.6 61.25 44.07 59.54 43.48 61.48 46.97 60.63 47.44 58.81 46.49 59.18 48.69 56.94 46.76 55.86 46.54 55.68 48.02 55.38 49.51 54.47 49.74 53.15 47.06 52.61 48.98 54.03 48.16 52.25 47.25 54.6 45.52 53.34 44.72 52.8 43.66 51.85 43.06 50.88 42.64 50.13 41.96 47.62 44.55 47.26 43.39 46.89 42.05 46.68 40.14 45.14 41.51 45.09 38.89 42.91 42.36 43.46 39.28 43.47 39.29 43.54 38.95 42.34 36.94 44.3 37.65 44.8 36.93 45.2 35.93 45.05 33.78 46.59 34.68 47.66 34.83 47.85 32.73 49.96 36.28 50.3 34.38 51.35 35.39 51.94 33.37 52.87 33.38 53.67 35.07 54.65 33.72 55.52 33.93 56.88 32.26 57.55 33.46 58.84 32.91 58.89 35.03 60.53 34.14 61.02 35.21 62.62 34.97 60.71 38.06 60.22 39.27 61.91 39.1 63.31 39.48 61.06 40.78 65.62 41.34"/><polygon class="cls-60" points="63.97 42.26 65.04 43.49 61.6 42.84 63.63 45.11 61.06 44.03 61.57 45.67 62.19 47.75 61.83 48.86 60.23 48.26 59.69 49.12 59.25 50.2 56.9 47.87 57.58 51.15 55.55 48.9 55.06 49.98 54.49 52.36 53.9 49.96 52.38 48.89 51.55 48.3 53.74 47.32 53.54 46.42 53.39 45.34 53.59 43.68 51.7 44.44 49.65 45.99 50.17 43.53 50.02 41.86 47.92 44.22 46.94 44.42 46.23 43.98 46.12 41.82 45.12 42.02 45.13 39.14 43.38 41.26 41.84 40.21 44.18 39.75 43.77 38.41 44.51 37.83 44.99 36.94 46.13 37 45.84 34.6 46.68 34.02 47.61 33.62 49.09 34.76 50.63 36.62 50.72 33.52 51.78 33.84 53.02 36.87 53.71 36.87 54.57 35.15 55.21 36.85 56.84 32.43 57.35 34.59 57.5 36.96 58.59 36.37 59.39 36.62 60.22 36.87 61.39 36.74 61.52 37.92 61.37 39.14 61.23 40.08 65.53 38.69 61.68 41.17 64.43 41.31 63.97 42.26"/><polygon class="cls-61" points="63.66 43.27 62.27 43.39 62.18 43.77 62.96 45.08 64.8 47.87 62.97 47.44 60.45 45.84 60.97 47.83 59.55 47.3 59.61 48.93 59.7 50.82 57.58 48.87 58.36 52.35 56.1 49.62 56.59 53.48 55.03 52.17 55.09 51.1 54.51 50.06 57.01 49.18 54.8 48.24 52.19 48.63 52.89 47.45 53.49 45.69 52.91 44.88 52.41 43.89 51.61 43.33 49.64 45.21 49.01 44.56 49.18 41.84 48.52 40.95 46.64 43.47 46.2 42.01 45.72 40.51 42.81 43.86 46.38 41.16 44.77 40.7 45.12 40.02 46.23 40.05 45.48 37.66 47.08 38.41 46.93 36.33 48.22 36.77 48.46 34.98 50.28 37.12 50.65 35.35 51.33 34.1 53 37.87 53.68 37.3 54.42 37.05 55.42 33.96 56.07 36.73 56.75 37.51 58.05 35.66 58.51 37.11 58.8 38.54 59.55 38.67 60.34 38.78 62.73 36.93 60.86 40.37 64.39 38.2 65.04 39.06 64.06 40.75 63.14 41.95 63.52 42.57 63.66 43.27"/><polygon class="cls-62" points="63.63 44.38 67.08 45.87 63.82 45.49 65.82 47.96 64.72 48.39 63.8 48.84 61.02 46.97 62.37 50.07 60.97 49.67 60.88 51.19 60.4 52.19 57.65 49.13 57.06 49.72 56.94 51.43 56.92 54 55.25 50.82 55.38 52.16 57.06 51.6 53.55 50.23 56.27 49.16 57.08 47.4 55.79 46.67 52.3 48.85 53.92 45.48 51.23 47.96 50.93 46.88 50.59 45.69 49.12 46.88 48.47 46.27 47.71 45.88 47.32 44.37 47.32 41.39 46.34 41.39 46.28 41.35 45.08 42.31 46.82 42.66 45.45 40.92 46.83 41.21 45.23 37.63 46.52 37.71 48.51 39.31 48.25 36.77 50.27 39.09 49.99 35.84 51.93 38.84 52.73 38.76 53.49 38.56 54.08 36.6 54.99 36.02 55.8 37.94 57.05 34.55 57.63 37.02 58.72 36.34 58.67 39.4 59.93 38.33 60.26 39.5 62.21 37.86 63.82 37.36 61.49 41.41 63.29 40.71 63.33 41.66 65.63 41.37 64.37 42.84 67 43.22 63.63 44.38"/><polygon class="cls-63" points="65.3 45.58 66.6 46.79 67.14 48.38 64.15 47.56 65.84 50.28 62.39 48.1 63.83 51.1 62.81 51.34 61.55 51.16 61.45 52.68 59.64 51.47 58.09 50.42 58.22 52.52 56.97 51.84 56.33 52.39 56.02 55.12 56.39 53.62 54.36 52.03 53.54 51.31 54.02 50.95 56.15 49.39 56.79 47.48 55.46 47.09 52.38 49.55 53.08 46.95 52.6 45.85 51.27 46.46 49.7 47.88 49.56 45.87 48.46 46.29 47.26 47.14 46.66 46.14 45.55 46.77 44.31 45.66 43.43 43.63 47.22 43.86 44.25 40.65 45.44 40.3 47.87 41.98 47.9 40.51 48.82 40.36 48.95 38.61 50.95 40.95 51.31 39.6 51.84 38.39 52.39 36.8 53.31 36.27 54.61 39.13 55.4 36.73 56.32 37.52 57.06 38.88 58.11 37.88 58.74 39.03 59.82 38.46 60.22 39.81 60.49 41.05 63.38 37.9 64.22 38.59 65 39.36 65.82 40.14 65.24 41.88 66.09 42.55 66.8 43.41 64.99 44.8 65.3 45.58"/><polygon class="cls-64" points="67.61 46.88 64.61 47.35 66.29 49.05 63.75 48.36 64.1 49.72 62.18 48.91 64.09 52.44 63.59 53.38 62.65 53.73 60.58 52.27 59.54 52.23 58.64 52.34 58.7 54.35 58.07 55.19 57.55 56.57 55.99 54.52 57.31 55.28 57.66 54.25 56.85 52.89 56.14 51.89 57.05 50.44 56.28 49.52 53.43 51.08 53.19 50.21 53.13 48.75 52.84 47.34 51.27 48.5 51.12 46.53 50.67 45.01 49.31 46.02 47.93 47.28 47.51 45.51 46.73 44.82 44.49 47.15 44.44 44.91 44.99 43.77 46.56 43.87 46.05 42.05 46.9 41.59 48.11 41.75 49.73 42.88 49.29 40.11 51.29 42.48 51.46 40.62 52.8 42.06 52.95 39.4 53.76 38.74 54.53 36.81 55.65 39.62 56.46 40.58 57.22 40.95 58.27 39.63 59.38 38.87 59.74 40.72 60.89 40.15 62.71 38.64 62.75 40.57 61.93 43.16 64.35 41.62 62.52 44.43 65.31 43.31 63.5 45.22 64.72 45.45 64.87 46.16 67.61 46.88"/><polygon class="cls-65" points="67.95 48.29 66.78 49.46 66.74 50.68 65.64 51.19 63.93 50.89 63.86 52.07 64.16 53.85 61.13 51.41 60.84 52.42 60.61 53.63 60.78 55.64 60.12 56.38 59.41 57.1 57.81 55.87 56.44 54.68 56.34 58.25 56.26 56.22 55.45 54.92 56.8 54.42 55.94 53.48 58.25 51.81 56.04 51.65 56.1 50.27 54.53 50.64 53.6 50.5 52.7 50.39 53.3 47.18 50.92 50.35 50.69 48.65 49.15 50.41 49.54 46.55 48.34 47.38 47.97 45.43 47.06 45.32 46.49 45.84 43.63 46.42 45.73 45.55 44.54 43.34 47.8 45.44 45.98 41.58 47.95 42.79 49.49 43.7 49.29 41.35 51.12 43.3 51.84 42.88 52.18 41.13 53.01 40.71 54.06 41.4 54.69 38.99 55.74 42.63 56.51 42.53 57.68 39.41 58.69 39.37 58.72 43.09 60.29 40.81 60.18 43.41 61.21 43.04 63.29 41.26 62.66 43.73 64.55 42.91 64.97 43.84 64.34 45.4 67.23 44.88 64.33 47 66.63 47.31 67.95 48.29"/><polygon class="cls-66" points="67.88 49.53 63.66 49.69 66.67 51.91 63.48 50.83 64.33 52.6 63.14 52.63 61.89 52.48 62.51 54.61 60.35 53.13 59.63 53.52 60.37 56.32 59.57 56.78 59.3 58.29 58.66 59.31 57.45 59.17 56.09 58.86 53.8 56.27 55.63 56.19 54.39 55.07 57.93 54.66 55.62 54.12 54.42 54.14 56.42 51.3 53.63 53.23 53 52.87 52.83 51.55 52.17 50.97 50.63 52.45 51.43 48.01 50.37 48.2 49.69 47.27 48.9 46.66 47.77 47.26 46.36 49.07 44.49 50.01 45.63 47.45 44.38 46.09 44.88 44.97 47.44 46.35 45.89 42.8 48.05 44.31 47.86 42.05 50.66 45.62 50.86 44.07 52.01 44.77 52.23 42.76 53.24 43.18 53.84 41.75 54.77 41.77 55.68 42.27 56.63 40.96 57.56 41.12 58.7 40.25 59.41 41.51 60.25 41.99 59.91 45.14 62.18 42.34 61.46 45.27 61.8 45.99 65.29 43.31 66.27 43.94 64.21 46.69 65.71 46.81 66.75 47.47 64.88 48.81 67.88 49.53"/><polygon class="cls-67" points="64.33 50.83 66.92 52.13 65.75 52.79 64.33 52.92 64.44 54.18 62.95 53.94 61.39 53.41 62.59 56.29 62.01 57.07 61.34 57.77 59.5 56.53 59.02 57.48 57.57 56.55 57.87 59.28 57.29 60.63 55.86 59.75 54.46 57.91 57.24 58.41 56.63 57 55.58 56.02 55.04 55.57 57.59 53.18 54.35 54.66 55.33 52.16 53.97 52.46 53.51 51.38 51.74 53.02 51.07 52.46 50.94 50.29 50.12 49.84 48.6 51.67 47.5 52.37 47.65 48.35 46.29 50.03 46.16 48.46 43.32 49.05 45.27 47.99 46.61 48.04 46.88 47.22 47.21 46.24 47.99 45.82 47.64 43.29 50.09 46.1 50.94 46 51.23 44.39 51.52 42.31 53.14 44.82 53.96 44.79 54.49 41.97 55.5 45.57 56.51 41.37 57.34 42.8 58.45 41.91 59.39 42.23 60.1 43.21 61.28 42.85 61.9 43.82 62.06 45.35 61.75 47.13 63.72 46.06 65.32 45.89 66.81 46.17 63.51 49.09 65.45 49.12 66.37 49.85 64.33 50.83"/><polygon class="cls-68" points="66.06 52.14 65.47 53.05 63.91 53.21 64.8 54.83 63.18 54.6 64.63 57.38 63.58 57.71 63.32 58.98 62.34 59.32 59.83 57.25 59.94 59.13 58.92 59.2 57.9 59.19 56.54 58.3 55.84 58.59 55.49 60.51 55.34 59.88 57.07 59.83 56.49 58.37 55.02 57.28 58.28 55.79 54.86 56.23 53.74 56.39 55.61 52.84 52.65 55.66 51.82 55.63 51.58 54.26 51.68 51.67 49.8 54.17 49.37 52.74 48.6 52.18 47.38 53.24 47.02 51.05 46.14 50.79 45.13 50.96 43.5 50.33 45.56 49.63 43.62 46.88 45.06 46.72 47.26 48.06 48.29 48.12 48.82 47.37 49.15 46.07 49.74 45.14 50.2 43.65 51.52 44.62 51.99 42.57 53.63 45.88 54.29 44.31 55.21 42.83 56.03 45.63 57.17 43.11 58.09 43.56 59.3 42.8 59.17 46.35 61.04 44.03 61.43 45.47 61.24 47.48 63.82 45.42 62.41 48.44 65.02 47.21 63.42 49.51 65.65 49.23 65.53 50.31 66.75 51.06 66.06 52.14"/><polygon class="cls-69" points="67.39 53.45 65.97 54.68 63.1 54.28 62.65 54.79 63.32 56.44 63.91 58.39 61.92 57.54 60.26 56.83 59.61 57.34 59.58 58.85 60.13 61.5 58.92 61.32 57.79 61.19 56.86 61.37 56.51 63.25 55.08 62.49 55.56 61.61 55.74 60.62 55.73 59.54 54.91 58.56 53.86 58.29 54.57 57.52 55.87 55.26 53.83 56.16 52.82 56.2 51.76 56.48 51.2 55.75 50.89 54.19 49.34 55.93 49.36 52.98 49 50.83 47.28 53.6 46.2 54.2 46.17 50.22 45.63 50.74 43.22 51.65 45.24 51 45.02 49.88 44.12 47.41 46.99 49.57 47.19 48.31 47.62 47.21 48.11 46.05 48.67 44.87 49.8 45.01 50.7 44.54 51.81 44.82 52.89 45.27 53.84 45.13 54.81 47.62 55.85 43.33 56.4 47.29 57.3 46.84 58.35 46.13 59.98 44.16 60.11 46.56 61.5 45.89 61.67 47.5 63.29 46.89 61.76 50.01 61.92 50.79 65.86 48.96 63.05 51.59 64.7 51.76 65.83 52.45 67.39 53.45"/><polygon class="cls-70" points="63.94 54.76 65.96 56.17 63.94 56.39 62.63 56.48 61.82 56.82 63.1 59.41 60.78 58.11 61.53 60.54 61.41 62.03 60.38 62.24 59.7 63.01 58.68 63.19 56.88 61.78 56.21 62.48 56.06 64.85 54.42 61.7 52.28 60.98 52.82 60.38 56.8 61.67 57.97 60.58 54.79 59.36 54.04 59.05 53.57 58.76 53.06 58.43 52.12 58.64 53.18 55.22 52.93 53.5 51.15 55.28 49.74 56.62 49.38 55.02 49.05 53.04 48.16 52.83 47.37 52.23 45.78 55.08 45.25 53.44 43.86 54.29 45.12 52.46 45.53 52.74 43.57 50.33 44.1 49.33 44.44 47.99 47.72 51.35 46.26 46.95 48.58 49.47 48.66 47.39 49.78 47.72 51.33 49.67 51.68 47.74 52.55 47.56 53.44 47.59 54.3 49.28 55.12 48.14 56.36 44.94 56.74 48.4 57.3 49.45 59.26 46.08 59.28 48.63 60.21 48.67 61.51 48.27 62.17 48.99 61.05 51.53 64.59 49.42 64.42 50.88 64.31 52.06 66.39 52.37 63.89 53.98 63.94 54.76"/><polygon class="cls-71" points="61.74 56.06 62.55 56.49 64.91 58.65 64 59.38 63.19 60.03 63.24 61.55 59.99 59.22 61.29 62.37 59.28 61.18 58.15 61.07 58.56 63.48 56.47 61.65 56.03 62.69 56.06 64.94 54.68 64.04 53.92 66.63 53.75 63.77 54.29 63.06 53.46 61.64 55.19 61.48 55.33 60.52 55.53 59.35 55.92 57.59 52.76 59.49 52.09 59.21 53.2 55.5 52.12 55.41 50.77 56.19 49.4 57.39 49.09 55.51 48.21 55.32 47.7 53.67 46.12 56.32 45.42 55.38 44.1 57.42 43.63 54.91 40.77 54.67 41.84 52.42 42.42 51.15 44.95 52.39 45.92 52.3 46.35 51.43 47.78 52.26 48.5 51.92 48.28 49.28 49.36 49.55 50.43 50.03 51.55 51.09 52.3 50.99 52.9 49.65 53.69 47.98 54.53 49.11 55.57 47.66 56.67 46.92 57.73 46.88 57.89 49.58 58.35 50.65 58.93 51.24 59.23 52.16 60.4 51.76 60.15 53.13 61.92 52.45 61.63 53.6 62.16 54.09 64.56 54.05 65.42 54.94 61.74 56.06"/><polygon class="cls-72" points="65.02 57.33 63.41 58.32 62.25 58.74 63.94 61.2 60.55 59.46 61.62 61.86 61.17 62.84 58.03 60.27 58.03 61.72 58.72 64.41 58.5 65.92 55.93 63.32 55.82 65.07 55.38 66.38 54.55 67.12 53.16 67.92 54.73 66.42 53.18 64.02 53.2 63.08 53.08 62.36 52.27 61.97 52.26 61.86 55.36 58.87 51.6 61.45 51.77 60.07 51.77 58.34 50.2 59.65 49.84 58.27 49.31 57.09 47.59 59.6 47.77 55.8 46.08 58.73 45.75 56.28 45.2 54.47 43.59 57.85 43.44 55.18 43.51 55.04 43.59 55 44.07 54.63 44.11 53.53 43.07 50.53 45.44 52.39 45.8 51.17 46.55 50.59 47.18 49.62 48.25 49.73 49.47 50.49 50.16 49.51 51.33 50.78 52.03 49.24 52.98 48.15 53.88 49.41 54.87 48.87 55.22 51.99 55.99 51.99 56.71 52.21 58.27 50.47 60.12 48.91 59.3 52.22 60.07 52.55 60.75 53.03 62.45 52.68 64.08 52.81 63.87 54.2 64.06 55.26 64.41 56.26 65.02 57.33"/><polygon class="cls-73" points="61.76 58.57 60.17 58.69 60.65 59.5 60.62 60.41 61.67 62.6 60.31 62.57 60.47 64.26 58.86 63.74 56.96 62.61 56.02 62.74 57.43 66.8 55.09 64.57 54.7 65.77 53.04 64.25 53.63 68.17 52.25 68.19 52.37 66.4 51.37 64.44 52.68 64.44 54.24 64.15 53.87 63.07 55.64 61.34 52.26 62.13 51.72 61.71 51.79 60.18 49.82 62.04 50.97 57.49 48.61 60.9 48.99 57.07 48.23 56.23 46.19 60.15 45.74 58.29 45.01 57.4 43.77 58.88 43.29 56.54 41.37 59.02 42.17 56.42 40.06 54.84 43.86 56.44 42.51 53.83 43.74 53.92 43.58 51.91 44.34 51.2 45.2 50.67 47.76 54.25 47.36 50.77 49.13 53.31 49.15 49.9 50.49 51.81 51.05 48.7 52.17 53.22 52.91 53.33 53.72 52.74 54.4 53.3 55.97 50.29 56.77 50.93 57.46 51.71 59.11 50.54 57.81 54.52 61.15 51.38 60.48 53.71 62.31 53.36 60.75 55.7 59.82 57 59.9 57.56 61.52 57.83 61.76 58.57"/><polygon class="cls-74" points="63.41 59.77 59.98 60.14 59.3 60.42 60.64 62.37 59.66 62.73 60.62 65.16 57.18 62.52 58.36 65.53 56.06 63.85 56.43 66.06 56.22 67.53 55.51 68.27 53.53 66.52 52.55 66.5 52.55 69 51.3 69.76 51.85 67.96 52.94 67.69 51.21 65.33 52.51 65.2 53.96 64.57 54.08 63.3 51.26 63.7 52.68 61.45 50.37 62.99 49.72 62.73 49.37 61.71 48.93 60.62 47.43 62.3 48.02 57.72 46.1 61.14 45.43 60.35 44.75 59.52 44.17 58.01 43.45 57.04 42.18 59 41.96 57.14 38.7 58.52 41.45 57.24 40.67 55.54 43.41 57.23 41.35 53 42.62 53.03 44.38 54.2 46.02 55.58 46.24 53.97 46.28 51.48 47.97 53.65 49.02 54.36 49.31 51.38 50.23 50.73 51.28 52.19 52.04 54.11 52.88 53.53 53.97 52.16 54.47 53.78 54.83 55.16 55.83 54.62 57.61 52.89 58.4 53.42 58.88 54.34 58.46 56.09 61.22 54.73 60.45 56.51 61.23 57.09 60.33 58.34 59.48 59.21 63.41 59.77"/><polygon class="cls-75" points="58.7 60.93 60.82 61.91 58.6 61.67 59.56 63.25 59.73 64.61 58.24 64.36 58.82 66.41 57.56 66.31 56.43 66.27 56.08 67.32 54.93 67.17 53.64 66.67 53.05 67.35 53.22 69.62 51.59 68.22 50.9 68.73 50.13 69.63 48.74 67.11 49.34 66.58 51.04 66.97 52.08 66.58 54.24 65.93 49.78 65.31 53.15 63.05 50.45 64.05 50.66 62.49 48.8 63.99 49.82 59.96 48.93 59.49 47.2 61.57 46.95 59.37 45.41 61.52 44.26 62.59 44.31 58.41 43.12 59.67 41.84 61.68 40.97 61.65 39.79 60.92 40.86 58.53 39.59 57.96 42.02 58.87 40.49 56.06 40.73 54.68 42.4 55.47 43.94 56.4 44.91 56.49 44.77 53.95 45.8 54.06 46.57 53.41 47.27 52.33 48.27 52.22 49.31 52.57 50.29 51.41 51.18 53.35 52.12 52.93 53.01 53.2 53.42 55.15 54.11 55.55 56.27 52.49 56.93 53.47 55.98 56.8 56.37 57.46 57.27 57.46 59.12 56.82 61.01 56.66 58.44 59.12 59.81 59.35 59.3 60.24 58.7 60.93"/><polygon class="cls-76" points="57.91 62.03 58.97 62.73 59.35 63.87 59.7 65.33 56.84 63.98 57.98 66.38 55.17 64.41 55.45 66.06 55.19 67.17 55.9 69.84 54.02 68.59 52.6 67.9 52.97 70.39 51.59 69.67 51.13 70.83 49.24 68.26 49.15 69.07 49.91 70.37 48.82 68.1 48.77 67.16 49.06 66.71 49.07 66.37 53.11 65.48 49.77 65.7 51.43 63.16 50.48 62.49 47.63 65.52 47.53 64.01 46.41 64.63 46.85 60.77 46.06 60.07 44.95 60.58 44.08 60.23 42.78 61.87 41.57 63.47 40.9 62.31 40.25 60.76 39.93 59.3 39.44 59.74 38.91 59.27 40.77 59.83 41.39 59.57 39.42 55.45 40.89 55.85 42.23 56.3 43.21 56.25 44.37 56.69 45.14 56.31 46.01 56.22 46.96 56.59 47.72 56.33 48.37 55.01 49.23 55.35 50.25 52.28 51.15 53.32 52.19 53.02 52.78 54.69 52.92 57.02 54.59 55 55.96 54.4 57.02 54.64 57.01 56.38 56.74 58 59.58 56.64 58.89 58.45 60.28 58.82 60.61 59.87 61.25 60.87 57.91 62.03"/><polygon class="cls-77" points="60.74 63.06 58.19 63.9 59.3 65.59 56.47 64.7 55.3 64.63 55.73 66.22 54.35 65.87 53.32 65.83 53.79 67.88 52.59 67.62 52.5 69.08 51.56 69.19 50.17 68.4 49.73 69.35 48.74 69.11 48.87 71.72 47.99 70.17 49.1 71.78 49.46 70.78 50.64 70.41 50.15 68.82 50.02 67.77 48.01 67.24 48.52 66.84 50.94 63.67 47.59 66.23 48.72 62.64 46.42 65.25 45.69 64.87 44.78 64.93 43.77 65.43 43.9 61.48 42.83 61.92 42.3 59.93 40.98 61.81 39.8 63.31 39.26 60.88 38.83 60.18 37.92 60.93 38.85 60.84 37.51 58.92 37.88 57.76 38.74 57.18 39.19 55.98 40.13 55.56 42.47 58.17 42.36 55.66 42.94 54.4 44.71 56.75 45.26 55.3 45.91 53.5 47.09 54.58 48.09 55.84 48.83 57.75 49.62 57.34 50.58 56.42 51.81 55.06 51.88 57.76 52.94 57.22 53.08 58.71 53.81 58.88 55.67 57.65 56.85 57.73 58.56 57.57 56.34 60.4 59.08 59.88 58.38 61.24 57.6 62.29 60.74 63.06"/><polygon class="cls-78" points="56.2 64.03 58.25 65.33 57.12 65.97 54.97 65.44 54.53 66.04 53.68 66.28 55.75 70.08 54.78 70.42 52.45 68.71 50.9 67.91 51.81 70.99 50.76 70.96 50.16 71.73 49.11 71.65 47.93 71.16 47.18 71.48 46.31 73.72 48.53 73.49 48.9 72.47 47.33 69.82 50.28 70.75 49.35 69.07 47.6 68.11 49.47 67.01 50.11 65.1 46.3 67.86 47.68 64.47 46.75 64.16 46.16 63.11 45.28 62.75 43.49 65.45 43.36 62.74 41.96 64.71 41.82 61.29 40.17 65 39.54 63.72 39.07 61.12 37.63 64.78 36.26 64.57 36.97 61.75 38.54 62.24 36 59.64 39.05 61.65 38.66 59.83 37.85 56.77 40.85 60.22 40.03 56.54 41.69 57.98 43.04 59.11 43.3 57.1 44.7 59.06 44.98 56.2 45.98 56.75 46.87 54.81 47.61 58.67 48.77 55.46 49.08 58.81 50.53 56.24 51.25 57.03 52.68 55.96 52.13 59.16 53.93 57.76 53.7 59.58 55.35 58.98 54.29 61.1 54.83 61.55 55.95 61.76 55.71 62.66 55.5 63.39 56.2 64.03"/><polygon class="cls-79" points="56.12 64.9 54.02 65.13 55.54 66.68 53.18 65.91 55.39 69.06 52.83 67.67 52.53 68.61 53.23 71 52.76 71.96 50.22 69.78 49.78 70.7 48.07 69.46 47.37 69.86 48.39 73.81 46.53 71.9 46.56 74.47 45.3 72.88 46.09 73.14 44.71 70.42 45.77 70.42 48.87 71.58 49.49 70.47 49.98 69.02 50.06 67.22 48.9 66.05 45.41 68.38 46.53 65.31 44.23 67.89 44.24 65.85 42.98 66.89 42.64 65.17 41.32 66.81 40.59 66.31 40.12 64.37 38.83 66.51 38.57 62.94 37.63 63.08 36.96 61.35 36.08 62.6 35.07 62.94 37.29 63.14 36.03 61.76 35.05 59.26 37.19 60.46 36.76 58.01 37.42 57.05 39.29 58.61 40.42 58.92 41.67 59.77 42.11 58.34 42.53 56.27 43.57 56.35 44.7 57.69 45.58 57.89 46.45 57.58 47.4 56.99 47.79 59.71 48.65 59.33 50.21 57.18 50.13 59.76 52.71 56.51 51.61 60.24 52.13 60.82 54.21 59.7 55.8 59.62 53.58 62.41 55.72 62.13 56.38 62.92 53.72 64.35 56.12 64.9"/><polygon class="cls-80" points="54.77 65.69 56.66 67.41 54.9 67.93 53.04 67.71 53.91 69.76 52.26 69.37 50.9 69.09 52.09 72.13 51.2 72.52 49.09 70.98 48.13 71.08 46.82 70.51 46.1 70.91 45.95 72.49 44.73 71.82 45.33 75.79 43.09 75.81 42.87 71.78 45.54 73.45 45.22 71.86 45.17 70.82 45.05 70.05 47.82 69.84 47.07 68.72 45.31 68.78 44.69 68.53 44.57 67.33 43.42 67.78 42.46 68.03 42.18 66.34 41.3 66.24 40.77 64.74 39.4 66.72 38.36 67.52 38.33 62.86 37.32 63.24 36.31 63.82 35.58 62.34 33.77 66.06 32.88 64.24 33.88 62.98 33.62 61.6 34.18 60.66 36.16 61.76 36.22 60.2 36.46 58.62 38.1 59.79 39.41 60.59 39.61 58.61 40.58 58.58 41.97 60.39 42.67 59.79 43.54 60.53 44.22 57.49 45.08 58.51 45.88 59.05 46.83 58.48 47.7 58.61 48.75 58.28 50.37 56.85 50.36 59.18 50.11 61.26 51.51 60.66 51.2 62.22 54.46 60.4 54.03 62.02 54.03 63.09 51.91 64.69 52.14 65.17 54.77 65.69"/><polygon class="cls-81" points="55.28 66.38 54.95 68 50.58 66.77 53.78 70.23 51.33 69.31 51.16 70.45 48.68 68.8 50.67 72.88 47.65 70.14 47.11 70.86 47.26 72.75 45.16 70.85 45.51 73.28 45.16 74.58 44.79 76.05 43.75 76.19 43.21 73.3 43.1 74.4 42.14 71.99 42.89 71.68 42.96 70.88 46.25 71.82 46.32 70.56 43.82 70.05 46.73 67.33 45.6 66.44 42.46 69.42 43.13 66.28 42.6 64.94 41.38 65.41 39.68 68 39.12 66.73 38.15 67 37.09 67.86 36.92 63.7 35.38 67.59 34.94 64.33 33.81 65.89 32.29 67.35 33.21 63.78 30.59 63.23 32.49 62.9 32.02 61.01 32.82 60.35 33.87 60.16 34.24 58.88 35.35 58.93 37.94 62.45 38.11 60.8 38.79 60.24 39.56 59.91 40.58 60.62 41.21 59.67 42.04 59.88 42.8 57.04 43.6 60.18 44.43 59.99 45.57 58.38 45.8 61.12 46.44 61.54 47.83 60.14 49.47 58.87 49.57 60.59 51.08 60.08 49.77 62.93 52.55 61.51 50.66 63.98 52.42 63.87 50.91 65.25 50.88 65.84 55.28 66.38"/><polygon class="cls-82" points="49.83 66.97 52.9 68.38 51.16 68.69 49.59 68.53 50.84 70.92 48.31 69.5 47.88 70.27 46.84 70.28 46.74 71.62 45.44 71.19 45.43 72.82 45.07 73.99 44.76 75.35 44.03 75.98 42.69 75.33 42.13 76.54 41.3 74.88 40.64 73.78 40.7 72.55 43.78 74.44 43.53 72.89 42.77 71.45 46.08 71.35 44.51 70 44.32 68.77 43.61 67.85 42.42 67.76 41.14 68.25 40.35 67.85 39.71 66.93 38.55 67.67 37.87 66.69 37.12 65.79 35.66 68.58 34.83 68.26 34.4 65.1 33.43 65.28 32.34 66.62 31.29 66.55 32.64 63.5 29.85 64.08 31.41 63.83 31.45 62.65 31.95 61.8 32.7 61.26 33.9 61.55 34.33 60.45 35.12 60.02 36.51 61.09 36.71 59.05 38.23 61 39.28 62 39.55 59.17 40.37 58.4 41.33 58.08 42.13 60.75 43.22 58.45 44.22 58.3 44.82 59.85 46.44 57.85 46.02 61.5 47.3 60.77 49.32 59.25 48.31 62.33 49.13 62.63 49.5 63.41 49.86 64.12 52.15 63.87 52.74 64.79 53.79 65.74 49.83 66.97"/><polygon class="cls-83" points="50.68 67.43 51.92 69.07 48.12 68.17 47.36 68.42 47.37 69.44 46.36 69.5 45.51 69.7 44.99 70.35 44.9 71.67 45.98 75 45.08 75.35 42.99 73.56 41.88 73.35 40.76 73 41.08 75.76 40.55 77.06 41.36 75.28 40.51 76 41.41 75.61 40.57 73.38 41.48 73.09 42.57 72.75 44.98 72.41 40.67 71.09 40.77 70.95 42.21 68.95 41.15 68.79 40.73 67.66 40.37 66.02 38.21 69.27 37.8 67.78 36.57 69.09 36.62 65.05 35.05 68.23 34.39 67.02 33.59 66.39 32.97 64.43 31.88 65.77 31.14 64.33 29.97 66.37 29.64 65.3 29.29 64.86 27.91 62.7 31.73 65.21 31.35 63.59 32.55 63.97 31.29 60.09 32.13 59.58 33.25 59.73 34.64 60.71 35.7 61.09 36.43 60.57 37.44 61.13 37.99 59.49 39.08 61.48 39.8 61.41 40.71 59.33 41.79 58.14 42.48 59.85 42.85 61.94 44.19 60.41 45.13 60.47 45.08 62.53 47.48 60.21 47.84 61.43 49.18 61.45 49.04 62.98 48.35 64.57 48.74 65.24 47.84 66.32 49.11 66.7 50.68 67.43"/><polygon class="cls-84" points="50.81 67.78 47.14 68.18 49.16 70.25 46.66 69.52 48.02 72.08 44.98 70.1 44.68 71.04 45.26 73.29 44.38 73.67 44.45 75.49 41.19 71.89 40.79 72.89 41.82 76.71 39.88 74.9 38.99 75.08 37.66 73.84 35.39 75.71 37.53 74.54 40.23 76.44 40.63 75.36 39.4 72.97 38.86 71.78 40.96 72.06 42.54 71.12 39.28 71.26 41.18 68.86 41 67.15 39 68.53 38.32 67.8 37.77 66.52 36.81 66.38 35.97 65.82 34.99 65.92 33.37 69.52 32.57 69.15 32.07 66.66 31.08 67.34 29.98 69.03 29.29 67.28 28.95 64.8 26.76 66.97 28.58 65.45 29.05 65.31 28.62 63.84 28.04 61.56 29.57 62.1 30.72 62.31 31.04 60.96 31.6 59.96 32.44 59.48 33.14 58.58 34.73 60.54 36.01 62.17 36.83 62.38 37.18 58.42 38.21 60.65 39.18 58.88 39.9 60.91 40.85 60.43 42.09 59.21 42.12 62.16 42.74 62.69 43.45 62.96 46.19 60.1 45.91 62.23 47.11 62.3 47.75 63.07 48.73 63.64 49.2 64.61 46.27 66.66 48.95 66.82 50.81 67.78"/><polygon class="cls-85" points="47.06 67.99 46.23 68.67 47.51 70.46 45.01 69.73 45.24 71.14 45.05 72.31 43.48 71.83 41.64 70.79 41.78 72.48 41.52 73.71 40.45 73.68 40.72 75.99 38.49 73.77 38.67 76.1 37.67 76.15 36.73 76.26 34.12 75.5 37.64 77.06 36.96 74.68 36.31 72.73 36.71 72.19 37.73 72.21 41.88 73.13 39.86 71.42 40.29 70.15 37.66 71.13 37.45 70.46 38.51 66.7 36.99 67.54 36.22 66.78 34.67 68.77 33.95 68.01 33.64 65.1 31.98 68.87 31.43 66.8 30.24 68.69 29.75 65.43 28.41 69.09 27.61 68.21 27.34 64.9 25.77 66.55 28.14 65.96 24.6 63.22 27.82 65.03 28.61 64.85 29.23 64.42 28.07 60.69 29.63 61.64 30.9 62.32 31.29 60.96 31.75 59.52 33.27 61.37 34.2 61.6 34.72 59.75 35.73 60.6 36.59 59.21 37.47 60.45 38.65 58.16 39.41 59.68 39.92 61.46 40.75 61.62 42.41 59.91 43.56 59.89 42.87 62.94 44.3 62.41 44.48 63.56 45.63 63.7 46.34 64.35 45.21 65.95 47.75 65.89 47.98 66.93 47.06 67.99"/><polygon class="cls-86" points="45.11 68.06 43.73 68.41 42.92 68.59 43.61 70.05 43.72 71.39 41.48 70.2 41.75 71.87 41.08 72.46 39.85 72.22 38.58 71.82 37.86 72.27 37.96 74.2 37.68 75.59 36.4 75.05 36.71 78 34.69 75.43 33.69 75.98 35.27 76.2 34.66 74.01 37.59 76.07 36.85 73.96 39.51 74.81 38.5 72.86 38.32 71.77 38.87 70.63 39.6 68.56 36.75 69.88 36.95 67.89 35.04 69.74 34.42 69.12 33.9 67.97 32.51 69.86 31.91 68.85 31.68 65.59 30.75 65.58 29.65 66.82 28.8 66.47 28.14 64.56 26.77 68.93 26.25 65.22 25.63 65.11 24.83 65.8 22.71 65.11 24.41 64.53 25.59 64.49 26.78 64.74 26.64 63.04 27.41 62.62 27.51 60.84 28 59.6 30.6 63.61 29.98 59.33 31.94 62.65 32.34 60.89 33.41 62.01 33.81 57.98 34.91 57.93 35.92 58.53 36.95 58.48 37.6 60.46 38.84 59.32 40.07 58.81 40.55 60.41 40.31 62.93 41.88 61.94 41.25 64.25 43.87 62.52 45.21 62.71 43.11 65.43 45.83 64.92 45.74 66.07 46.91 66.9 45.11 68.06"/><path class="cls-87" d="M60.11,47.54c0,16.34-11.65,29.59-26,29.59s-26-13.25-26-29.59S19.87,43.4,34.24,43.4,60.11,31.2,60.11,47.54Z"/><path class="cls-88" d="M56.82,49.82c0,4.36-7.48,8.53-11.42,8.53s-2.86-4.17-2.86-8.53,3.2-7.89,7.14-7.89S56.82,45.46,56.82,49.82Z"/><ellipse class="cls-89" cx="52.8" cy="46.24" rx="1.92" ry="2.2"/><path d="M55.67,48.86C55.67,52.52,49,56,45.41,56s-2.57-3.49-2.57-7.15a6.42,6.42,0,1,1,12.83,0Z"/><ellipse class="cls-89" cx="46.71" cy="45.25" rx="1.73" ry="1.85"/><ellipse class="cls-89" cx="50.8" cy="47.24" rx="0.79" ry="0.77"/><path class="cls-89" d="M54.1,48.94a7.48,7.48,0,0,1-3.53,4.49,10.3,10.3,0,0,1-2.72,1.08c-.46.12-1,.16-1.43.24s-1,0-1.44,0c.46-.13.93-.21,1.39-.33s.91-.25,1.35-.41a14.49,14.49,0,0,0,2.54-1.14,11.2,11.2,0,0,0,2.17-1.71A9.08,9.08,0,0,0,54.1,48.94Z"/><path class="cls-88" d="M11.18,49.82c0,4.36,7.48,8.53,11.43,8.53s2.85-4.17,2.85-8.53-3.19-7.89-7.14-7.89S11.18,45.46,11.18,49.82Z"/><ellipse class="cls-89" cx="15.21" cy="46.24" rx="1.92" ry="2.2"/><path d="M12.33,48.86c0,3.66,6.72,7.15,10.27,7.15s2.57-3.49,2.57-7.15a6.53,6.53,0,0,0-6.42-6.62A6.52,6.52,0,0,0,12.33,48.86Z"/><ellipse class="cls-89" cx="21.3" cy="45.25" rx="1.73" ry="1.85"/><ellipse class="cls-89" cx="17.21" cy="47.24" rx="0.79" ry="0.77"/><path class="cls-89" d="M13.9,48.94a9.61,9.61,0,0,0,1.67,2.25,11.58,11.58,0,0,0,2.18,1.71A14.39,14.39,0,0,0,20.28,54c.44.16.9.26,1.36.41s.92.2,1.39.33c-.48,0-1,0-1.45,0s-1-.12-1.43-.24a10.44,10.44,0,0,1-2.72-1.08A7.52,7.52,0,0,1,13.9,48.94Z"/><path class="cls-5" d="M41.64,70c-3.17,6.8-3.7,14-8.27,14s-5.1-7.41-8.27-14c-3.41-7.08,3.68-11.32,8.25-11.32S45,62.85,41.64,70Z"/><path class="cls-90" d="M33.18,58.07c1.37,2.32.56,3.89-2.28,5.49s-5.26,2.9-6.63.58-.18-5.51,2.66-7.11S31.81,55.75,33.18,58.07Z"/><path class="cls-91" d="M30.68,59.44c.6,1-.2,1.24-1.57,2s-2.14,1.87-2.73.87,0-2.45,1.39-3.22S30.09,58.43,30.68,59.44Z"/><path class="cls-90" d="M34.1,58.07c-1.37,2.32-.56,3.89,2.28,5.49s5.27,2.9,6.64.58.18-5.51-2.67-7.11S35.47,55.75,34.1,58.07Z"/><path class="cls-91" d="M36.6,59.44c-.59,1,.21,1.24,1.57,2s2.14,1.87,2.73.87,0-2.45-1.39-3.22S37.2,58.43,36.6,59.44Z"/><path class="cls-92" d="M52.45,27.58c1.82-1,6.18,4,8.43,9,2.36,5.24,2.37,10.39,1.83,10.57-.91.28-4.43-12.93-8.89-13.14a2.24,2.24,0,0,1-1.6-.52C50.88,32.21,51.15,28.29,52.45,27.58Z"/><path class="cls-92" d="M14.58,28.11c-1.81-1-6.18,4-8.43,9C3.79,42.36,3.78,47.52,4.32,47.69c.91.29,4.44-12.92,8.89-13.14a2.27,2.27,0,0,0,1.6-.51C16.15,32.74,15.88,28.81,14.58,28.11Z"/><path class="cls-92" d="M52.75,26.15c-2.61-3-9.43-1.79-11.85-1.18-2,.49-2,.8-4,1.21a24.27,24.27,0,0,1-7.81.17c-4.77-.6-4.85-1.82-8.42-1.9a7.3,7.3,0,0,0-5.75,1.7c-2,1.64-2,4.49-1.58,6.57a7.31,7.31,0,0,0,1.84,3.94c3.59,3.12,11.24,2.83,12.88,1.31,3.68-3.41,4.12-3.22,6.44-3.12,1.7.08,1.81,1.67,4.2,2.78,3.32,1.54,7.9,2.06,10.65.6a8.37,8.37,0,0,0,4.58-6.67C54.1,29.54,54.33,28,52.75,26.15Z"/><path class="cls-92" d="M52.23,31.66c0,3.21-2.59,5.26-6.81,5.26s-7.65-2.6-7.65-5.8,5.86-4.71,10.09-4.71S52.23,28.46,52.23,31.66Z"/><path class="cls-1" d="M14.38,32.06c0,3.76,3,6.17,7.92,6.17s8.9-3,8.9-6.81-6.82-5.54-11.73-5.54S14.38,28.3,14.38,32.06Z"/><g class="cls-93"><rect class="cls-94" x="23.83" y="25.24" width="1.3" height="13.4" transform="translate(39.06 69.46) rotate(-163.77)"/><rect class="cls-94" x="22.26" y="25.24" width="1.3" height="13.4" transform="translate(35.97 69.02) rotate(-163.77)"/><rect class="cls-94" x="20.68" y="25.24" width="1.3" height="13.4" transform="translate(32.88 68.58) rotate(-163.77)"/></g><path class="cls-92" d="M14.91,32.19c0,3.2,2.58,5.26,6.8,5.26s7.65-2.6,7.65-5.8-5.86-4.72-10.08-4.72S14.91,29,14.91,32.19Z"/><path class="cls-2" d="M15.7,32.19c0,2.88,2.3,4.73,6.06,4.73s6.81-2.34,6.81-5.22-5.22-4.24-9-4.24S15.7,29.31,15.7,32.19Z"/><g class="cls-95"><rect class="cls-94" x="22.93" y="26" width="1.3" height="13.4" transform="translate(37.09 70.69) rotate(-163.77)"/><rect class="cls-94" x="21.31" y="25.5" width="1.3" height="13.4" transform="matrix(-0.96, -0.28, 0.28, -0.96, 34.04, 69.26)"/><rect class="cls-94" x="19.73" y="24.98" width="1.3" height="13.4" transform="translate(31.09 67.79) rotate(-163.77)"/></g><g class="cls-96"><path class="cls-89" d="M27.92,32.85A4.88,4.88,0,0,1,27.43,34a5,5,0,0,1-.74,1,3.85,3.85,0,0,1-1,.76A2.07,2.07,0,0,1,24.5,36a5.85,5.85,0,0,0,1.81-1.41C26.85,34,27.34,33.43,27.92,32.85Z"/></g><g class="cls-97"><path class="cls-89" d="M20,28.16a5.66,5.66,0,0,0-2.65.68,2.44,2.44,0,0,0-.89.94,3.24,3.24,0,0,0-.36,1.32,2.29,2.29,0,0,1,.06-1.46,2.49,2.49,0,0,1,1-1.16A3.67,3.67,0,0,1,20,28.16Z"/></g><path class="cls-3" d="M52.75,31.8c0,3.76-3,6.17-7.92,6.17s-8.9-3-8.9-6.81,6.82-5.54,11.74-5.54S52.75,28,52.75,31.8Z"/><g class="cls-98"><rect class="cls-94" x="42" y="24.98" width="1.3" height="13.4" transform="translate(-7.16 13.19) rotate(-16.23)"/><rect class="cls-94" x="43.57" y="24.98" width="1.3" height="13.4" transform="translate(-7.09 13.63) rotate(-16.23)"/><rect class="cls-94" x="45.15" y="24.98" width="1.3" height="13.4" transform="translate(-7.03 14.07) rotate(-16.23)"/></g><path class="cls-92" d="M52.23,31.93c0,3.2-2.59,5.25-6.81,5.25s-7.65-2.59-7.65-5.8,5.86-4.71,10.09-4.71S52.23,28.72,52.23,31.93Z"/><path class="cls-2" d="M51.44,31.93c0,2.88-2.3,4.73-6.07,4.73s-6.81-2.34-6.81-5.22,5.22-4.24,9-4.24S51.44,29,51.44,31.93Z"/><g class="cls-99"><rect class="cls-94" x="43.18" y="25.74" width="1.3" height="13.4" transform="translate(-7.32 13.55) rotate(-16.23)"/><rect class="cls-94" x="44.81" y="25.24" width="1.3" height="13.4" transform="translate(-7.12 13.98) rotate(-16.23)"/><rect class="cls-94" x="46.39" y="24.71" width="1.3" height="13.4" transform="translate(-6.91 14.4) rotate(-16.23)"/></g><g class="cls-96"><path class="cls-89" d="M39.22,32.58c.57.59,1.06,1.19,1.6,1.74a6,6,0,0,0,1.81,1.42,2.14,2.14,0,0,1-1.2-.29,3.9,3.9,0,0,1-1-.76,5.31,5.31,0,0,1-.73-1A4.21,4.21,0,0,1,39.22,32.58Z"/></g><ellipse class="cls-100" cx="49.22" cy="56.77" rx="6.11" ry="1.45" transform="translate(-16.86 21.02) rotate(-20.66)"/><ellipse class="cls-100" cx="18.38" cy="56.93" rx="1.19" ry="6.34" transform="translate(-41.38 54.05) rotate(-69.34)"/><path d="M19.59,39.56a19.81,19.81,0,0,0-5.83,1.24,13.7,13.7,0,0,0-2.53,1.35,27.74,27.74,0,0,0-2.44,1.91,6.94,6.94,0,0,1,4.28-4.92,7.64,7.64,0,0,1,3.36-.57A6.5,6.5,0,0,1,19.59,39.56Z"/><path d="M48.39,39.56a6.5,6.5,0,0,1,3.16-1,7.58,7.58,0,0,1,3.35.57,6.93,6.93,0,0,1,4.29,4.92,27.74,27.74,0,0,0-2.44-1.91,14,14,0,0,0-2.53-1.35A19.81,19.81,0,0,0,48.39,39.56Z"/><polyline class="cls-101" points="60.47 65.36 60.42 64.29 61.24 64.03 61.3 63.07 62.2 62.87 61.91 61.6 62.86 61.45 63.9 61.36 64.37 60.77 64.12 59.57 64.44 58.86 65.93 59.16 65.99 58.23 66.73 57.88 66.97 57.09 67.39 56.47 68.47 56.4 68.14 55.15 68.63 54.57 68.72 53.68 70.42 54.11 69.95 52.75 71.26 52.85 70.79 51.49 72.47 51.88 72.76 51.15 72.48 49.97 73.01 49.43 72.93 48.41 75.06 49.12 75.29 48.34 74.39 46.7 75.73 46.77 76.26 46.23 77.29 46.06 76.14 44.26 76.98 43.94 78.56 44.16 78.82 43.41 78.34 42.14 78.37 41.23 79.54 41.13 80.51 40.88 79.75 39.44 81.28 39.56 82.16 39.23 81.76 38.06 82.32 37.52 83.11 37.12 83.46 36.44 83.98 35.87 84.26 35.14 83.17 33.62 83.63 33.03 84.92 32.89 84.97 32.06 84.61 31.02 85.61 30.69 86.9 30.48 86.01 29.22 87.33 28.98 87.77 28.34 87.5 27.41 86.86 26.38 87.64 25.87 88.18 25.25 87.92 24.42 87.78 23.66 87.83 22.95 87.67 22.14 88.84 21.57 89.84 21.09 90.2 20.58 89.29 18.97 90.44 19.6 91.5 19.27 91.44 20.43 92.11 20.84 93.07 21.11 92.38 22.39 92.63 23.08 92.99 23.72 94.85 23.64 94.41 24.68 95.01 25.22 95.29 25.92 95.76 26.54 96.02 27.25 94.87 28.52 96.21 28.8 96.51 29.49 97.42 29.95 96.1 31.24 96.16 32 96.7 32.59 96.68 33.38 96.76 34.13 97.07 34.8 97.7 35.4 99.34 35.83 99.41 36.65 98.38 37.59 98.14 38.38 97.83 39.15 99.05 39.83 99.54 40.57 97.93 41.4 98.42 42.13 98.33 42.88 99.32 43.62 99.12 44.38 98.8 45.14 97.87 45.88 99.85 46.67 99.77 47.43 98.68 48.16 98.88 48.91 98.5 49.65 97.86 50.36 99.48 51.23 98.85 51.94 99.47 52.77 97.66 53.34 99.08 54.27 98.51 54.96 98.18 55.68 97.25 56.3 97.77 57.15 97.04 57.77 97.86 58.71 97.34 59.38 97.28 60.14 98.08 61.15 95.95 61.33 96.37 62.24 95.72 62.81 97.13 64.12 96.87 64.86 96.32 65.48 95.42 65.92 94.8 66.46 94.55 67.19 93.87 67.66 94.03 68.65 92.83 68.73 92.41 69.32 92.65 70.49 92.54 71.45 91.49 71.5 90.37 71.34 90.29 72.44 89.74 72.98 88.67 72.66 88.68 74.27 87.83 74.29 87.26 74.95 86.36 74.74 85.44 74.33 84.73 74.53 83.91 74.14 83.29 74.77 82.52 74.48 81.9 76.01 81.11 75.42 80.37 74.81 79.57 75.91 78.92 74.62 78.18 74.67 77.5 74.29 76.7 74.61 76.09 73.98 75.22 74.39 74.39 74.53 73.53 74.74 72.77 74.59 72.23 73.83 71.37 73.92 71.06 72.75 70.04 73.14 69.18 73.17 69.22 71.44 68.31 71.55 67.34 71.72 67.42 70.13 66.43 70.32 65.9 69.77 65.32 69.31 64.55 69.1 63.68 69.03 63.09 68.56 62.67 67.87 61.8 67.76 61.44 67.01 61.08 66.29 59.62 66.77"/></svg>