<svg id="Layer_1" data-name="Layer 1" xmlns="http://www.w3.org/2000/svg" xmlns:xlink="http://www.w3.org/1999/xlink" viewBox="0 0 100 150"><defs><style>.cls-1{fill:url(#linear-gradient);}.cls-2{fill:#277052;}.cls-3{fill:url(#linear-gradient-2);}.cls-4{fill:url(#linear-gradient-3);}.cls-5{fill:#87783d;}.cls-6{fill:url(#linear-gradient-4);}.cls-7{fill:url(#linear-gradient-5);}.cls-8{fill:url(#linear-gradient-6);}.cls-9{fill:url(#linear-gradient-7);}.cls-10{fill:url(#linear-gradient-8);}.cls-11{fill:url(#linear-gradient-9);}.cls-12{fill:url(#linear-gradient-10);}.cls-13{fill:url(#linear-gradient-11);}.cls-14{fill:url(#linear-gradient-12);}.cls-15{fill:url(#linear-gradient-13);}.cls-16{fill:url(#linear-gradient-14);}.cls-17{fill:url(#linear-gradient-15);}.cls-18{fill:url(#linear-gradient-16);}.cls-19{fill:url(#linear-gradient-17);}.cls-20{fill:url(#linear-gradient-18);}.cls-21{fill:url(#linear-gradient-19);}.cls-22{fill:url(#linear-gradient-20);}.cls-23{fill:url(#linear-gradient-21);}.cls-24{fill:url(#linear-gradient-22);}.cls-25{fill:url(#linear-gradient-23);}.cls-26{fill:url(#linear-gradient-24);}.cls-27{fill:url(#linear-gradient-25);}.cls-28{fill:url(#linear-gradient-26);}.cls-29{fill:url(#linear-gradient-27);}.cls-30{fill:url(#linear-gradient-28);}.cls-31{fill:url(#linear-gradient-29);}.cls-32{fill:url(#linear-gradient-30);}.cls-33{fill:url(#linear-gradient-31);}.cls-34{fill:url(#linear-gradient-32);}.cls-35{fill:url(#linear-gradient-33);}.cls-36{fill:url(#linear-gradient-34);}.cls-37{fill:url(#linear-gradient-35);}.cls-38{fill:url(#linear-gradient-36);}.cls-39{fill:url(#linear-gradient-37);}.cls-40{fill:url(#linear-gradient-38);}.cls-41{fill:url(#linear-gradient-39);}.cls-42{fill:url(#linear-gradient-40);}.cls-43{fill:url(#linear-gradient-41);}.cls-44{fill:url(#linear-gradient-42);}.cls-45{fill:url(#linear-gradient-43);}.cls-46{fill:url(#linear-gradient-44);}.cls-47{fill:url(#linear-gradient-45);}.cls-48{fill:url(#linear-gradient-46);}.cls-49{fill:url(#linear-gradient-47);}.cls-50{fill:url(#linear-gradient-48);}.cls-51{fill:url(#linear-gradient-49);}.cls-52{fill:url(#linear-gradient-50);}.cls-53{fill:url(#linear-gradient-51);}.cls-54{fill:url(#linear-gradient-52);}.cls-55{fill:url(#linear-gradient-53);}.cls-56{fill:url(#linear-gradient-54);}.cls-57{fill:url(#linear-gradient-55);}.cls-58{fill:url(#linear-gradient-56);}.cls-59{fill:url(#linear-gradient-57);}.cls-60{fill:url(#linear-gradient-58);}.cls-61{fill:url(#linear-gradient-59);}.cls-62{fill:url(#linear-gradient-60);}.cls-63{fill:url(#linear-gradient-61);}.cls-64{fill:url(#linear-gradient-62);}.cls-65{fill:url(#linear-gradient-63);}.cls-66{fill:url(#linear-gradient-64);}.cls-67{fill:url(#linear-gradient-65);}.cls-68{fill:url(#linear-gradient-66);}.cls-69{fill:url(#linear-gradient-67);}.cls-70{fill:url(#linear-gradient-68);}.cls-71{fill:url(#linear-gradient-69);}.cls-72{fill:url(#linear-gradient-70);}.cls-73{fill:url(#linear-gradient-71);}.cls-74{fill:url(#linear-gradient-72);}.cls-75{fill:url(#linear-gradient-73);}.cls-76{fill:url(#linear-gradient-74);}.cls-77{fill:url(#linear-gradient-75);}.cls-78{fill:url(#linear-gradient-76);}.cls-79{fill:url(#linear-gradient-77);}.cls-80{fill:#d3bc92;}.cls-81{fill:#fcfcfc;}.cls-82,.cls-87{fill:#fff;}.cls-83{fill:#826d5c;}.cls-84{fill:#5f4e44;}.cls-85{fill:#351f07;}.cls-86{clip-path:url(#clip-path);}.cls-87{opacity:0.42;}.cls-88{clip-path:url(#clip-path-2);}.cls-89{opacity:0.65;}.cls-90{opacity:0.68;}.cls-91{clip-path:url(#clip-path-3);}.cls-92{clip-path:url(#clip-path-4);}.cls-93{fill:#b9aba0;}.cls-94{fill:url(#linear-gradient-80);}</style><linearGradient id="linear-gradient" x1="15.57" y1="32.72" x2="30.71" y2="32.72" gradientUnits="userSpaceOnUse"><stop offset="0.21" stop-color="#947441"/><stop offset="0.74" stop-color="#a58638"/></linearGradient><linearGradient id="linear-gradient-2" x1="121.9" y1="32.48" x2="137.04" y2="32.48" gradientTransform="matrix(-1, 0, 0, 1, 172, 0)" xlink:href="#linear-gradient"/><linearGradient id="linear-gradient-3" x1="37.67" y1="49.72" x2="106.88" y2="49.72" gradientTransform="translate(-34.15 62.47) rotate(-22.78)" gradientUnits="userSpaceOnUse"><stop offset="0.21" stop-color="#8a9841"/><stop offset="0.74" stop-color="#b6b908"/></linearGradient><linearGradient id="linear-gradient-4" x1="50.1" y1="93.51" x2="82.5" y2="93.51" gradientTransform="matrix(1, 0, 0, 1, 0, 0)" xlink:href="#linear-gradient-3"/><linearGradient id="linear-gradient-5" x1="90.78" y1="51.83" x2="117.15" y2="51.83" gradientTransform="matrix(0.87, 0, 0, 0.8, -56.83, 23.81)" xlink:href="#linear-gradient-3"/><linearGradient id="linear-gradient-6" x1="89.39" y1="52.37" x2="114.03" y2="52.37" gradientTransform="matrix(0.87, 0, 0, 0.8, -56.83, 23.81)" xlink:href="#linear-gradient-3"/><linearGradient id="linear-gradient-7" x1="88.33" y1="51.61" x2="113.3" y2="51.61" gradientTransform="matrix(0.87, 0, 0, 0.8, -56.83, 23.81)" xlink:href="#linear-gradient-3"/><linearGradient id="linear-gradient-8" x1="86.22" y1="51.13" x2="110.72" y2="51.13" gradientTransform="matrix(0.87, 0, 0, 0.8, -56.83, 23.81)" xlink:href="#linear-gradient-3"/><linearGradient id="linear-gradient-9" x1="84.29" y1="50.44" x2="108.46" y2="50.44" gradientTransform="matrix(0.87, 0, 0, 0.8, -56.83, 23.81)" xlink:href="#linear-gradient-3"/><linearGradient id="linear-gradient-10" x1="84.49" y1="50.13" x2="107.41" y2="50.13" gradientTransform="matrix(0.87, 0, 0, 0.8, -56.83, 23.81)" xlink:href="#linear-gradient-3"/><linearGradient id="linear-gradient-11" x1="80.86" y1="49.64" x2="106.28" y2="49.64" gradientTransform="matrix(0.87, 0, 0, 0.8, -56.83, 23.81)" xlink:href="#linear-gradient-3"/><linearGradient id="linear-gradient-12" x1="79.54" y1="47.89" x2="104.2" y2="47.89" gradientTransform="matrix(0.87, 0, 0, 0.8, -56.83, 23.81)" xlink:href="#linear-gradient-3"/><linearGradient id="linear-gradient-13" x1="78.86" y1="46.83" x2="103.34" y2="46.83" gradientTransform="matrix(0.87, 0, 0, 0.8, -56.83, 23.81)" xlink:href="#linear-gradient-3"/><linearGradient id="linear-gradient-14" x1="77.2" y1="44.88" x2="101.96" y2="44.88" gradientTransform="matrix(0.87, 0, 0, 0.8, -56.83, 23.81)" xlink:href="#linear-gradient-3"/><linearGradient id="linear-gradient-15" x1="75.82" y1="43.99" x2="100.67" y2="43.99" gradientTransform="matrix(0.87, 0, 0, 0.8, -56.83, 23.81)" xlink:href="#linear-gradient-3"/><linearGradient id="linear-gradient-16" x1="73.9" y1="42.64" x2="98.38" y2="42.64" gradientTransform="matrix(0.87, 0, 0, 0.8, -56.83, 23.81)" xlink:href="#linear-gradient-3"/><linearGradient id="linear-gradient-17" x1="73.55" y1="41.38" x2="98.39" y2="41.38" gradientTransform="matrix(0.87, 0, 0, 0.8, -56.83, 23.81)" xlink:href="#linear-gradient-3"/><linearGradient id="linear-gradient-18" x1="72.3" y1="40.01" x2="97.88" y2="40.01" gradientTransform="matrix(0.87, 0, 0, 0.8, -56.83, 23.81)" xlink:href="#linear-gradient-3"/><linearGradient id="linear-gradient-19" x1="73.43" y1="38.38" x2="95.65" y2="38.38" gradientTransform="matrix(0.87, 0, 0, 0.8, -56.83, 23.81)" xlink:href="#linear-gradient-3"/><linearGradient id="linear-gradient-20" x1="71.03" y1="36.69" x2="96.22" y2="36.69" gradientTransform="matrix(0.87, 0, 0, 0.8, -56.83, 23.81)" xlink:href="#linear-gradient-3"/><linearGradient id="linear-gradient-21" x1="71.32" y1="34.78" x2="92.68" y2="34.78" gradientTransform="matrix(0.87, 0, 0, 0.8, -56.83, 23.81)" xlink:href="#linear-gradient-3"/><linearGradient id="linear-gradient-22" x1="70.4" y1="33.48" x2="93.66" y2="33.48" gradientTransform="matrix(0.87, 0, 0, 0.8, -56.83, 23.81)" xlink:href="#linear-gradient-3"/><linearGradient id="linear-gradient-23" x1="70.62" y1="32.06" x2="93.99" y2="32.06" gradientTransform="matrix(0.87, 0, 0, 0.8, -56.83, 23.81)" xlink:href="#linear-gradient-3"/><linearGradient id="linear-gradient-24" x1="69.18" y1="30.18" x2="93.74" y2="30.18" gradientTransform="matrix(0.87, 0, 0, 0.8, -56.83, 23.81)" xlink:href="#linear-gradient-3"/><linearGradient id="linear-gradient-25" x1="70.31" y1="28.14" x2="94.46" y2="28.14" gradientTransform="matrix(0.87, 0, 0, 0.8, -56.83, 23.81)" xlink:href="#linear-gradient-3"/><linearGradient id="linear-gradient-26" x1="69.27" y1="26.51" x2="94.37" y2="26.51" gradientTransform="matrix(0.87, 0, 0, 0.8, -56.83, 23.81)" xlink:href="#linear-gradient-3"/><linearGradient id="linear-gradient-27" x1="70.84" y1="25.37" x2="94.54" y2="25.37" gradientTransform="matrix(0.87, 0, 0, 0.8, -56.83, 23.81)" xlink:href="#linear-gradient-3"/><linearGradient id="linear-gradient-28" x1="71.04" y1="23.9" x2="95.33" y2="23.9" gradientTransform="matrix(0.87, 0, 0, 0.8, -56.83, 23.81)" xlink:href="#linear-gradient-3"/><linearGradient id="linear-gradient-29" x1="72.38" y1="22.4" x2="95.44" y2="22.4" gradientTransform="matrix(0.87, 0, 0, 0.8, -56.83, 23.81)" xlink:href="#linear-gradient-3"/><linearGradient id="linear-gradient-30" x1="73.88" y1="21.45" x2="96.99" y2="21.45" gradientTransform="matrix(0.87, 0, 0, 0.8, -56.83, 23.81)" xlink:href="#linear-gradient-3"/><linearGradient id="linear-gradient-31" x1="74.58" y1="21.11" x2="98.24" y2="21.11" gradientTransform="matrix(0.87, 0, 0, 0.8, -56.83, 23.81)" xlink:href="#linear-gradient-3"/><linearGradient id="linear-gradient-32" x1="75.92" y1="19.79" x2="98.83" y2="19.79" gradientTransform="matrix(0.87, 0, 0, 0.8, -56.83, 23.81)" xlink:href="#linear-gradient-3"/><linearGradient id="linear-gradient-33" x1="75.86" y1="18.33" x2="99.71" y2="18.33" gradientTransform="matrix(0.87, 0, 0, 0.8, -56.83, 23.81)" xlink:href="#linear-gradient-3"/><linearGradient id="linear-gradient-34" x1="77.47" y1="18.27" x2="102.71" y2="18.27" gradientTransform="matrix(0.87, 0, 0, 0.8, -56.83, 23.81)" xlink:href="#linear-gradient-3"/><linearGradient id="linear-gradient-35" x1="80.27" y1="17.08" x2="104.17" y2="17.08" gradientTransform="matrix(0.87, 0, 0, 0.8, -56.83, 23.81)" xlink:href="#linear-gradient-3"/><linearGradient id="linear-gradient-36" x1="81.05" y1="17.38" x2="105.23" y2="17.38" gradientTransform="matrix(0.87, 0, 0, 0.8, -56.83, 23.81)" xlink:href="#linear-gradient-3"/><linearGradient id="linear-gradient-37" x1="82.69" y1="15.55" x2="107.23" y2="15.55" gradientTransform="matrix(0.87, 0, 0, 0.8, -56.83, 23.81)" xlink:href="#linear-gradient-3"/><linearGradient id="linear-gradient-38" x1="85.15" y1="16.62" x2="109.64" y2="16.62" gradientTransform="matrix(0.87, 0, 0, 0.8, -56.83, 23.81)" xlink:href="#linear-gradient-3"/><linearGradient id="linear-gradient-39" x1="86.13" y1="16.38" x2="111.57" y2="16.38" gradientTransform="matrix(0.87, 0, 0, 0.8, -56.83, 23.81)" xlink:href="#linear-gradient-3"/><linearGradient id="linear-gradient-40" x1="89.59" y1="15.94" x2="113.32" y2="15.94" gradientTransform="matrix(0.87, 0, 0, 0.8, -56.83, 23.81)" xlink:href="#linear-gradient-3"/><linearGradient id="linear-gradient-41" x1="92.25" y1="15.84" x2="116.46" y2="15.84" gradientTransform="matrix(0.87, 0, 0, 0.8, -56.83, 23.81)" xlink:href="#linear-gradient-3"/><linearGradient id="linear-gradient-42" x1="93.31" y1="15.12" x2="117.36" y2="15.12" gradientTransform="matrix(0.87, 0, 0, 0.8, -56.83, 23.81)" xlink:href="#linear-gradient-3"/><linearGradient id="linear-gradient-43" x1="94.7" y1="16.07" x2="120.29" y2="16.07" gradientTransform="matrix(0.87, 0, 0, 0.8, -56.83, 23.81)" xlink:href="#linear-gradient-3"/><linearGradient id="linear-gradient-44" x1="97.84" y1="16.46" x2="122.51" y2="16.46" gradientTransform="matrix(0.87, 0, 0, 0.8, -56.83, 23.81)" xlink:href="#linear-gradient-3"/><linearGradient id="linear-gradient-45" x1="100.19" y1="16.29" x2="124.94" y2="16.29" gradientTransform="matrix(0.87, 0, 0, 0.8, -56.83, 23.81)" xlink:href="#linear-gradient-3"/><linearGradient id="linear-gradient-46" x1="102.86" y1="16.28" x2="125.76" y2="16.28" gradientTransform="matrix(0.87, 0, 0, 0.8, -56.83, 23.81)" xlink:href="#linear-gradient-3"/><linearGradient id="linear-gradient-47" x1="103.05" y1="17.16" x2="127.3" y2="17.16" gradientTransform="matrix(0.87, 0, 0, 0.8, -56.83, 23.81)" xlink:href="#linear-gradient-3"/><linearGradient id="linear-gradient-48" x1="105.15" y1="18.03" x2="130.65" y2="18.03" gradientTransform="matrix(0.87, 0, 0, 0.8, -56.83, 23.81)" xlink:href="#linear-gradient-3"/><linearGradient id="linear-gradient-49" x1="105.64" y1="17.88" x2="131.31" y2="17.88" gradientTransform="matrix(0.87, 0, 0, 0.8, -56.83, 23.81)" xlink:href="#linear-gradient-3"/><linearGradient id="linear-gradient-50" x1="108.01" y1="19.31" x2="133.2" y2="19.31" gradientTransform="matrix(0.87, 0, 0, 0.8, -56.83, 23.81)" xlink:href="#linear-gradient-3"/><linearGradient id="linear-gradient-51" x1="109.8" y1="20.34" x2="133.77" y2="20.34" gradientTransform="matrix(0.87, 0, 0, 0.8, -56.83, 23.81)" xlink:href="#linear-gradient-3"/><linearGradient id="linear-gradient-52" x1="111.11" y1="20.67" x2="136.05" y2="20.67" gradientTransform="matrix(0.87, 0, 0, 0.8, -56.83, 23.81)" xlink:href="#linear-gradient-3"/><linearGradient id="linear-gradient-53" x1="111.04" y1="21.73" x2="137.04" y2="21.73" gradientTransform="matrix(0.87, 0, 0, 0.8, -56.83, 23.81)" xlink:href="#linear-gradient-3"/><linearGradient id="linear-gradient-54" x1="112.07" y1="23.58" x2="137.88" y2="23.58" gradientTransform="matrix(0.87, 0, 0, 0.8, -56.83, 23.81)" xlink:href="#linear-gradient-3"/><linearGradient id="linear-gradient-55" x1="114.6" y1="25.29" x2="138.29" y2="25.29" gradientTransform="matrix(0.87, 0, 0, 0.8, -56.83, 23.81)" xlink:href="#linear-gradient-3"/><linearGradient id="linear-gradient-56" x1="113.47" y1="25.64" x2="139" y2="25.64" gradientTransform="matrix(0.87, 0, 0, 0.8, -56.83, 23.81)" xlink:href="#linear-gradient-3"/><linearGradient id="linear-gradient-57" x1="116.12" y1="27.26" x2="139.3" y2="27.26" gradientTransform="matrix(0.87, 0, 0, 0.8, -56.83, 23.81)" xlink:href="#linear-gradient-3"/><linearGradient id="linear-gradient-58" x1="113.82" y1="29.34" x2="138.58" y2="29.34" gradientTransform="matrix(0.87, 0, 0, 0.8, -56.83, 23.81)" xlink:href="#linear-gradient-3"/><linearGradient id="linear-gradient-59" x1="114.1" y1="30.93" x2="138.99" y2="30.93" gradientTransform="matrix(0.87, 0, 0, 0.8, -56.83, 23.81)" xlink:href="#linear-gradient-3"/><linearGradient id="linear-gradient-60" x1="114.71" y1="32.76" x2="138.91" y2="32.76" gradientTransform="matrix(0.87, 0, 0, 0.8, -56.83, 23.81)" xlink:href="#linear-gradient-3"/><linearGradient id="linear-gradient-61" x1="114.64" y1="34.47" x2="136.79" y2="34.47" gradientTransform="matrix(0.87, 0, 0, 0.8, -56.83, 23.81)" xlink:href="#linear-gradient-3"/><linearGradient id="linear-gradient-62" x1="113.14" y1="36.6" x2="138.17" y2="36.6" gradientTransform="matrix(0.87, 0, 0, 0.8, -56.83, 23.81)" xlink:href="#linear-gradient-3"/><linearGradient id="linear-gradient-63" x1="113.11" y1="38.36" x2="136.16" y2="38.36" gradientTransform="matrix(0.87, 0, 0, 0.8, -56.83, 23.81)" xlink:href="#linear-gradient-3"/><linearGradient id="linear-gradient-64" x1="111.85" y1="39.26" x2="136.28" y2="39.26" gradientTransform="matrix(0.87, 0, 0, 0.8, -56.83, 23.81)" xlink:href="#linear-gradient-3"/><linearGradient id="linear-gradient-65" x1="112.38" y1="40.9" x2="135.11" y2="40.9" gradientTransform="matrix(0.87, 0, 0, 0.8, -56.83, 23.81)" xlink:href="#linear-gradient-3"/><linearGradient id="linear-gradient-66" x1="109.22" y1="42.32" x2="134.27" y2="42.32" gradientTransform="matrix(0.87, 0, 0, 0.8, -56.83, 23.81)" xlink:href="#linear-gradient-3"/><linearGradient id="linear-gradient-67" x1="109.93" y1="43.43" x2="132.92" y2="43.43" gradientTransform="matrix(0.87, 0, 0, 0.8, -56.83, 23.81)" xlink:href="#linear-gradient-3"/><linearGradient id="linear-gradient-68" x1="108.77" y1="43.76" x2="131.76" y2="43.76" gradientTransform="matrix(0.87, 0, 0, 0.8, -56.83, 23.81)" xlink:href="#linear-gradient-3"/><linearGradient id="linear-gradient-69" x1="105.39" y1="45.87" x2="129.52" y2="45.87" gradientTransform="matrix(0.87, 0, 0, 0.8, -56.83, 23.81)" xlink:href="#linear-gradient-3"/><linearGradient id="linear-gradient-70" x1="105.95" y1="47.77" x2="128.27" y2="47.77" gradientTransform="matrix(0.87, 0, 0, 0.8, -56.83, 23.81)" xlink:href="#linear-gradient-3"/><linearGradient id="linear-gradient-71" x1="102.66" y1="49.35" x2="127.58" y2="49.35" gradientTransform="matrix(0.87, 0, 0, 0.8, -56.83, 23.81)" xlink:href="#linear-gradient-3"/><linearGradient id="linear-gradient-72" x1="101.2" y1="49.46" x2="126.69" y2="49.46" gradientTransform="matrix(0.87, 0, 0, 0.8, -56.83, 23.81)" xlink:href="#linear-gradient-3"/><linearGradient id="linear-gradient-73" x1="100.18" y1="50.22" x2="125.03" y2="50.22" gradientTransform="matrix(0.87, 0, 0, 0.8, -56.83, 23.81)" xlink:href="#linear-gradient-3"/><linearGradient id="linear-gradient-74" x1="98.03" y1="50.77" x2="122.95" y2="50.77" gradientTransform="matrix(0.87, 0, 0, 0.8, -56.83, 23.81)" xlink:href="#linear-gradient-3"/><linearGradient id="linear-gradient-75" x1="96.67" y1="50.81" x2="121.65" y2="50.81" gradientTransform="matrix(0.87, 0, 0, 0.8, -56.83, 23.81)" xlink:href="#linear-gradient-3"/><linearGradient id="linear-gradient-76" x1="94.28" y1="50.9" x2="118.56" y2="50.9" gradientTransform="matrix(0.87, 0, 0, 0.8, -56.83, 23.81)" xlink:href="#linear-gradient-3"/><linearGradient id="linear-gradient-77" x1="92.15" y1="51.32" x2="117.28" y2="51.32" gradientTransform="matrix(0.87, 0, 0, 0.8, -56.83, 23.81)" xlink:href="#linear-gradient-3"/><clipPath id="clip-path"><path class="cls-1" d="M15.57,32.72c0,3.39,2.7,5.56,7.13,5.56s8-2.75,8-6.14-6.14-5-10.56-5S15.57,29.33,15.57,32.72Z"/></clipPath><clipPath id="clip-path-2"><path class="cls-2" d="M16.75,32.84c0,2.59,2.07,4.26,5.46,4.26s6.13-2.11,6.13-4.7-4.7-3.82-8.08-3.82S16.75,30.24,16.75,32.84Z"/></clipPath><clipPath id="clip-path-3"><path class="cls-3" d="M50.1,32.48C50.1,35.87,47.4,38,43,38s-8-2.74-8-6.13,6.14-5,10.56-5S50.1,29.1,50.1,32.48Z"/></clipPath><clipPath id="clip-path-4"><path class="cls-2" d="M48.92,32.6c0,2.6-2.07,4.26-5.46,4.26s-6.13-2.1-6.13-4.7,4.7-3.82,8.08-3.82S48.92,30,48.92,32.6Z"/></clipPath><linearGradient id="linear-gradient-80" x1="56.32" y1="74.87" x2="96.1" y2="74.87" gradientTransform="translate(17.73 -39.29) rotate(11.89)" gradientUnits="userSpaceOnUse"><stop offset="0.07" stop-color="#b6b908"/><stop offset="1" stop-color="#8a9841"/></linearGradient></defs><title>happyBWave2</title><polygon class="cls-4" points="79.49 59.13 79.38 59.96 80.02 60.49 80.36 61.14 79.68 62.13 81.13 62.42 81.34 63.12 82.13 63.66 80.43 64.86 82.06 65.2 80.93 66.2 82.55 66.6 80.81 67.67 81.22 68.32 82.49 68.84 82.5 69.58 83.44 70.19 80.94 71.22 81.38 71.88 83.53 72.41 82.24 73.24 82.17 73.96 81.32 74.72 83.79 75.35 83.21 76.1 81.49 76.84 81.78 77.55 83.14 78.29 83.74 79.05 82.6 79.73 81.76 80.4 83.46 81.25 81.77 81.83 81.04 82.47 82.15 83.32 81.84 84 81.2 84.64 81.17 85.35 80.88 86.03 80.92 86.76 82.83 87.87 82.56 88.57 81.13 89 81.39 89.81 82.16 90.77 81.09 91.24 79.65 91.57 81 92.74 79.49 93.01 79.09 93.63 79.53 94.55 80.37 95.66 79.44 96.08 78.77 96.59 79 97.49 79.02 98.31 78.75 99.01 78.7 99.82 77.23 99.87 75.98 99.98 75.45 100.48 76.86 102.21 75.42 102.14 75.82 103.3 74.53 103.26 74.37 104.04 74.54 105.11 72.9 104.68 72.33 105.1 71.87 105.64 72.85 107.63 71.6 107.39 71.32 108.18 70.74 108.63 70.31 109.28 69.69 109.7 68.01 108.56 68.19 110.12 67.59 110.54 67.35 111.64 65.75 110.14 65.03 110.22 64.55 110.85 63.78 110.78 63.07 110.81 62.45 111.13 61.95 111.86 61.69 113.82 60.93 113.89 59.95 112.64 59.19 112.36 58.45 112.01 57.87 113.5 57.17 114.09 56.38 112.1 55.69 112.68 54.99 112.52 54.21 113.68 53.51 113.36 52.83 112.91 52.27 111.68 51.2 113.99 50.48 113.78 50.02 112.36 49.25 112.49 48.66 111.91 48.16 111.02 46.9 112.8 46.41 111.92 45.44 112.5 45.48 110.24 44.15 111.73 43.68 110.92 43.12 110.39 42.87 109.19 41.89 109.62 41.56 108.66 40.38 109.42 39.94 108.7 39.24 108.49 37.99 109.23 38.58 106.76 37.55 107.1 37.23 106.27 35.45 107.71 34.82 107.33 34.39 106.65 34.24 105.59 33.88 104.85 33.22 104.54 32.91 103.76 31.83 103.96 32 102.61 31.44 102.17 30.14 102.59 29.13 102.63 29.16 101.5 29.36 100.24 28.14 100.48 27.51 100.08 27.73 98.85 25.97 99.55 25.77 98.73 24.93 98.51 24.91 97.54 25.05 96.46 24.58 95.92 24.65 94.94 23.71 94.78 23.64 93.92 21.76 94.44 21.95 93.4 22.13 92.39 20.58 92.58 21.43 91.14 20.9 90.64 20.82 89.86 19.96 89.53 20.12 88.63 19.11 88.37 18.38 87.94 17.54 87.54 17.1 86.93 17.38 86 16.62 85.53 17.42 84.42 16.27 84.08 15.56 83.55 17.14 82.27 16.32 81.78 15.38 81.28 16.88 80.17 15.92 79.67 16 78.93 15.97 78.22 15.56 77.56 14.93 76.9 14.93 76.17 15.26 75.43 14.7 74.7 15.16 73.99 15.6 73.3 14.05 72.39 14.25 71.64 16.02 71.22 16.02 70.5 15.43 69.6 15.57 68.87 17.58 68.81 16.15 67.51 17.06 67.11 16.97 66.27 17.13 65.53 17.46 64.88 18.24 64.49 18.27 63.65 18.65 63.02 19.75 62.92 19.38 61.74 20.82 61.97 21.78 61.88 21.14 60.37 21.38 59.59 21.79 58.97 23.31 59.5 22.95 58.06 23.38 57.45 24.42 57.55 24.16 56.08 25.93 57.15 26.1 56.19 25.93 54.73 27.5 55.69 28 55.15 28.67 54.88 29.31 54.55 29.31 53.19 29.87 52.71 30.28 51.96 30.94 51.64 31.59 51.29 33.38 53.09 32.84 50.52 34.09 51.37 34.57 50.7 35.89 51.78 35.51 49.28 37.07 50.95 37.66 50.51 37.95 49.38 39.19 50.45 39.37 49.02 39.84 48.24 40.28 47.38 41.02 47.24 42.34 48.72 42.79 47.86 43.04 46.36 43.79 46.29 44.41 45.83 45.64 47.35 46.29 47 46.61 45.5 47.86 47.37 48.52 47.11 48.68 44.69 49.77 46.18 50.58 46.58 51.18 45.99 51.61 44.27 52.43 44.74 53.11 44.38 53.77 43.72 54.73 45.84 55.25 43.56 56.09 45.23 56.77 44.28 57.48 43.31 58.22 45.3 58.97 43.76 59.67 44.62 60.46 43.76 61.21 43.83 61.92 44.15 62.73 43.77 63.42 44.21 63.62 46.64 64.48 46.03 65.2 46.07 65.89 46.24 66.38 46.96 67.19 46.8 67.76 47.24 69.08 46.18 68.92 48.02 69.6 48.24 70.71 47.8 70.5 49.38 70.98 49.87 72.13 49.52 73.34 49.23 73.36 50.3 74.37 50.3 73.68 51.95 75.37 51.4 74.58 52.99 75.69 53.01 75.27 54.19 75.59 54.81 77.08 54.67 78.5 54.67 78.24 55.68 77.8 56.74 79.12 56.88 78.75 57.87 78.51 58.77 79.49 59.13"/><path class="cls-5" d="M68,111.36l-.12,13.25S63.58,127,56,127.45s-4,1.65-4,1.65H77.06a1.46,1.46,0,0,0,0-2.36c-1.41-1.18-7.09-2.37-7.09-2.37l.12-13Z"/><ellipse class="cls-6" cx="66.3" cy="93.51" rx="16.2" ry="18.8"/><path class="cls-5" d="M63,111.36l-.12,13.25s-4.25,2.36-11.82,2.84-4,1.65-4,1.65H72.1a1.46,1.46,0,0,0,0-2.36c-1.42-1.18-7.1-2.37-7.1-2.37l.12-13Z"/><polygon class="cls-7" points="44.07 65.86 44.73 66.98 43.37 67.73 41.14 67.69 42.04 69.06 40.01 68.45 41.43 70.83 41.21 72.01 38.84 70.11 39.32 72.5 38.34 72.48 37.83 73.58 36.59 72.48 35.68 72.06 35.15 73.92 34.13 71.87 33.39 72.9 32.54 73.53 31.84 72.25 31.41 70.45 30.44 71.55 29.48 72.08 28.93 71.33 27.37 72.66 28.02 69.97 26.29 71.08 25.87 70.28 25.47 69.54 23.57 69.82 26.03 67.51 23.88 67.58 22.04 66.99 21.87 65.87 22.69 64.84 26.41 64.94 24.75 63.61 25.69 63.3 24.27 61.18 25.18 60.73 27.94 62.76 27.78 61.39 28.59 61.38 28.4 59.17 29.36 59.33 30.78 61.45 30.73 57.82 31.83 59.38 32.49 57.51 33.38 60.28 34.31 56.96 35.15 57.75 35.48 60.68 36.66 58.95 36.64 61.55 38.83 58.1 38.21 61.31 38.65 61.92 39.2 62.29 42.01 60.29 41.64 61.9 41.3 63.15 42.54 63.35 43.87 63.84 42.17 65.14 44.07 65.86"/><polygon class="cls-8" points="42.03 65.78 41.16 66.61 38.77 66.7 41.08 68.38 41.58 69.76 39.84 69.6 38.45 69.34 38.78 70.91 38.14 71.47 36.49 70.19 36.73 72.44 35.66 71.96 34.67 71.35 34.54 74.43 33.58 74.33 32.53 72.28 31.77 71.25 31.03 71.73 29.97 74.09 29.22 73.27 29.08 70.62 27.79 72.2 26.92 72.16 25.53 72.98 25.36 71.51 25.61 69.83 24.99 69.44 25.14 68.38 24.43 68.11 21.26 68.96 23.5 67.08 20.67 66.92 23.79 65.72 23.12 65.05 22.82 64.23 22.76 63.34 22.82 62.4 23.47 61.8 24.32 61.45 24.93 60.92 26.39 61.71 25.94 59.37 27.47 60.74 27.6 58.88 28.2 57.84 29.76 61.1 30.4 60.85 30.93 58.62 31.75 58.44 32.64 57.5 33.56 57.33 33.86 60.52 34.76 59.88 36.18 58.1 35.82 61.22 38.08 58.4 38.13 60.12 37.65 62.11 40.45 60.14 39.09 62.6 39.83 62.96 39.13 64.13 39.82 64.52 40.63 65.04 42.03 65.78"/><polygon class="cls-9" points="40.7 65.55 39.94 66.44 37.57 66.59 40.81 68.8 37.31 67.75 39.27 70.24 36.05 68.26 36.49 69.79 36.57 71.28 35.24 70.6 35.72 73.52 33.85 71.15 33.8 73.77 32.73 73.11 31.49 70.28 30.88 70.98 30.15 73.81 29.32 73.11 28.4 73.63 27.53 73.5 27.24 71.37 26.81 70.39 24.89 72.91 23.92 72.77 23.17 72.18 23.84 69.86 23.69 68.94 22.39 69.13 20.66 69.33 22.58 67.26 19.76 67.61 20.79 66.36 21.1 65.51 19.91 64.62 21.48 64.06 20.15 62.63 22.38 62.92 21.34 61.09 23.86 62.45 24.72 62.52 25.01 61.85 24.79 59.99 25.27 59.08 26.39 59.79 26.75 58.17 27.52 57.57 28.58 58.86 29.24 56.73 30.16 60.49 30.93 59.27 31.57 60.27 32.39 59.71 33.23 59.42 34.17 59.08 34.16 61.16 36.29 58.55 37.13 58.97 37.3 60.28 37.51 61.32 37.88 62.05 36.68 63.75 40.5 62.48 40.82 63.48 41.4 64.45 40.7 65.55"/><polygon class="cls-10" points="38.08 65.18 36.11 65.69 38.24 66.94 36.45 67.03 36.8 68.07 36.88 69.16 35.68 69.13 36.53 71.44 33.56 68.67 34.54 71.79 33.43 71.49 32.38 71.02 31.35 70.18 30.87 71.23 30.21 71.99 29.39 71.58 28.63 71.87 27.98 70.41 27.32 70.26 26.35 71.54 24.98 73.39 24.26 72.7 24.03 71.11 22.77 71.7 23.92 68.49 21.3 70.71 22.51 68.22 22.37 67.49 19.34 68.82 19.76 67.54 19.81 66.64 20.31 65.71 17.92 65.31 21.23 64.48 18.76 63.35 19.6 62.72 18.5 60.98 21.78 62.45 21.36 61.05 22.67 61.5 23.46 61.5 22.69 58.55 23.63 58.5 24.32 57.87 24.95 56.84 26.3 58.9 27.14 59.35 27.95 60.34 28.62 57.92 29.54 56.38 30.36 57.2 30.85 59.29 31.55 59.53 32.39 59.38 33.43 58.89 33.48 60.56 34.04 60.99 36.56 58.88 36.05 60.86 34.91 62.88 35.94 62.86 39.16 62.01 38.64 63.3 38.8 64.24 38.08 65.18"/><polygon class="cls-11" points="37.2 64.68 34.92 65.23 35.46 66.01 34.83 66.46 34.03 66.7 35.82 69.03 34.42 68.88 34.63 70.44 33.84 70.88 33.48 72.09 32.04 71.21 31.75 72.89 30.75 72.83 29.53 71.52 28.66 71.06 27.93 71.68 27.09 72.88 26.4 70.45 25.25 72.68 25 69.93 24.34 69.58 22.64 71.72 21.41 72.06 20.84 71.12 21.79 68.33 20.48 68.7 20.56 67.55 17.62 68.8 19.42 66.57 19.04 65.92 16.25 65.97 17.43 64.7 16.25 63.74 17.55 62.92 18.89 62.58 17.66 60.91 17.98 59.92 19.72 60.4 19.11 58.22 20.09 57.94 21.43 58.52 22.1 57.92 23.18 58.44 24.3 59.51 24.64 57.57 25.53 58 26.18 55.77 27.12 58.97 27.87 58.53 28.95 56.07 29.19 59.6 29.88 59.71 31.44 57.28 31.74 58.84 32.31 59.45 32.71 60.23 34.08 59.64 33.41 61.55 33.97 61.91 35.97 61.35 35.52 62.54 36.91 62.88 34.85 64.12 37.2 64.68"/><polygon class="cls-12" points="36.29 64.06 34.77 64.83 34.83 65.66 32.97 65.61 35.18 67.85 34.15 68.22 32.58 67.84 31.78 68.03 30.84 67.91 31.17 69.89 30.86 71.18 30.01 71.44 29.29 72.13 27.62 68.73 27.52 72.76 26.41 69.62 25.73 69.47 24.84 70.99 24.41 68.8 23.41 69.92 22.86 69.17 21.74 69.87 20.6 70.27 19.26 70.69 18.3 70.34 17.86 69.34 18.23 67.72 18.48 66.5 19.29 65.16 16.57 65.74 16.42 64.87 18.57 63.56 18.58 63.24 17.61 62.66 16.69 61.59 17.72 61.31 16.63 59.37 17.59 59 18.3 58.45 18.96 57.82 20.37 58.67 20.36 56.59 21.48 57.05 22.39 57.16 23.25 57.23 24.21 58.27 24.81 56.29 25.68 55.41 26.41 58.14 27.09 58.65 28.12 57.09 28.96 57.13 29.18 59.04 29.62 59.78 30.37 59.77 31.94 58.56 31.12 60.95 33.2 59.64 32.87 60.99 35.49 60.1 32.71 62.57 33.64 62.83 35.03 63.24 36.29 64.06"/><polygon class="cls-13" points="33.47 63.32 34.89 64.36 35.31 65.58 34.7 66.49 33.15 66.68 32.92 67.63 32.12 68.09 31.34 68.49 29.45 67.19 29.75 69.1 29.84 71.22 28.56 70.54 27.61 70.39 26.25 68.1 25.84 69.83 25.04 69.31 24.24 71.62 23.29 71.71 23.07 67.98 22.34 68.14 20.52 71.08 20.58 68.71 19.27 69.44 19.87 67 18.9 67.12 17.86 67.15 15.67 68.03 16.19 66.43 17.8 64.45 13.73 65.7 13.28 64.76 16.25 62.95 13.64 62.43 15.27 61.68 14.51 60.48 15.92 60.29 16.69 59.94 17.47 59.71 18.11 59.38 18.89 59.3 18.69 57.34 20.32 59.11 20.89 58.68 21.17 57.04 22.27 58.55 22.9 58.13 23.51 56.79 24.29 58.24 25.06 56.92 26 55.67 26.5 57.54 27.69 55.95 28.33 56.75 28.82 57.68 29.53 57.99 29.85 58.92 30.31 59.49 32.48 58.2 32.12 59.73 33.7 59.63 32.77 61.14 34.5 61.39 33.66 62.51 33.47 63.32"/><polygon class="cls-14" points="30.44 62.49 31.8 63.21 33.51 64.58 29.83 63.8 30.77 65.1 31.91 67.07 30.09 66.5 30.72 68.55 29.45 68.34 27.21 66.12 28.29 69.89 26.11 66.76 26.54 70.4 24.9 67.2 24.62 69.74 23.73 68.71 22.98 69.29 22.22 68.82 21.75 67.31 20.99 67.5 20.12 67.83 18.64 69.19 17.67 69.09 18.02 66.98 15.85 68.42 14.95 67.97 15.05 66.57 15.4 65.2 14.28 64.94 13.49 64.36 15.74 62.5 15.6 61.87 14.4 61.57 13.9 60.82 12.13 59.13 15.14 59.83 13.9 57.75 14.75 57.27 15.7 57.03 15.9 55.66 17.41 56.61 18.45 56.96 18.73 55.38 19.3 54.17 20.84 57.15 21.52 56.83 22.31 57.69 22.97 56.96 23.67 57.2 24.72 54.51 25.26 56.3 26.29 55.4 26.41 57.65 27.01 57.98 28.47 56.66 29.88 55.98 28.7 59.02 31.19 57.34 29.68 59.83 32 59.05 32.96 59.58 31.43 61.1 30.35 61.98 30.44 62.49"/><polygon class="cls-15" points="32.06 61.56 32.77 62.69 32.74 63.84 29.26 63.23 28.66 63.57 28.22 64 29.83 66.64 27.35 64.96 28.45 67.8 27.02 67.08 26.43 67.68 25.84 68.4 24.35 66.41 24.11 68.35 23.18 67.51 22.47 67.59 21.83 66.57 21.04 67.46 19.75 69.85 19.63 67.04 18.02 69.06 18.06 66.92 17.17 66.9 15.71 67.57 14.93 67.08 15.21 65.49 14.38 65.14 12.96 65.16 12.98 64.05 11.54 63.82 12.37 62.41 13.02 61.29 11.72 60.68 12.94 59.95 13.08 59.24 14.9 59.63 13.97 58.06 15.15 58.28 14.71 56.48 14.83 55.04 16.98 57.34 17.4 56.53 17.14 53.47 19.07 57.09 19.61 56.34 20.23 55.62 20.91 54.66 21.72 56.71 22.5 55.02 23.13 56.17 24.14 54.68 25.43 53.01 25.25 56.45 27.24 53.62 27.11 55.95 28.84 54.73 29.55 55.4 27.69 58.76 29.41 58.08 30.67 58.17 29.92 59.52 29.07 60.52 31.63 60.66 32.06 61.56"/><polygon class="cls-16" points="31.57 60.55 28.16 61.04 30.55 62.47 29.02 62.72 29.27 63.83 27.7 63.58 27.25 64.14 28.11 66.41 26.15 65.12 24.82 64.3 24.97 66.09 23.94 65.58 23.03 65.01 22.75 66.58 21.93 66.06 21.28 66.37 20.56 67.15 20.05 65.28 18.79 67.86 18.5 65.93 16.93 67.82 16.67 66.36 16.26 65.47 15.85 64.74 14.64 65.02 13.84 64.68 14.19 63.27 12.06 63.94 12.36 62.68 12.19 61.84 12.2 60.95 10.1 60.91 12.22 59.56 13 59.2 13.1 58.8 10.81 56.55 12.51 56.79 12.17 55.15 14.82 57.33 14.16 54.91 14.82 54.36 15.53 53.84 16.87 55.15 17.32 53.96 18.03 53.37 18.77 52.6 19.89 55.86 20.54 55.07 21.34 53.7 21.89 55.63 23.32 51.87 23.92 53.24 24.04 55.53 25.76 53.32 25.35 56.03 26.45 55.6 28.21 54.6 28.45 55.72 29.64 55.89 27.88 58.22 29.04 58.36 30.92 58.56 31.37 59.51 31.57 60.55"/><polygon class="cls-17" points="29.33 59.48 30.44 60.62 26.98 60.51 28.08 61.76 27.53 62.34 26.17 62.17 25.43 62.36 26.44 64.7 26.14 65.76 24.72 65.08 23.78 64.97 23.33 65.89 22.72 66.66 21.77 66.33 21.01 66.72 20.2 67.12 19.49 64.81 18.76 65.28 17.51 67.19 17.28 65.26 15.73 66.71 15.65 65.1 14.26 65.68 13.28 65.48 14.74 62.62 13.67 62.65 12.85 62.35 12.91 61.29 12.7 60.49 10.98 60.77 8.96 61.16 9.59 59.61 11.21 58.56 8.91 57.39 12.04 57.71 9.73 55.45 11.88 56.08 10.72 53.65 12.7 54.72 12.65 53.11 14.53 54.85 15.32 54.91 16.01 54.78 16.61 54.4 16.66 51.1 17.98 54.11 18.59 52.82 19.37 53.66 20.17 52.64 21.08 51.8 21.36 54.83 22.39 53.55 23.88 51.56 24.18 53.22 24.7 53.98 25.13 54.77 27.11 53.44 26.49 55.48 26.07 56.84 26.49 57.28 27.14 57.64 26.85 58.4 29.62 58.52 29.33 59.48"/><polygon class="cls-18" points="26.46 58.34 26.1 58.84 28.46 60.3 27.98 61.13 25.53 60.49 24.76 60.68 24.58 61.41 25.59 63.78 25.27 64.85 23.08 62.89 22.06 62.44 22.95 66.34 21.05 63.52 20.45 63.93 20.04 65.89 19.1 64.14 18.36 65.14 17.5 65.52 17.4 62.92 16.5 63.59 15.44 64.13 15.58 62.48 14.78 62.45 13.13 63.28 12.01 63.27 11.75 62.35 10.21 62.61 10 61.67 10.19 60.47 9.57 59.93 11.16 57.78 10.07 57.8 9.8 57.39 7.24 56.08 11.52 56.8 9.96 55.18 9.88 54.03 12.43 55.62 12.39 54.56 12.97 54.2 13.49 53.68 14.06 53.2 14.22 51.41 15.42 52.61 16.29 53.17 16.98 53.1 17.44 49.78 18.35 51.14 19.09 52.39 19.82 52.57 20.4 53.39 21.37 52.38 21.61 54 23.23 51.89 24.75 50.82 25.5 51.46 26.19 52.17 26.67 53.09 27.45 53.67 27.73 54.67 26.64 56.25 28.21 56.51 25.73 57.83 26.46 58.34"/><polygon class="cls-19" points="28.15 57.15 28.47 58.3 24.88 58.1 25.1 58.86 26.53 60.71 23.89 59.55 23.44 59.99 25.14 63.2 24.18 63.43 23.77 64.5 21.68 62.38 21.34 63.5 21.06 65.22 19.87 64.22 19.23 65.55 18.14 62.34 17.42 64.08 16.94 62.46 16.32 62.34 15.94 61.63 14.12 63.65 13.48 63.11 13.05 62.31 11.63 62.72 10.88 62.25 10.13 61.79 9.31 61.4 8.95 60.6 8.23 60.12 8.89 58.56 10.25 56.49 8.62 56.83 8.35 56.18 9.45 55.67 6.94 53.84 7.5 52.9 8.14 52.08 9.01 51.56 10.31 51.77 10.82 50.97 11.38 50.14 13.14 52.03 12.84 48.88 14.77 52.47 14.9 49.73 15.96 51.28 16.61 49.94 17.42 51.04 18.33 48.55 19.04 50.13 19.69 51.08 20.23 51.99 22.04 48.89 22.2 50.94 22.56 52.01 23.07 52.62 23.97 52.63 25.04 52.62 25.93 52.98 26.25 53.84 25.78 55.03 25.49 55.89 25.21 56.58 28.15 57.15"/><polygon class="cls-20" points="28.03 55.92 24.09 56.36 26.73 57.91 25.41 58.27 23.78 58.08 25.27 60.32 23.76 60.02 23.71 61.23 22 60.23 21.95 61.58 21.04 61.57 20.7 62.75 19.16 60.79 19.46 64.72 18.16 62.8 17.42 64.01 16.52 63.5 15.84 62.58 14.89 62.95 14.84 61.08 13.18 62.58 13.75 60.28 13.01 60.1 10.4 61.88 9.85 61.19 10.26 59.64 11.43 57.53 10.03 57.73 8.08 58.37 10.07 55.66 8.84 55.66 8.44 55.23 8.21 54.92 5.86 53.75 6.28 52.69 8.41 52.9 9.44 52.83 10.2 52.68 10.44 51.88 11.45 52.2 10.71 49.24 12.3 50.8 12.6 49.4 12.93 47.5 13.87 47.51 15.13 50.06 15.67 47.33 16.58 47.19 17.34 49.72 18.16 49.27 18.61 51.09 19.34 50.93 20.44 49.88 20.6 51.48 21.34 51.51 23.11 50.02 24.54 49.61 24.77 50.8 23.97 52.69 23.63 53.78 26.4 53.1 27.07 53.9 26.38 55.04 28.03 55.92"/><polygon class="cls-21" points="25.92 54.66 26.09 55.66 24.72 56.15 25.26 57.35 22.65 56.52 22.13 56.87 24.34 60.18 22.23 59.02 22.36 60.57 20.63 59.33 19.88 59.47 19.55 60.52 18.48 59.75 18.21 61.41 17.16 59.83 16.71 63.34 15.85 61.6 14.63 63.33 14.78 59.96 13.47 61.16 13.39 59.76 12.49 59.77 11.88 59.33 11.44 58.67 11.02 58.01 10.11 57.81 8.06 58.62 8.46 57.19 9.83 54.95 7.63 55.84 7.41 54.98 6.83 54.44 8.34 53.61 7.97 53.16 7.95 52.58 7.9 51.79 6.83 49.81 9.89 51.92 8.21 48.51 10.31 50.25 11.11 50.26 10.82 47.72 12.11 48.87 12.55 47.58 13.07 45.94 14.22 47.52 14.95 46.27 15.85 47.16 16.73 46.42 17.31 48.89 18 49.16 19.02 48.14 19.98 47.81 20.63 48.46 21.8 48 23.13 47.59 22.22 50.38 23.39 50.22 24.45 50.41 23.69 52 23.84 52.71 25.24 52.98 23.03 54.19 25.92 54.66"/><polygon class="cls-22" points="24.75 53.38 26.59 54.61 23.41 54.6 25.32 56.47 23.39 56.26 21.68 55.75 21.94 56.98 22 58.26 22.23 60.03 21.1 59.91 19.1 57.9 18.92 59.25 18.27 59.72 17.92 61.44 16.98 61.43 15.95 58.72 15.31 59.62 14.54 59.83 13.17 61.26 13.91 57.85 13.43 57.5 12.49 57.7 12.31 56.84 11.43 56.73 9.22 57.86 10.5 55.56 8.2 56.64 8.23 55.55 7.57 55.09 6.49 55.04 6.63 53.84 4.75 54.07 7.62 52.3 5.46 51.43 5.71 50.51 7.69 50.81 6.92 49.19 7.97 49.12 8.43 48.42 10.09 49.66 10.42 48.85 9.91 45.76 10.73 45.35 12.2 47.3 12.87 46.78 13.53 45.78 14.57 48.48 15.22 48.69 16.11 45.12 17 45.18 17.26 48.48 18.84 45.2 19.8 45.25 19.67 47.94 20.24 48.47 20.7 49.11 22.66 47.73 22.22 49.51 22.58 50.18 24.41 49.84 22.2 51.92 22.84 52.26 24.33 52.61 24.75 53.38"/><polygon class="cls-23" points="22.21 52.09 22.93 52.67 23.52 53.56 22.18 53.65 22.19 54.45 22.44 55.63 21.17 55.42 21.99 57.61 21.74 58.78 19.98 57.62 18.78 57.01 18.04 57.12 17.99 59.1 17.24 59.53 16.44 59.96 15.52 59.68 14.86 57.89 13.83 59.24 13.77 57.26 12.66 57.97 11.23 58.7 11.61 56.88 9.89 57.65 11.06 55.29 10.67 54.64 10.4 53.85 8.89 54.21 6.33 55.56 8.33 52.58 6.16 53.61 5 53.7 6.31 51.44 6.36 51.02 7.12 50.63 5.95 49.57 7.24 49.56 6.05 47.55 6.7 46.93 6.89 45.66 9.48 48.21 8.58 44.86 9.79 45.42 10.31 44.34 11.92 46.88 11.96 43.52 12.98 44.26 14.02 46.71 14.7 46.15 15.37 47.35 16.05 47.22 16.95 46.13 17.74 46.07 18.91 45.02 20.23 44.15 20.57 45.59 21.83 45.26 22.7 45.73 22.1 47.8 23.36 47.8 23.14 49.04 21.86 50.55 23.3 50.66 23.15 51.42 22.21 52.09"/><polygon class="cls-24" points="24.37 50.8 21.72 51.2 21.44 51.58 24.27 53.83 22.45 53.65 22.52 54.78 22.68 56.21 19.88 54.16 20.75 56.63 18.62 54.73 19.46 57.83 18.1 56.91 16.87 55.81 16.23 55.97 15.88 57.73 15.09 57.61 14.06 59.28 13.69 56.88 11.82 59.1 13.09 55.09 12.57 54.7 10.55 55.93 10.43 54.85 10.34 53.79 7.5 55.37 9.81 52.02 7.84 52.75 6.27 53.14 6.75 51.48 4.53 52.66 5.43 50.47 6.09 49.69 6.85 49.35 5.43 48.22 4.2 46.34 6.13 46.72 7.97 47.63 8.59 47.38 8.73 46.32 9.34 45.94 10.36 46.47 9.96 43.21 11.04 43.81 12.1 44.89 12.48 42.24 13.44 42.88 14.3 44.23 15.18 42.72 16.14 42.11 16.61 44.51 17.38 44.63 18.35 44.21 19.16 44.41 19.88 44.84 20.92 44.76 20.16 47.18 21.54 46.68 23.67 45.91 21.65 48.46 22.11 48.95 21.4 49.85 22.07 50.23 24.37 50.8"/><polygon class="cls-25" points="23.05 49.52 24.66 50.61 22.56 50.87 24.48 52.85 21.63 51.96 20.88 52.23 20.58 52.94 21.8 55.66 18.89 53.06 19.47 55.34 19.09 56.37 18.11 56.29 17.23 56.3 16.43 56.45 15.84 57.78 14.74 54.61 14.15 55.73 13.31 55.98 12.23 56.34 12.83 53.87 9.9 56.43 11.2 53.62 10.95 52.75 9.53 53.02 8.11 53.23 9.68 50.57 8.45 50.57 6.17 51.71 5.28 51.49 6.98 48.31 5.97 48.54 4.39 48.52 7.09 48.16 6.08 47.38 5.06 45.88 6.88 46.43 6.71 45.16 6.72 43.79 8.21 44.62 7.85 42.16 9.86 44.66 9.49 41.34 11.08 43.71 11.47 41.86 12.67 44.31 13.37 44.49 14.03 44.25 14.7 44.66 15.77 41.57 16.13 44.27 16.83 44.37 18.27 42.37 18.62 43.75 18.61 45.43 20.33 43.97 21.52 43.8 21.11 45.56 20.54 47.03 21.69 46.97 20.82 48.15 22 48.29 22.5 48.84 23.05 49.52"/><polygon class="cls-26" points="23.92 48.26 23.52 49.14 22.31 49.56 22.33 50.39 20.5 49.94 20.37 50.63 21.77 53.16 21.49 54.2 19.58 53.01 19.03 53.6 17.95 53.23 17.63 54.28 16.59 53.73 16.09 54.52 15.66 56.38 14.64 54.76 13.85 55.31 13.09 54.93 12.74 53.84 11.15 54.82 11.25 53.32 10.78 52.65 9.86 52.41 10.29 50.86 8.75 51.19 6.94 51.81 6.89 50.72 5.46 51.08 6.41 48.81 6.49 47.37 6.17 46.94 4.64 47.21 3.14 46.07 6.18 46.24 5.74 45.22 6.27 44.72 6.44 43.76 6.86 42.95 7.24 41.94 8.96 43.49 9.94 43.95 10.24 42.73 10.45 40.66 11.65 42.25 12.06 39.71 12.99 40 13.88 41.82 14.63 42.09 15.35 42.46 16.53 40.2 16.97 42.02 17.97 41.53 18.1 43.34 18.25 44.56 18.9 44.69 20.35 43.84 20.1 45.2 20.12 46 21.93 45.46 23.44 45.56 24.43 46.22 23.36 47.43 23.92 48.26"/><polygon class="cls-27" points="23.94 46.95 25.06 48.18 22.76 48.45 22.38 49.12 22.26 50 22.45 51.3 21.03 51.05 20.18 51.25 20.95 53.72 18.62 51.64 19.2 54.32 17.83 53.45 17.34 54.47 15.86 52.48 15.31 53.17 14.58 52.09 13.81 54.13 12.96 53.91 12.11 53.63 11.41 53.09 9.62 53.8 10.44 51.65 8.45 52.43 7.8 51.89 8.09 50.48 6.63 50.81 6.62 49.7 7.25 47.79 7.09 46.65 5.59 47.17 4.12 47.36 6.53 45.65 4.86 45.12 6.18 44.94 4.46 42.96 5.95 43.1 5.81 41.68 7.36 42.39 8.32 42.53 9.32 42.94 9.43 41.42 10.08 40.99 10.51 39.64 11.29 39.19 12.28 40.07 13.18 41.57 13.87 41.53 14.78 38.33 15.45 40.26 16.24 40.33 16.54 42.28 17.21 42.39 17.71 42.91 18.65 42.49 21.14 39.89 20.94 41.77 19.94 44.05 20.49 44.37 23.49 43.12 22.7 44.6 20.95 46 22.61 46.23 23.94 46.95"/><polygon class="cls-28" points="23.78 45.6 22.43 46.2 24.02 47.57 21.28 46.99 23.6 49.58 22.75 50.09 21.21 49.72 21.02 50.77 20.98 52.19 19.05 50.74 17.91 50.22 18.31 52.8 16.5 50.46 16.46 52.67 15.37 51.33 14.8 52.37 14.4 50.89 13.59 51.45 11.79 53 11.09 52.3 10.1 52.01 11.43 49.48 11.39 48.4 9.27 49.27 7.7 49.68 7.22 49.04 7.66 47.4 5.83 48.3 5.94 46.94 5.79 45.79 4.89 45.49 4.56 44.57 3.22 43.4 4.63 42.73 6.69 43.17 7.61 43.24 6.69 41.21 8.38 42.3 7.71 39.82 8.33 39.21 9.45 39.72 10.3 39.81 10.53 37.73 11.93 40.2 12.35 38.07 13.26 38.99 14.03 37.19 14.7 40.84 15.47 39.99 15.99 41.08 17.43 38.22 17.24 41.41 19.39 38.06 19.98 38.93 19.46 41.4 21.69 39.66 22.78 39.89 21.48 42.32 23.91 41.61 24.73 42.35 23.07 44.03 24.98 44.54 23.78 45.6"/><polygon class="cls-29" points="21.82 44.37 22.93 44.99 25.13 46.67 22.93 46.56 21.73 46.6 22.68 48.46 20.23 47.02 20.01 47.82 20.33 49.52 19.15 49.1 18.62 49.7 17.68 49.45 17.21 50.22 16.54 50.54 16.25 52.9 15.1 50.14 14.78 49.59 14.04 50.05 14.12 48.78 12.44 49.83 11.28 49.86 10.27 49.65 9.47 49.26 9.01 48.59 8.07 48.41 10.13 45.09 7.7 46.51 7.21 45.84 7.83 43.65 6.38 44.2 6.61 42.93 4.64 43.37 4.94 42.43 6.61 42.3 4.58 40.06 5.36 39.41 6.82 39.71 6.5 37.77 7.88 38.29 8.54 37.7 9.73 38.35 10.4 37.85 11.73 39.66 12.06 37.91 12.9 38.32 13.73 39.64 14.37 38.12 15.09 38.79 16.23 35.45 17.04 36.26 17.3 38.73 18.86 36.49 18.72 39.14 19.91 38.47 19.39 40.81 19.81 41.27 22.09 39.73 22.51 40.5 22.93 41.23 24.05 41.61 23.1 42.89 23.27 43.62 21.82 44.37"/><polygon class="cls-30" points="24.16 43.23 24.99 44.22 22.05 43.97 25.31 46.6 23.25 46.27 23.07 47.22 22.7 48.07 22.02 48.59 19.97 47.13 20.73 49.74 19.3 48.89 19.39 50.93 17.56 48.7 17.3 50.27 16.44 50.17 15.7 51.23 14.78 50.52 13.78 50.5 13.46 49.34 11.37 50.39 13.33 47.2 10.65 48.59 10.5 47.62 10.53 46.46 11.36 44.45 10.83 43.69 9.97 43.3 8.94 43.15 7.86 43.15 6.53 43.62 4.76 44.16 5.04 42.26 7.77 41.74 6.16 40.69 5.28 39.06 6.51 38.92 7.98 39.39 8.47 38.82 9.35 38.85 8.97 36.39 10.73 38.41 11.09 37.26 12.08 37.95 12.29 35.46 13.25 36.04 14.04 35.64 14.88 37.55 15.59 37.76 16.32 37.65 17.62 34.76 17.85 37.47 18.88 36.77 19.47 37.46 21.06 36.13 20.37 38.94 21.89 38.13 20.73 40.56 22.73 39.61 22.4 40.78 21.72 41.84 25.81 41.07 24.09 42.44 24.16 43.23"/><polygon class="cls-31" points="23.69 42.21 25.31 43.12 22.77 42.95 22.8 43.58 22.86 44.39 22.69 45.19 21.53 44.99 22.01 46.71 21.63 47.54 19.62 45.82 19.33 46.69 18.53 46.64 18.02 47.18 17.78 48.63 16.97 48.44 16.35 49.87 15.64 48.79 15.37 47.74 12.8 49.95 14.87 46.4 12.44 47.62 12.39 46.55 10.88 46.82 10.29 46.3 9.85 45.64 9.31 45.08 8.9 44.35 9.91 41.66 7.59 43.47 7.49 42.14 7.98 40.45 6.49 41.08 6.48 40.33 6.45 39.47 5.92 38 8.28 39 8.79 38.54 7.63 35.52 9.78 37.41 10.44 37.04 11.24 37.01 12.31 37.86 12.32 35.34 12.88 34.06 14.08 36.2 14.89 37.19 15.55 36.87 16.29 36.28 17.28 34.36 17.94 35.48 19.27 33.63 19.97 34.52 19.98 36.79 19.94 38.47 21.77 36.77 21.04 39.05 22.53 38.35 23.15 38.8 24.02 39.13 23.75 40.16 25.91 40.22 23.92 41.55 23.69 42.21"/><polygon class="cls-32" points="27.07 41.28 25.06 41.93 23.34 41.9 26.7 44.6 23.57 43.38 22.74 43.52 22.83 44.61 22.41 45.24 20.9 44.38 22.53 48.3 21.14 47.59 19.46 45.98 19.47 47.85 18.77 48.28 18.06 48.86 17.04 46.08 15.86 49.76 16.26 46.79 16.01 46.15 13.55 47.54 14.4 45.65 12.76 45.99 13.79 43.95 11.9 44.59 13.02 42.22 11.82 42.2 9 44.37 10.17 41.47 8.68 42.19 7.22 43.08 8.6 39.7 9.1 39.75 8.74 39.65 9.42 39.62 8.72 38.62 7.75 36.7 9.43 37.4 8.95 35.34 9.5 34.52 11.63 36.9 11.74 35.3 12.19 34.14 13.07 34.16 14.43 36.63 15.07 36.42 15.44 32.49 16.36 34.3 17.22 33.56 18.24 32.3 18.59 35.42 18.98 36.83 19.97 35.95 20.8 35.86 22.3 34.64 22.25 36.37 23.88 35.54 24.85 35.85 25.11 36.91 25.44 37.81 24.68 39.18 27.25 39.13 24.72 40.62 27.07 41.28"/><polygon class="cls-33" points="26.37 40.45 28.33 41.66 24.41 41.12 27.28 43.54 25.8 43.58 26.18 45.1 24.77 44.88 24.78 46.23 22.19 44.04 21.59 44.38 22.61 47.7 20.35 45.01 21.06 48.58 19.34 46.23 19.28 49.22 18.08 47.17 16.64 49.33 16.68 46.86 15.72 46.71 14.83 46.35 14.23 45.76 14.07 44.81 13.48 44.25 13.02 43.58 13.41 41.96 12.6 41.56 10.57 42.81 10.71 41.23 9.02 42.39 10.26 38.65 7.82 40.87 7.88 39.4 8.64 38.62 10.2 38.7 9.03 37.28 8.89 36.05 9.37 35.27 9.51 33.9 10.27 33.34 11.53 33.84 13.38 36.14 14.06 36.03 14.26 34.18 15.16 34.67 15.98 35.23 16.43 32.18 17.33 34.38 18.04 34.9 19.09 32.32 19.57 34.51 20.04 35.62 21.28 34.12 22.07 34.32 23.33 33.69 22.23 37.08 22.74 37.39 26.15 34.67 25.2 36.81 24.28 38.37 26.38 37.99 27.05 38.67 25.4 39.83 26.37 40.45"/><polygon class="cls-34" points="28.21 39.71 27.71 40.51 25.52 40.38 25.9 41.2 26.52 42.54 24.77 41.91 24.69 42.82 23.83 42.87 24.56 45.14 23.46 44.91 22.7 45.13 22.27 46.01 21.86 47.12 20.53 45.81 19.93 46.43 19.15 45.98 17.68 48.56 17.8 46.09 18.01 44.77 17.76 44.03 17.21 43.44 16.39 43.01 15.06 43.05 15.75 41.19 14.69 40.98 14.3 40.03 12.8 40.54 11.01 41.73 10.92 40.38 10.36 39.71 10.03 38.81 8.98 38.66 9.37 37.82 9.56 37.08 11.28 37.46 9.99 35.32 12.04 36.55 10.75 33.38 13.38 36.22 12.73 33.34 14.1 34.49 14.81 34.26 15.2 32.87 16.41 34.71 16.99 33.95 17.5 31.04 18.42 31.63 19.26 32.26 20.29 30.83 20.97 32.22 21.48 33.6 22.51 32.99 22.99 33.99 24.83 32.19 24.36 34.72 23.83 36.66 25.52 35.74 25.78 36.52 27.43 36.29 28.84 36.6 27.51 38.13 28.37 38.81 28.21 39.71"/><polygon class="cls-35" points="29.61 39.07 28.11 39.66 28.44 40.51 27.66 40.91 26.41 40.8 27 42.26 26.76 43.14 25.5 42.81 26.4 45.4 25.41 45.45 23.82 44.33 22.71 43.75 22.54 45.17 22.02 46.02 21.12 45.68 20.33 44.61 20.22 44.6 19.73 44.55 16.71 46.43 16.72 45.2 18.42 42.8 15.88 43.8 14.81 43.74 16.19 41.29 14.61 41.79 15 40.02 14.73 38.87 12.24 41.13 12.65 38.87 11.93 38.4 10.26 39.42 11.48 37.65 8.93 36.9 12.37 37.24 10.6 35.3 11.27 34.73 12.67 35.15 11.96 32.71 14.36 35.15 14.46 33.77 15.31 33.81 15.99 33.51 16.29 31.75 17.44 33.13 18.08 32.35 18.98 33.86 19.64 31.58 20.34 33.77 21.07 33.6 22.38 30.6 22.47 33.84 22.86 34.87 24 33.84 25.73 32.15 26.2 33.11 27.51 32.86 25.84 36.03 26.78 36.05 27.47 36.41 29.47 36.24 28.7 37.49 26.81 38.59 29.61 39.07"/><polygon class="cls-36" points="32.21 38.51 31.58 39.64 29.38 39.77 30.62 41.41 30.17 42.24 29.54 42.89 28.14 42.63 27.26 42.79 26.56 43.15 25.98 43.66 24.73 43.01 25.4 45.99 23.83 44.49 23.14 44.8 22.48 45.24 21.67 44.23 20.26 46.96 20.58 44.63 20.1 44.04 20.84 42.49 18.18 43.45 18.93 41.79 18.2 41.26 16.21 42.09 17.02 39.98 16.82 38.79 16.12 38.18 13.38 40.97 14.75 36.89 12.97 38.44 12.98 37.03 11.71 37.4 11.04 36.46 10.32 34.95 12.72 35.37 13.85 35.48 12.45 32.58 14.17 33.49 15.28 33.85 15.25 32.06 15.63 30.74 16.54 30.61 18.41 34.07 18.84 32.89 19.55 32.77 20.27 32.71 20.98 31.37 21.88 30.02 22.75 30.31 23.73 29.98 24 32.55 24.67 32.93 25.34 33.27 25.55 34.44 26.76 33.77 27.52 34 27 35.66 30.49 33.49 29.83 35.18 30.24 35.95 30.04 36.93 29.4 37.84 32.21 38.51"/><polygon class="cls-37" points="30.1 38.03 31.51 38.78 30.27 39.03 31.68 40.69 29.29 39.83 30.19 41.64 30.81 43.55 28.61 42.21 28.32 43.13 27.29 42.98 27.47 44.86 25.77 43.32 25.46 44.49 24.06 42.82 23.54 43.16 23.21 45.41 22.22 45.33 23.22 42.96 21.39 43.68 20.68 43.18 20.19 42.51 20.88 40.87 18.8 41.56 19.02 40.17 17.23 40.99 17.33 39.56 16.32 39.6 16.6 37.51 16.23 36.28 13.9 39.09 12.86 38.73 14.3 36.54 14.79 36.33 12.75 34.98 15.12 35.67 15.62 35.36 16.15 35.04 14.63 31.51 15.69 31.5 17.11 32.45 17.04 30.18 19.25 33.9 19.25 31.4 19.7 29.64 20.75 30.61 21.75 32.77 22.42 32.01 23.1 33.02 24.22 29.62 24.74 31.7 25.19 33.01 25.94 32.95 26.67 33.05 28.81 30.53 29.36 31.48 28 34.77 30.61 32.91 30.43 34.28 31.76 34.38 29.18 36.68 33.47 35.83 33 37.03 30.1 38.03"/><polygon class="cls-38" points="31.05 37.64 31.52 37.99 34.39 39.86 32.84 40.05 32.4 40.75 32.25 41.75 32 42.77 31.47 43.51 28.52 40.81 28.99 42.85 27.8 42.31 27 42.32 26.78 43.58 26.16 44.09 25.82 45.88 24.69 44.05 23 46.24 24.73 42.73 21.71 44.12 21.26 43.39 23.65 40.7 22.77 40.17 22.27 39.33 20.16 40.2 19.88 39.23 18.06 40.34 18.28 38.58 18.22 36.95 17.25 36.9 15.89 37.77 14.32 38.52 13.66 36.89 13.43 35.51 16.63 35.79 15.21 34.1 16.62 34.4 16.1 32.58 17.2 32.71 18.23 32.93 18.07 30.84 19.09 31.07 20.15 31.61 21.27 32.73 21.24 29.26 22.59 32.27 23.24 31.61 23.96 30.54 24.75 30.9 25.59 30.55 25.98 32.83 26.71 32.7 27.21 33.33 28.51 31.96 29.01 32.67 29.76 32.87 29.56 34.34 32.68 31.97 32.95 33.06 30.62 35.75 33.46 34.97 34.33 35.65 32.08 37.01 31.05 37.64"/><polygon class="cls-39" points="36.13 37.28 34.66 38.03 34.55 38.81 33.76 39.23 33.71 40.16 34.44 41.98 32.83 41.53 30.74 40.19 30.17 40.57 29.55 40.88 29.86 42.81 28.4 41.63 28.76 44.12 27.92 44.2 26.78 42.9 26.3 43.23 25.55 44.26 25.62 43.1 24.38 43.21 22.44 43.49 24.23 41.43 24.47 40.24 24.01 39.47 21.86 40.33 21.8 39.27 21.11 38.86 20.48 38.39 19.4 38.67 19.36 37.14 18.34 37.42 17.58 37.2 17.21 36.32 14.85 36.73 17.55 35.5 16.69 34.63 17.58 34.36 16.46 32.12 17.48 31.89 18.68 32.12 20.05 32.93 19.72 30.52 21.49 32.62 21.26 29.7 22.51 30.97 22.82 28.64 23.91 29.75 24.85 30.98 25.59 30.76 26.52 28.31 27.39 28.92 27.72 31.92 29.32 28.68 29.57 30.88 30.07 31.79 30.16 33.24 30.74 33.53 32.42 32.41 32.6 33.4 33.52 33.61 33.89 34.32 35.65 34.35 32.75 36.31 33.69 36.66 36.13 37.28"/><polygon class="cls-40" points="35.1 37.04 37.82 38.16 38 39.41 35.6 39.07 33.79 38.53 33.67 39.28 33.66 40.29 34.06 41.99 33.84 43.1 31.96 41.74 32.46 44.11 30.21 41.59 30.8 44.63 29 42.23 29.32 46.04 28.1 45.98 27.11 44.24 25.96 44.11 26.84 42.47 25.32 42.47 24.55 42.06 23.76 41.77 26.03 38.92 24.05 39.6 24.21 38.2 21.62 40.26 23.12 36.74 21.39 37.99 20.96 37.13 20.19 36.91 18.75 38.3 18.75 36.33 19.96 35.14 16.98 34.95 19.65 35.03 17.07 32.28 19.95 33.8 19.07 31.48 20.43 31.94 21.77 32.7 22.03 31.56 23.38 32.83 23.16 30.01 23.75 29 24.49 28.24 25.72 30.18 26.66 32.07 27.31 29.11 28.18 28.99 28.95 29.86 29.49 31.41 31 28.57 30.85 31.89 32.7 29.41 33.33 30.23 33.1 32.27 32.86 33.8 34.11 33.36 36.38 32.39 34.86 34.56 35.05 35.21 35.75 35.66 38.21 35.98 35.1 37.04"/><polygon class="cls-41" points="38.23 36.86 37.52 37.43 38.59 38.65 35.95 37.91 37.95 40.35 37.14 40.78 35.73 40.44 34.08 39.57 35.42 42.63 33.04 40.47 33.65 42.9 31.85 41.17 31.77 42.64 30.93 42.51 30.95 45.24 29.87 45.19 29.8 42.79 27.77 43.83 29.98 41.54 29.54 40.9 26.2 41.94 28.53 39.37 24.85 41.33 25.72 39.54 25.47 38.64 25.2 37.64 23.68 38.49 23.33 37.56 22.52 37.43 21.45 37.94 21.65 35.41 20.34 36.49 18.65 36.25 17.84 34.66 19.09 33.63 20.64 33.58 21.22 33.07 22.46 33.44 21.73 31.01 23.85 33.08 24.06 31.9 23.85 29.38 25.37 31.13 25.64 29.21 26.46 28.94 27.58 30.53 28.25 29.3 29.09 29.02 29.98 28.65 30.65 30.34 31.38 30.68 32.69 28.77 32.77 31.31 33.02 32.63 33.68 32.77 35.42 31.27 36.32 31.48 35.84 33.24 38.12 32.25 36.89 34.22 38.18 34.38 36.46 35.81 39.89 35.82 38.23 36.86"/><polygon class="cls-42" points="38.53 36.74 41.41 37.87 38.9 37.78 38.03 37.95 39.34 39.87 39.74 41.43 37.91 40.71 36.16 39.76 36.41 41.32 35.03 40.6 34.94 41.84 34.5 42.63 34.2 43.84 32.87 42.67 32.4 43.6 31.64 43.5 29.56 45.33 28.57 44.36 29.15 42.86 29.48 41.82 29.73 40.76 29.23 40.09 27.61 40.41 28.7 38.24 27.62 38.16 26.35 38.53 26.8 36.33 25.53 36.82 25.38 35.22 24.46 35.16 22.84 37.04 21.34 37.86 23.58 34.75 21.37 34.75 22.39 34.27 20.83 32.09 23.19 33.1 23.13 31.76 23.44 30.67 24.34 30.47 25.53 31 26.57 31.45 26.67 29.37 27.71 29.91 28.34 28.98 29.32 29.7 30.31 31.88 30.94 27.86 31.67 31.05 32.31 31.74 33.53 29.02 34.34 29.39 34.84 30.56 36.45 28.85 35.36 32.98 37.29 31.11 38.37 31.1 37.37 33.47 38.79 33.13 38.14 34.5 39.34 34.6 38.03 35.79 40.92 35.83 38.53 36.74"/><polygon class="cls-43" points="40.13 36.7 42.02 37.47 41.57 38.11 39.67 37.72 40.28 38.99 41.11 40.85 39.22 39.99 38.43 40.18 37.95 40.77 37.05 40.74 37.4 42.78 36.21 42.22 36.56 44.82 35.48 44.55 33.91 42.12 33.59 44.45 32.5 43.97 30.49 44.13 33.35 41.69 32.16 41.35 30.28 41.5 30.72 40.33 31.8 38.33 28.49 40.47 28.2 39.82 29.4 36.83 27.07 39.06 27.76 36.17 26.31 37.3 25.18 38.01 24.5 37.72 24.63 35.4 24.33 35.22 23.14 34.69 24.79 34.49 23.16 32.4 23.86 31.7 24.83 31.45 27.23 33.62 26.39 30.7 28.27 32.73 28.65 31.83 28.54 29.23 30.28 32.29 30.25 28.95 31.18 29.37 32.01 29.23 32.84 28.2 33.74 28.22 34.6 28.63 35.52 28.54 35.52 32.01 37.08 29.54 38.21 29.13 38.59 30.41 39.14 31.16 39.85 31.6 39.57 33.11 42.19 31.82 39.51 34.8 41.64 34.36 40.71 35.5 44.13 35.58 40.13 36.7"/><polygon class="cls-44" points="43.98 36.7 43.56 37.35 42.74 37.71 43.76 39.19 43.91 40.43 41.59 39.37 40.8 39.56 41.19 41.2 40.28 41.29 40.89 43.66 39.66 43.27 37.98 41.85 38.23 44.15 37.23 43.95 36.18 43.28 35.53 43.95 35.73 42.73 33.11 43.84 33.57 42.48 34.22 41.04 33.58 40.4 33.4 39.34 31.98 39.51 29.69 40.93 30.25 39.01 30.44 37.32 28.98 37.98 29.39 35.73 27.23 37.72 27.94 34.73 26.26 36.06 26.78 34.83 24.06 34.66 25.21 33.79 25.75 33.05 26.74 32.86 27.93 33.13 27.18 30.57 28.83 31.7 28.61 29.45 29.66 29.61 30.84 30.33 32.26 32.24 32.16 28.84 32.89 27.85 34.22 31.97 34.83 27.72 35.61 30.06 36.18 31.79 37.14 30.4 38.09 29.86 38.35 31.61 40.21 29.09 40.64 30.3 41.49 30.6 42.7 30.5 40.85 33.85 43.54 32.36 44.91 32.58 43.73 34.32 42.99 35.41 43.66 35.97 43.98 36.7"/><polygon class="cls-45" points="47.44 36.78 46.06 37.6 45.68 38.33 46.31 39.74 44.45 39.35 45.54 41.54 42.31 39.22 43.03 41.24 41.77 40.82 40.62 40.41 40.12 40.95 40.1 42.42 39.41 42.75 38.97 43.69 38.53 45.11 37.25 41.76 35.66 44.56 35.33 43.57 34.95 42.8 34.48 42.2 33.99 41.64 34.21 40.41 33.55 39.92 32.63 39.76 32.5 38.6 30.8 39.63 31.44 37.15 31.25 35.8 28.76 38.48 28.43 37.4 27.97 36.49 27.45 35.71 25.27 34.66 28.27 34.56 28.9 34.26 29.87 34.37 28.46 31.38 30.89 33.55 30.64 31.66 31.88 32.39 31.61 29.87 32.96 31.09 33.47 30.09 33.88 28.28 35.34 31.38 35.83 29.14 36.7 31.06 37.51 29.7 38.2 30.75 39.14 29.81 40.26 28.79 40.61 30.57 41.98 29.41 43.05 29.35 42.51 31.98 44.12 31.15 44.24 32.33 45.77 32.13 46.66 32.73 46.63 33.9 43.82 35.81 44.06 36.27 47.44 36.78"/><polygon class="cls-46" points="49.37 36.91 48.13 37.81 45.74 37.56 46.63 38.83 45.39 38.74 46.65 40.98 45.82 41.31 45.47 42.19 44.31 42 44.47 43.73 41.9 41.05 42.59 43.87 41.41 43.33 41.16 44.83 40.56 46.01 39.08 42.61 38.18 44.06 37.05 43.66 36.5 43 38.68 40.76 37.59 40.35 36.48 40.12 36.32 39.02 35.85 38.17 33.19 40.33 32.9 39.41 31.83 39.65 32.76 36.45 32.51 35.08 30.42 37.24 30.58 34.99 28.13 36.7 31.09 35.27 27.98 33.46 28.36 32.29 30.45 33.1 31.73 33.5 32.04 32.63 32.03 31.04 32.59 30.25 33.81 30.95 34.91 31.61 34.96 29.17 35.72 28.55 36.82 29.52 37.9 32.18 38.51 31.38 39.44 28.01 40.14 29.88 41.2 28.7 41.82 29.89 42.53 30.39 42.53 32.46 44.53 30.12 43.44 33.51 46.26 30.86 46.94 31.55 45.85 33.73 48.59 32.79 48.54 33.99 46.92 35.54 48.17 36.05 49.37 36.91"/><polygon class="cls-47" points="51.47 37.12 50.53 38.21 48.83 38.46 50.08 40.25 48.75 40.35 47.37 40.14 46.96 40.83 47.85 43.23 46.2 42.42 45.36 42.62 44 41.88 43.56 42.63 42.97 43.16 41.77 42.2 41.58 43.76 41.01 45.38 38.84 44.87 41.76 42.5 38.88 42.95 38.24 42.51 40.48 40.02 38.69 40.31 37.75 40.11 37.9 38.69 35.24 40.87 35.56 39.16 35.55 37.73 35.56 36.1 33.41 38.32 33.84 35.78 33.02 35.6 31.94 36.02 32.01 35.29 31.92 35.36 31.53 34.73 30.02 32.42 31.03 31.97 33.77 34.12 32.74 31.2 34.26 32.13 35.21 32.28 35.41 30.79 36.98 32.73 37.59 32.32 37.48 28.78 38.35 28.43 39.29 28.37 40.26 29.93 40.97 31.64 41.74 31.2 42.53 31.04 42.92 32.48 43.65 32.41 44.95 31.12 46.35 30.19 46.45 31.73 47.38 31.87 47.37 33.13 46.54 34.83 49.76 33.37 47.29 35.63 49.97 35.34 49.17 36.37 51.47 37.12"/><polygon class="cls-48" points="51.34 37.39 48.98 37.55 52.01 39.53 51.97 40.7 50.15 40.4 50.11 41.52 49.45 42.07 48.19 41.82 47.02 41.52 47.71 43.98 47.26 44.9 45.92 44.24 45.08 44.41 44.47 45.1 43.28 44.22 42.48 43.45 42.22 44.15 41.44 43.65 41.3 42.87 41.13 42.07 39.74 42.09 39.2 41.66 39.61 40.2 37.56 41.47 38.91 38.45 38.58 37.43 37.78 37.1 35.46 39.55 36.03 36.83 35.67 35.73 34.32 36.67 33.02 37.62 32.52 36.47 32.33 35.51 34.5 35.78 34.47 35.21 32.57 32.1 33.63 31.93 35.22 32.77 35.33 31.32 35.82 30.37 37.01 30.91 38.76 33.31 38.49 30.04 39.25 29.5 40.33 30.6 40.96 28.62 41.93 31 42.75 30.09 43.52 30.63 44.28 30.86 45.09 30.9 46.17 30.24 46.53 31.59 48.37 29.8 48.69 31.13 48.96 32.26 49.4 33.02 48.2 35.1 51.25 33.76 52.19 34.36 51.78 35.57 52.12 36.45 51.34 37.39"/><polygon class="cls-49" points="53.52 37.74 51.01 38.02 53.09 39.62 52.88 40.58 52.26 41.23 51.41 41.59 48.95 40.01 49.35 41.63 49.55 43.23 48.22 42.69 48.79 45.19 47.32 44.28 47.16 45.84 45.69 44.59 44.94 44.88 44.12 44.72 43.08 44.81 43 43.98 44.16 42.74 41.64 42.99 42.39 41.66 42.22 40.72 40.82 41 39.83 41.03 41.05 38.03 39.89 38.22 37.89 40.01 38.13 37.98 36.89 38.66 35.94 38.85 36.07 36.65 35.52 35.88 35.39 35.73 34.65 35.92 32.5 34.02 35.22 34.82 34.93 33.35 36.95 34.67 36.2 32.16 37.7 33.12 38.01 31.99 39.51 33.45 39.52 31.38 40.33 31.25 41.39 32.23 42.15 32.37 42.57 29.3 43.51 29.87 44.33 30.54 44.87 32.78 45.58 32.69 47.05 29.87 48.14 29.46 48.52 31.01 48.57 32.77 48.77 33.81 50.71 32.39 51.56 32.77 49.91 35.35 50.37 35.72 51.2 35.94 52.77 36.11 53.01 36.91 53.52 37.74"/><polygon class="cls-50" points="53.97 38.17 54.17 38.95 55.79 40.71 51.73 39.09 51.65 39.8 51.22 40.3 51.12 41.24 51.06 42.36 49.94 42.11 51.08 45.27 49.27 43.93 47.99 43.21 47.34 43.55 47.71 46.38 45.8 43.36 45.51 44.35 45.45 44.94 45.65 44.12 44.94 43.43 43.96 42.97 45.13 41.21 44.17 40.75 42.57 41.19 42.69 39.76 40.72 41.15 40.33 40.4 39.29 40.71 39.32 39.03 38.36 39.2 37.86 38.42 38.09 35.86 37.19 35.84 36.41 36.54 34.32 36.21 36.6 35.99 35.65 34.29 36.48 33.86 36.23 32.06 38.51 33.91 39.46 34.04 39.05 31.49 39.57 30.5 41.28 32.59 42.25 33.13 42.74 32.08 43.42 31.51 44.24 31.82 45 30.2 45.71 32.69 46.75 30.17 47.4 31.43 47.71 33.37 49.07 31.51 49.5 32.61 49.84 33.6 50.43 33.98 50.64 34.82 53.7 32.52 52.73 34.65 53.3 35.2 52.79 36.32 55.2 36.24 56.43 37.04 53.97 38.17"/><polygon class="cls-51" points="55.75 38.69 57 39.9 56.1 40.65 56.49 42.08 53.52 40.74 52.33 40.53 52.74 42.04 52.79 43.34 50.86 41.99 50.9 43.37 50.6 44.38 49.7 44.37 49.91 46.59 48.91 46.47 47.62 45.32 46.77 43.95 47.83 45.3 47.88 44.55 45.69 44.12 45.48 43.41 44.64 43.09 44.65 42.15 44.59 41.05 42.85 41.96 43.57 39.55 41.96 40.59 40.59 41.49 40.3 40.43 40.16 38.93 39.65 38.06 38.63 38.4 37.44 39.23 37.55 37.27 34.75 36.68 36.15 35.43 37.59 35.31 37.48 33.94 38.46 33.75 39.24 33.38 39.56 32.22 40.14 31.4 42.46 34.59 41.93 31.05 43.78 34.15 43.84 31.38 44.55 30.51 45.53 31.26 46.38 31.59 47.23 31.1 48.26 29.71 48.41 33.85 49.21 33.46 50.4 32.19 51.04 32.77 51.87 32.9 53.33 32.13 53.94 32.88 53.94 34.23 53.73 35.49 53.91 36.23 54.44 36.71 54.38 37.45 55.13 37.97 55.75 38.69"/><polygon class="cls-52" points="56.34 39.28 56.42 39.93 56.76 40.92 55.73 41.18 54.62 41.19 53.71 41.24 55.79 44.74 52.63 42.09 53.43 44.45 53.72 46.4 51.41 44.21 51.63 46.22 50.36 45.52 49.55 45.61 48.4 44.48 48.4 48.06 46.25 46.33 47.75 45.37 45.85 44.95 48 43.44 48.04 42.22 46.58 42.18 45.23 42.42 44.7 41.87 45.49 39.2 43.54 40.77 43.43 39.25 41.99 40.3 42.26 37.74 41.22 38.02 40.52 37.49 39.66 37.38 39.26 37.43 39.42 37.48 36.8 35.67 38.11 35.23 39.41 35.3 40.93 36.01 40.65 34.21 42.42 35.72 41.49 32.17 43.36 34.31 44.07 34.06 44.76 33.77 45.03 31.67 46.17 33.15 46.9 32.82 47.66 32.24 48.58 30.53 49.32 31.95 50.05 32.59 51.27 31.13 50.96 34.83 52.2 33.63 52.39 34.91 53.91 33.8 54.56 34.32 54.15 35.94 55.6 35.59 56.03 36.27 57.99 36.22 57.56 37.44 58.64 38.22 56.34 39.28"/><polygon class="cls-53" points="56.71 39.97 59.13 41.1 55.7 40.38 58.37 42.98 57.78 43.7 56.11 43.24 54.77 42.87 54.32 43.49 54.29 44.75 54.25 46.15 51.98 43.94 52.61 46.62 50.84 44.84 50.72 46.39 50.56 48.35 49.58 49.17 48.12 46.88 47.66 46.08 46.99 45.55 49.5 44.01 46.6 44.74 48.15 42.53 47.01 42.47 45.2 43.56 45.69 41.46 44.28 42.29 43.26 42.63 43.47 40.39 42.78 39.91 42.19 39.17 41.82 37.77 40.48 38.98 38.36 40.22 39.6 38.11 40.92 38.09 39.2 35.86 39.55 34.81 40.37 34.33 42.07 35.34 42.53 34.52 44.33 36.37 44.01 33.82 44.46 32.65 45.85 34.25 46.35 33.06 47.18 32.98 47.96 32.5 48.81 33.08 49.74 31.11 50.68 31.08 51.6 31.24 52.15 32.84 52.29 35.01 54.01 32.8 54.6 33.61 53.81 36.45 54.29 36.82 55.83 36.08 55.22 37.57 59.04 35.74 57.96 37.47 56.37 38.87 57.33 39.28 56.71 39.97"/><polygon class="cls-54" points="61.11 40.74 56.95 40.88 58.21 41.98 57.43 42.29 58.41 44.13 56.75 43.62 57.62 45.83 55.38 44.33 54.07 43.77 53.52 44.22 53.54 45.66 54.25 48.58 52.84 47.69 51.08 45.66 51.02 47.49 50.18 46.54 50.05 47.66 48.54 46.77 50.96 45.84 47.79 45.92 50.15 43.83 47.04 45.37 47.59 43.85 47.77 42.27 46.72 42.34 47.04 40.03 45.4 41.29 43.7 43.05 43.42 41.7 43.21 40.01 42.5 39.49 41.86 38.74 41.67 38.58 39.49 38.87 40.11 37.81 42.38 38.62 43.15 38.61 42.06 36.04 43.34 36.52 44.56 37.15 43.49 33.27 46.01 36.93 46.11 35.17 46.81 34.82 47.72 35.3 48.09 33.08 49.08 34.31 49.84 32.59 50.66 33.5 51.66 32.2 52.1 34.7 53.2 33.51 54.32 32.88 53.75 36.54 54.53 36.44 55.22 36.62 57.5 34.8 56.55 37.17 56.57 38.06 58.52 37.53 57.92 38.76 57.12 39.73 57.42 40.2 61.11 40.74"/><polygon class="cls-55" points="61.97 41.62 61.69 42.97 61.26 44.07 59.59 44.14 59.32 45.04 58.92 45.88 57.07 45.02 55.92 44.77 57.23 47.93 54.99 46.04 55.73 48.79 54.74 48.77 53.86 48.89 51.95 46.55 52.28 49.58 51.2 48.8 49.72 48.36 49.21 47.58 52.84 46.83 52.38 45.65 50.73 45.25 48.6 45.94 50.32 43.2 48.94 43.51 49.02 41.88 46.64 44.32 47.17 41.71 46.95 40.21 45.95 40.4 43.85 43.47 44.29 40.13 42.48 42.87 41.98 41.95 41.4 40.73 39.43 39.76 40.17 38.21 40.91 37.35 42.38 37.56 44.52 39.12 44.93 38.54 45.54 38.21 45.54 36.58 46.87 37.76 46.86 35.67 47.92 36.43 47.83 32.9 48.88 33.41 49.98 35.41 50.73 33.24 51.45 35.91 52.53 33.19 52.83 36.38 53.48 36.65 54.15 36.82 55.45 35.52 56.41 35.45 56.23 37.31 58.73 35.23 58.03 37.42 59.2 37.47 57.52 39.64 58.97 39.55 58.45 40.46 60.72 40.7 61.97 41.62"/><polygon class="cls-56" points="58.99 42.59 61.3 43.59 58.36 42.99 60.17 44.99 57.97 44.09 58.15 45.25 57.58 45.73 57.33 46.64 57.47 48.21 57.34 49.56 55.25 47.73 55.88 50.53 53.52 47.72 54 50.68 53.02 50.62 51.95 50.09 50.19 49.19 52.01 48.78 53.59 47.89 51.73 47.08 52.31 45.79 51.53 45.12 49.33 46.18 50.15 43.95 48.31 45.27 47.27 45.65 46.85 44.93 47.13 42.52 46.92 40.87 45.91 41.12 43.98 44.1 43.99 41.67 43.41 40.8 42.4 41.41 40.32 40.77 42.2 39.94 42.18 38.81 42.14 37.38 43.3 37.36 43.59 36.17 44.59 36.09 45.47 35.88 47.6 38.72 46.94 34.81 47.94 35.01 49.37 37.25 49.9 36.03 50.71 36.23 51.47 34.84 52.15 37.52 52.96 36.58 53.87 35.83 54.98 34.8 55.93 34.78 55.72 37.59 57.36 36.03 57.76 37.05 57.73 38.44 58.99 38.16 58.89 39.33 59.97 39.49 59.47 40.64 58.85 41.54 62.69 41.48 58.99 42.59"/><polygon class="cls-57" points="60.52 43.66 62.02 44.71 61.35 45.44 59.85 45.38 61.2 47.64 58.41 45.99 59.12 47.97 59.01 49.19 56.82 47.54 57.28 49.66 55.44 48.17 55.27 49.45 53.82 48.27 54.57 51.79 53.84 52.49 52.68 52.54 52.54 50.71 53.21 50 53.65 49.03 51.95 48.26 51.29 47.8 50.17 47.9 51.21 45.91 51.26 44.41 50.5 43.88 49.24 44.32 48.23 44.52 47.98 43.09 47.15 42.89 45.41 45.24 44.84 44.54 44.42 43.27 43.94 42.08 42.52 43.09 43.44 41.79 44.54 42.03 43.84 40.88 43.41 39.27 44.91 39.9 45.76 39.82 45.09 37.01 46.35 37.58 47.2 37.45 48.38 38.27 48.67 36.58 49.52 36.5 50.47 37.04 51.41 38.55 52.05 36.11 52.72 38.81 53.58 37.38 54.03 39.08 55.25 37.03 56.17 36.85 57.6 35.66 57.28 38.36 57.49 39.45 57.89 40.06 59.29 39.53 60.51 39.53 59.79 41.06 60.91 41.3 63.05 41.48 61.83 42.78 60.52 43.66"/><polygon class="cls-58" points="63.65 44.84 63.67 46.3 60.58 45.94 61.09 47.2 61.02 48.27 59.1 47.48 60.24 50.02 59.02 49.86 58.59 50.71 57.58 50.7 56.2 49.99 55.86 51 55.76 52.61 53.62 49.85 53.19 50.64 52.79 51.57 51.48 51.36 51.37 50.6 51.19 50.03 52.76 49.36 53.78 47.94 50.77 49 51.84 46.97 50.53 47.31 50.42 46.01 49.3 46.35 49.59 43.84 48.12 45.04 47.66 43.93 46.48 44.75 45.6 44.85 44.73 44.91 44.73 41.97 42.6 44.76 43.02 43 41.54 41.26 44.78 42.56 44.57 41.34 46.1 42.17 46.6 41.7 46.91 40.8 46.42 38.03 47.88 39.27 47.93 37.04 49.76 40 49.58 36.17 50.83 37.84 51.77 39.13 52.47 37.13 53.18 39.42 53.9 39.37 54.87 38.11 55.7 38.13 56.22 39.12 57.75 37.49 57.02 40.81 57.64 41.05 59.95 39.14 60.77 39.61 58.93 42.4 61.26 41.56 59.69 43.27 60.56 43.57 63.01 43.84 63.65 44.84"/><polygon class="cls-59" points="63.25 46.13 63.93 47.6 60.06 46.78 61.01 48.24 60.96 49.29 61.13 50.72 58.06 48.39 59.49 51.48 57.14 49.57 57.39 51.34 56.32 51.11 55.24 50.74 55.4 52.73 53.78 51.03 53.15 51.2 53.13 53.78 52.41 52.88 51.61 51.8 51.15 51.19 51.64 50.88 52 50.31 50.99 50.38 51.58 48.94 50.16 49.62 51.2 46.54 49.52 47.86 48.41 48.4 48.86 45.28 47.03 47.74 46.27 47.53 45.81 46.37 45.09 45.93 43.83 47.43 44.71 43.53 44.55 44.2 45.13 44.46 45.6 44.39 45.47 43.42 44.91 41.45 44.85 39.76 46.76 41.36 46.84 39.7 47.53 39.12 49.18 41.15 48.92 37.68 50.33 39.58 50.81 37.59 52.12 41.45 52.72 40.22 53.4 41.21 54.28 39.63 54.93 40.34 55.95 39.4 56.69 39.76 57.25 40.5 58.51 39.77 59.23 40.26 60.51 40.02 60.58 41.35 61.04 42.12 59.25 44.32 62.35 43.4 60.21 45.05 59.99 45.64 63.25 46.13"/><polygon class="cls-60" points="63.31 47.47 60.84 47.9 62.23 49.34 61.37 49.82 61.51 51.08 59.15 49.89 60.25 52.3 59.15 52.29 57.91 51.97 57.7 53.09 56.43 52.58 55.14 51.85 55.7 54.59 55.03 55.18 54.25 55.67 53.13 54.07 53.04 54.47 54.61 54.32 52.67 52.76 51.78 52.26 52.69 51.61 52.02 51.33 53.28 49.16 51.96 49.35 50.71 49.8 49.88 49.81 50.53 46.72 48.54 49.23 48.66 46.81 47.59 47.38 47.03 46.52 45.68 48.22 45 47.78 44.7 45.86 44.28 45.53 42.28 45.74 41.84 43.92 45.19 45.3 44.49 43.53 45.89 44.09 45.13 41.45 46.66 42.41 47.8 42.94 48.35 42.29 48.9 41.52 49.68 41.34 49.95 39.06 51.41 42.08 52.13 42.21 52.79 40.92 53.67 39.25 54.23 41.87 54.92 42.11 56.24 39.9 56.01 43.26 58.12 39.99 58.39 41.47 59.62 41.09 60.32 41.7 60.57 42.77 61.69 42.97 61.8 44.04 61.24 45.3 60.12 46.44 62.1 46.66 63.31 47.47"/><polygon class="cls-61" points="60.06 48.73 63.66 50.12 60.24 49.53 60.95 50.84 61.07 52.03 60.31 52.48 59.43 52.73 58.06 52.28 58.3 53.95 56.94 53.37 57.66 56.09 56.71 56.19 56.27 57.26 55.32 57.4 53.53 55.08 53.05 56.7 52.57 55.56 53.34 55.06 54.85 54.59 54.98 53.36 53.22 52.67 53.06 51.85 53.43 50.3 52.07 50.49 50.59 51.31 51.41 48.18 49.36 50.49 48.34 51 48.87 47.42 46.92 50.54 46.11 50.63 45.67 49.43 45.47 47.12 44.03 49.52 43.35 48.08 42.91 46.96 42.08 45.39 44.12 45.68 44.71 45.18 45.06 44.33 45.26 43.08 46.85 44.21 46.3 41.24 47.45 41.6 49 43.31 49.89 43.6 50.52 43.07 51.1 42.02 51.85 41.37 52.71 40.23 53.53 41.45 54.57 39.87 54.87 43.18 55.92 42.06 57.12 41.09 56.98 43.71 58.73 41.93 59.37 42.62 60.66 42.42 59.29 45.3 61.7 44.15 61.43 45.49 60.37 46.95 63.33 46.67 60.71 48.13 60.06 48.73"/><polygon class="cls-62" points="63.59 50.02 62.5 51.1 61.55 51.69 62.38 53.4 59.88 52.43 61.14 54.9 59.75 54.68 57.57 53.23 56.92 53.62 57.07 55.24 57.22 57.05 55.62 55.95 54.28 55.04 53.64 55.37 53.37 56.66 52.85 59.1 51.64 56.43 52.55 56.03 53.04 55.43 51.71 54.67 52.57 54.13 53.56 52.73 52.68 52.26 51.75 52.06 50.6 52.4 49.52 52.88 49.25 51.77 49.36 49.42 47.95 50.83 47.04 51.08 46.09 51.49 45.45 50.9 44.99 49.55 43.75 51.24 43.69 48.53 45.12 47.88 42.61 47.1 42.63 45.8 45.59 47.79 45.76 46.92 45.1 44.47 46.68 45.59 47.04 44.55 46.95 42.21 48.86 44.81 49.34 43.76 49.96 42.9 50.67 42.01 51.5 41.12 52.5 41.55 53.41 41.43 54.25 42.02 55 42.74 55.83 42.92 55.89 45.33 58.06 42 57.3 45.52 58.19 45.42 59.3 45.18 61.38 44.17 60.58 46.21 61.99 46.28 61.41 47.63 62.94 48.01 60.18 49.47 63.59 50.02"/><polygon class="cls-63" points="60.01 51.32 60.13 51.71 61.63 53.24 61.57 54.35 59.53 53.72 60.37 55.76 58.7 55.14 57.51 54.91 56.68 55.09 57.39 57.59 55.51 56.11 55.87 58.36 55.57 59.67 54.59 59.74 53.79 60.33 52.47 60.3 52.44 58.38 52.6 57.52 51.15 56.13 54.33 56.08 50.91 55.81 50.91 55.64 53.27 52.73 52.91 51.5 50.54 53.43 49.61 53.56 48.85 53.42 48.12 53.23 47.19 53.59 47.4 50.35 46.95 48.86 45.58 50.67 44.4 51.99 43.9 50.59 43.91 48.89 44.07 49.26 44.4 49.57 42.55 47.35 44.1 47.73 44.07 46.31 45.91 47.66 46.73 47.62 46.22 44.82 46.88 44.16 47.45 43.12 49.52 46.8 49.25 42.63 50.68 45.36 51.27 43.59 52.17 44.19 52.85 46.31 53.73 44.79 54.5 44.92 55.22 45.22 55.45 46.92 56.48 46.19 58.52 43.88 57.73 46.91 57.82 47.95 60.65 45.89 59.68 47.98 60.4 48.39 61.59 48.68 61.75 49.58 59.59 50.8 60.01 51.32"/><polygon class="cls-64" points="62.95 52.61 61.96 53.79 61.35 54.65 60.89 55.48 58.03 54.03 58.09 55.1 59.29 57.72 58.42 58.04 57.62 58.42 57.46 59.75 54.91 57.22 55.67 60.19 54.03 58.87 53.05 58.62 53.02 60.82 51.84 58.7 52.3 59.91 51.21 58.25 52.61 58.21 50.72 57.09 52.85 56.65 52.59 55.89 51.15 56.1 51.63 54.6 51.02 54.08 50.55 53.25 50.3 51.81 48.3 54.45 47.56 54.33 47.91 50.87 47.01 50.95 45.93 51.8 44.81 53 44.4 51.34 43.61 51.22 43.62 49.85 41.39 50.99 42.24 49.95 41.25 47.87 43.34 48.67 42.85 46.53 44.02 46.61 44.68 45.95 46.5 47.69 47.39 47.8 47.95 47.11 49.06 48.09 49.75 47.93 50.05 45.58 50.93 46.03 51.72 46.7 52.38 47.91 53.03 48.02 53.89 47.02 54.97 45.77 55.44 46.95 56.69 45.95 57.85 45.59 58.79 45.86 58.18 48.21 58.23 49.25 58.5 49.9 58.38 50.72 59.46 50.78 58.66 51.7 60.33 51.91 62.95 52.61"/><polygon class="cls-65" points="59.67 53.9 58.34 54.01 58.07 54.3 58.82 55.59 60.05 57.79 58.52 57.49 57.4 57.44 58.29 59.95 55.67 57.75 56.22 60.05 55.7 60.84 53.24 58.15 53.06 59.44 53.32 61.92 52.81 63.26 51.25 60.4 50.83 60.55 50.56 59.41 50.56 58.75 50.27 58.3 54.36 57.7 51.75 57.37 51.02 57.09 50.34 56.92 49.39 57.19 48.86 56.86 49.83 53.07 47.53 56.49 47.23 55.2 46.92 53.67 45.69 55.05 45.21 53.85 44.64 52.84 43.28 55.22 43.2 51.8 41.36 54.24 41.99 52.02 43.41 52.17 41.23 49.68 43.41 50.73 44.11 50.44 44.75 50.05 45.48 49.8 45.86 48.84 45.55 46.01 47.27 48.09 47.8 47.07 48.58 46.69 49.33 45.96 50.27 46.28 51.15 47.23 51.98 46.56 52.64 47.96 53.62 46.81 54.67 46.09 55.16 47.4 56.15 47.18 55.66 49.96 56.3 50.15 56.82 50.52 58.65 49.5 60.73 48.83 58.91 51.29 59.39 51.83 59.73 52.48 61.21 52.98 59.67 53.9"/><polygon class="cls-66" points="59.65 55.16 59.84 56.04 58.46 56.21 57.33 56.2 57.77 57.53 56.27 57.03 56.17 58.05 55.84 58.89 56.35 61.02 55.16 60.76 55.09 62.28 53.73 61.61 52.18 60.37 51.35 60.35 51.97 64.17 50.53 61.68 50.59 62.15 52.6 62.63 50.13 60.06 50.56 59.7 52.02 59.19 50.14 59.1 50.68 58.17 50.94 56.78 49.97 56.68 50.16 54.57 48.1 56.91 47.38 56.69 47.04 55.33 45.59 57.32 45.97 53.11 44.26 56.42 44.26 52.96 43.55 52.27 41.97 55.92 41.43 54.15 41.39 53.26 40.13 52.07 42.24 52.52 41.05 50 43.14 51.31 42.64 48.97 45.15 51.73 44.71 49.1 45.77 49.44 45.99 47.64 46.77 47.16 47.64 46.84 49.21 50.47 49.57 47.34 50.48 49.97 51.36 47.04 51.99 49.03 53.26 46.5 53.1 50.69 53.7 50.95 54.53 50.63 54.96 51.27 57.1 49.11 57.62 49.89 57.98 50.77 59.77 50.34 57.29 53.17 61.2 51.91 59.72 53.53 61.31 54.12 59.65 55.16"/><polygon class="cls-67" points="57.41 56.4 58.37 57.03 57.51 57.34 59.26 59.64 56.45 58.26 55.63 58.44 56.34 60.48 55.42 60.64 55.99 62.91 53.2 60.18 53.97 62.99 52.06 61.28 52.2 63.29 51.85 64.59 51.08 65.19 49.72 63.25 50.46 63.94 49.37 61.99 49.38 61.23 51.69 61.46 52.41 60.41 49.81 60.15 50.33 59.14 50.52 57.73 49.87 57.02 47.95 58.78 48.21 56.36 46.57 58.27 45.83 58.13 45.29 57.24 44.71 56.31 43.48 57.94 43.6 53.78 42.08 56.98 41.39 56.29 40.64 55.46 41.09 54.34 41.79 54.58 40.6 52.97 42.22 53.59 40.96 50.54 43.06 52.2 43.05 50.51 45.01 52.66 44.09 48.52 45.17 48.8 46.52 50.14 47.71 51.65 48.19 50.28 48.75 48.11 49.71 50.39 50.4 51.27 51.41 48.79 52.34 48.46 52.85 49.98 53.05 51.82 53.91 51.52 55.19 50.61 55.18 52.13 55.07 53.4 56.05 53.21 58.09 52.33 58.57 53.06 58.62 54.01 57.55 55.2 60.3 55.39 57.41 56.4"/><polygon class="cls-68" points="59.38 57.59 59.48 58.95 56.14 58.23 57.38 60.02 55.45 59.33 55.94 60.97 55.89 62.23 54.55 61.87 54.85 63.78 53.7 63.61 52.65 63.51 52.22 64.45 51.16 64.26 50.01 63.71 49.4 64.26 48.85 66.31 49.21 64.83 49.59 64.09 49.52 63.08 48.4 61.86 48.52 61.65 49.88 61.16 50.15 60.23 50.79 58.36 47.64 61.02 48.93 57.53 47.1 59.35 46.88 57.94 45.47 59.57 45.86 55.86 45.07 55.54 43.71 57.56 43.35 55.59 42.1 57.62 41.11 58.63 41 54.87 40.09 55.98 37.85 56.33 37.95 54.27 38.94 53.46 41.21 54.64 41.03 53.11 42.9 54.6 42.21 51.78 42.61 50.62 43.97 51.56 45.22 52.59 46.07 52.79 46.28 50.52 47.19 50.77 47.97 50.32 48.83 49.5 49.7 49.61 50.51 50.13 51.54 49.28 51.98 51.15 52.89 50.95 53.62 51.35 53.6 53.15 54.1 53.63 56.66 51.44 57.03 52.46 55.36 55.09 55.47 55.71 56.21 55.94 57.95 55.99 59.57 56.56 59.38 57.59"/><polygon class="cls-69" points="57.38 58.73 56.38 59.27 55.41 59.44 55.91 60.59 55.96 61.67 56.08 62.98 53.7 61.44 54.49 63.69 52.11 61.72 52.25 63.23 51.95 64.21 52.45 66.65 50.83 65.43 49.6 64.73 49.76 66.99 48.56 66.22 47.68 67.18 49.17 66.88 49.27 65.8 49.61 64.92 48.14 63.22 47.7 62.72 47.71 62.6 47.55 62.5 49.9 59.57 47.41 61.28 48.09 58.63 47.25 58.29 45.11 61.38 44.84 60.02 43.86 60.65 44.03 57.16 43.32 56.57 42.35 57.08 41.57 56.79 40.46 58.31 39.4 59.77 38.49 58.56 38.47 56.92 39.64 56.77 39.49 56.02 39.63 55.07 41.22 55.96 41.92 55.75 40.66 51.84 41.91 52.35 43.06 52.88 43.95 52.92 44.94 53.41 45.66 53.14 46.43 53.15 47.21 53.6 47.86 53.47 48.63 52.4 49.35 52.81 50.61 50.2 51.3 51.23 52.27 51.09 52.59 52.66 52.39 54.74 54.16 53.19 55.47 52.86 56.38 53.27 56.08 54.81 55.53 56.18 58.3 55.61 57.29 57.04 58.4 57.73 57.38 58.73"/><polygon class="cls-70" points="54.96 59.81 54.57 60.09 57.4 62.38 55.11 61.89 55.73 63.57 53.38 62.3 52.3 62.14 52.53 63.61 51.31 63.21 50.37 63.12 50.67 64.99 49.61 64.69 49.45 66 48.61 66.05 47.43 65.24 47.02 66.03 46.79 65.57 46.46 66.36 48.17 66.87 48.95 66.29 49.12 65.23 50.03 64.34 48.9 63.2 48.18 62.58 46.4 63.31 46.35 62.54 47.47 59.12 45.09 62.07 45.59 58.72 43.82 61.29 43.12 61 42.29 61.1 41.39 61.59 41.35 58.04 40.42 58.48 39.9 56.7 38.77 58.42 37.47 59.63 38.16 57.68 38.7 57.91 38.15 56.86 39.26 57.01 38.68 54.92 39.14 53.99 39.94 53.59 40.44 52.57 41.31 52.28 43.18 54.82 43.3 52.56 43.94 51.49 45.29 53.77 45.94 52.54 46.8 51.03 47.65 52.16 48.35 53.41 48.79 55.19 49.54 54.92 50.5 54.23 51.77 53.17 51.47 55.58 52.48 55.24 52.36 56.57 52.96 56.83 54.81 56.07 55.83 56.37 57.37 56.63 54.79 58.58 57.29 58.82 54.96 59.81"/><polygon class="cls-71" points="53.03 60.82 53.97 61.29 55.45 62.91 54.39 63.26 52.52 62.59 52.06 63.13 51.27 63.31 52.99 66.81 52.12 67.07 50.07 65.47 48.7 64.71 49.44 67.5 48.5 67.45 47.93 68.12 47 68.01 45.98 67.51 45.52 67.65 44.8 66.8 47.84 68.67 48.19 67.61 46.45 65.43 49.26 65.48 47.93 64.22 46.13 64.19 47.16 62.49 47.27 60.75 44.4 63.9 45.13 60.66 44.26 60.47 43.65 59.57 42.83 59.29 41.31 61.8 41.05 59.36 39.83 61.16 39.57 58.08 38.14 61.46 37.51 60.31 37.42 58.01 34.58 59.82 34.54 57.47 37.19 58.06 38.68 58.73 37.33 55.66 39.73 57.93 39.64 56.24 39.21 53.42 41.59 56.78 41.17 53.41 42.53 54.84 43.63 55.98 44.05 54.21 45.05 56.13 45.66 53.63 46.44 54.26 47.44 52.64 47.65 56.17 49.06 53.44 48.93 56.47 50.55 54.37 51.08 55.17 52.51 54.42 51.53 57.18 53.35 56.23 52.83 57.78 54.38 57.58 53 59.19 53.35 59.68 54.26 60.13 53.03 60.82"/><polygon class="cls-72" points="51.61 61.75 53.77 62.59 51.84 62.36 52.93 64 50.87 63.12 52.64 66.09 50.41 64.71 50.11 65.56 50.66 67.72 50.21 68.57 47.99 66.54 47.57 67.36 46.07 66.2 45.44 66.54 46.23 70.12 44.65 68.31 43.88 70.56 44.66 68.89 45.5 68.59 44.05 66.28 44.93 66.23 47.87 66.7 48.14 65.4 48.04 63.94 47.6 62.56 46.49 61.99 43.75 64.6 44.43 61.74 42.53 64.2 42.44 62.37 41.34 63.34 40.98 61.81 39.83 63.31 39.16 62.87 38.72 61.13 37.58 63.08 37.31 59.87 36.48 60 36.35 58.49 35.71 59.6 35.03 59.24 37.09 60.05 36.4 58.41 35.75 56.09 37.57 57.32 37.32 55.09 37.94 54.27 39.55 55.75 40.55 56.08 41.64 56.89 42.1 55.63 42.59 53.79 43.52 53.93 44.44 55.22 45.2 55.46 46 55.23 46.89 54.76 47.08 57.23 47.87 56.93 49.41 55.11 49.16 57.41 51.71 54.7 50.43 57.95 50.84 58.51 52.81 57.7 54.24 57.8 51.95 60.04 53.89 60.05 54.37 60.85 51.61 61.75"/><polygon class="cls-73" points="50.45 62.59 52.47 63.43 53.78 65.24 52.21 65.34 50.58 64.95 51.23 66.84 49.78 66.41 48.57 66.11 49.54 68.88 48.73 69.19 46.88 67.75 46.02 67.82 44.85 67.28 44.2 67.61 44.03 69.02 43.01 68.34 42.25 71.84 42.01 68.18 42.44 67.6 44.93 68.93 44.47 67.54 44.24 66.68 43.91 66.19 46.13 65.11 45.14 64.49 43.62 64.98 42.95 64.81 42.7 63.73 41.68 64.21 40.82 64.47 40.5 62.96 39.7 62.9 39.2 61.56 38 63.37 37.08 64.11 37 59.91 36.1 60.27 35.2 60.8 34.97 59.49 32.17 61.69 32.91 59.71 34.29 59.52 34.29 58.28 34.84 57.51 36.54 58.63 36.69 57.23 36.96 55.82 38.39 56.94 39.53 57.72 39.8 55.95 40.67 55.97 41.81 57.67 42.46 57.17 43.14 57.9 43.97 55.23 44.69 56.19 45.37 56.73 46.26 56.27 47.03 56.44 47.99 56.22 49.55 55.05 49.38 57.14 48.99 58.98 50.29 58.56 49.86 59.92 52.96 58.63 52.4 60.04 52.26 60.99 50.17 62.13 50.45 62.59"/><polygon class="cls-74" points="53 63.32 52.71 64.77 48.77 63.67 51.66 66.78 49.45 65.95 49.31 66.98 47.07 65.5 48.88 69.16 46.15 66.7 45.67 67.35 45.8 69.05 43.92 67.34 44.23 69.52 43.92 70.7 43.59 72.01 42.65 72.14 42.03 69.48 42.05 70.53 41.16 68.37 41.83 68.09 41.88 67.38 44.85 68.2 44.89 67.06 42.63 66.64 45.23 64.17 44.23 63.4 41.4 66.08 42.01 63.25 41.54 62.04 40.45 62.47 38.91 64.8 38.42 63.65 37.55 63.9 36.6 64.66 36.46 60.92 35.06 64.42 34.68 61.48 33.67 62.88 32.21 64.16 33.18 61.03 30.9 60.18 32.64 60.03 32.31 58.29 33.08 57.7 34.06 57.53 34.46 56.35 35.51 56.4 37.8 59.61 38.03 58.11 38.7 57.62 39.45 57.34 40.38 58.01 41.02 57.19 41.78 57.44 42.67 54.94 43.21 57.81 43.96 57.68 45.08 56.31 45.11 58.78 45.65 59.19 46.99 58.03 48.56 57.02 48.51 58.57 49.92 58.25 48.48 60.67 51.1 59.69 49.14 61.68 50.72 61.78 49.19 62.81 53 63.32"/><polygon class="cls-75" points="48 63.95 50.75 65.21 49.19 65.49 47.78 65.36 48.91 67.5 46.64 66.22 46.25 66.92 45.31 66.93 45.23 68.13 44.06 67.75 44.05 69.21 43.73 70.27 43.45 71.49 42.79 72.06 41.59 71.46 41.08 72.56 40.27 70.99 39.72 70.08 39.76 68.97 42.54 70.66 42.31 69.27 41.61 67.98 44.58 67.86 43.15 66.67 42.98 65.57 42.34 64.76 41.27 64.67 40.12 65.12 39.42 64.76 38.84 63.93 37.81 64.59 37.2 63.71 36.53 62.9 35.22 65.4 34.47 65.12 34.1 62.28 33.23 62.43 32.24 63.64 31.3 63.57 32.54 60.84 30.02 61.34 31.42 61.12 31.46 60.06 31.91 59.29 32.58 58.81 33.67 59.07 34.05 58.08 34.76 57.69 36.01 58.65 36.19 56.82 37.55 58.57 38.5 59.48 38.74 56.93 39.48 56.24 40.34 55.94 41.06 58.35 42.05 56.28 42.95 56.15 43.48 57.54 44.94 55.74 44.56 59.02 45.72 58.36 47.54 57 46.63 59.77 47.37 60.05 47.69 60.75 48.02 61.39 50.08 61.16 50.62 61.99 51.56 62.84 48 63.95"/><polygon class="cls-76" points="48.65 64.45 49.76 65.92 46.34 65.11 45.66 65.33 45.67 66.25 44.76 66.3 43.99 66.49 43.53 67.07 43.45 68.26 44.43 71.25 43.61 71.57 41.73 69.96 40.74 69.77 39.73 69.45 40.02 71.94 39.54 73.1 40.19 71.25 39.49 72.15 40.3 71.8 39.53 69.8 40.35 69.53 41.33 69.23 43.5 68.89 39.6 67.76 39.69 67.63 40.98 65.82 40.02 65.67 39.65 64.67 39.33 63.19 37.38 66.11 37.02 64.77 35.92 65.94 35.97 62.31 34.55 65.17 33.96 64.08 33.25 63.51 32.7 61.75 31.71 62.96 31.05 61.66 30 63.49 29.7 62.53 29.4 62.12 28.16 60.18 31.59 62.44 31.25 60.98 32.33 61.33 31.2 57.83 31.95 57.38 32.96 57.51 34.21 58.39 35.16 58.73 35.82 58.27 36.73 58.77 37.22 57.3 38.2 59.09 38.85 59.03 39.67 57.15 40.64 56.08 41.26 57.62 41.6 59.5 42.8 58.13 43.65 58.18 43.61 60.03 45.76 57.94 46.09 59.04 47.29 59.06 47.16 60.44 46.55 61.87 46.9 62.47 46.09 63.44 47.23 63.78 48.65 64.45"/><polygon class="cls-77" points="48.63 64.81 45.33 65.18 47.15 67.04 44.9 66.39 46.13 68.69 43.39 66.91 43.12 67.75 43.64 69.78 42.86 70.11 42.91 71.76 39.98 68.51 39.62 69.41 40.55 72.85 38.8 71.23 38.01 71.38 36.81 70.27 34.74 72.07 36.68 70.9 39.11 72.61 39.47 71.64 38.36 69.49 37.86 68.42 39.75 68.67 41.16 67.81 38.23 67.96 39.94 65.8 39.78 64.26 37.98 65.5 37.37 64.84 36.88 63.7 36.01 63.56 35.27 63.06 34.38 63.15 32.92 66.39 32.21 66.05 31.76 63.81 30.87 64.42 29.88 65.94 29.26 64.37 28.96 62.14 26.98 64.08 28.63 62.72 29.06 62.59 28.67 61.27 28.14 59.22 29.52 59.7 30.56 59.89 30.84 58.68 31.35 57.78 32.1 57.34 32.73 56.53 34.17 58.3 35.32 59.77 36.05 59.95 36.37 56.39 37.3 58.4 38.17 56.81 38.81 58.63 39.67 58.2 40.79 57.11 40.81 59.76 41.37 60.23 42.01 60.48 44.47 57.91 44.22 59.82 45.3 59.89 45.88 60.58 46.76 61.09 47.19 61.96 44.55 63.81 46.96 63.95 48.63 64.81"/><polygon class="cls-78" points="45.13 65.04 44.37 65.66 45.52 67.27 43.28 66.61 43.49 67.88 43.31 68.94 41.9 68.5 40.25 67.56 40.37 69.08 40.14 70.19 39.18 70.17 39.42 72.24 37.42 70.25 37.58 72.35 36.68 72.39 35.84 72.48 33.47 71.84 36.64 73.2 36.03 71.06 35.44 69.32 35.8 68.83 36.72 68.85 40.46 69.66 38.63 68.13 39.01 66.99 36.65 67.88 36.46 67.28 37.41 63.89 36.05 64.65 35.36 63.96 33.96 65.75 33.32 65.07 33.04 62.44 31.55 65.84 31.05 63.98 29.98 65.68 29.55 62.74 28.34 66.03 27.62 65.24 27.38 62.27 25.96 63.75 28.09 63.22 24.91 60.75 27.81 62.38 28.52 62.22 29.07 61.83 28.04 58.48 29.43 59.33 30.58 59.94 30.93 58.72 31.34 57.42 32.72 59.08 33.55 59.29 34.02 57.63 34.93 58.39 35.7 57.14 36.49 58.26 37.55 56.2 38.24 57.57 38.69 59.16 39.44 59.31 40.93 57.77 41.98 57.75 41.35 60.5 42.64 60.02 42.8 61.06 43.84 61.18 44.47 61.77 43.46 63.21 45.74 63.16 45.95 64.09 45.13 65.04"/><polygon class="cls-79" points="43.23 65.12 41.98 65.44 41.26 65.6 41.87 66.91 41.97 68.12 39.96 67.04 40.2 68.55 39.6 69.08 38.49 68.87 37.34 68.51 36.7 68.91 36.79 70.64 36.54 71.9 35.38 71.42 35.67 74.06 33.84 71.76 32.95 72.25 34.37 72.45 33.82 70.47 36.45 72.33 35.79 70.43 38.18 71.19 37.28 69.44 37.11 68.46 37.61 67.44 38.26 65.57 35.7 66.76 35.87 64.96 34.16 66.63 33.6 66.08 33.13 65.04 31.88 66.75 31.34 65.83 31.14 62.89 30.3 62.89 29.31 64 28.55 63.69 27.95 61.97 26.71 65.91 26.25 62.56 25.69 62.46 24.97 63.09 23.07 62.46 24.59 61.94 25.66 61.91 26.73 62.13 26.6 60.6 27.29 60.22 27.39 58.63 27.83 57.51 30.17 61.12 29.61 57.26 31.37 60.26 31.73 58.67 32.69 59.68 33.05 56.05 34.05 56 34.95 56.54 35.88 56.5 36.46 58.28 37.58 57.26 38.69 56.8 39.12 58.23 38.91 60.51 40.32 59.61 39.75 61.69 42.1 60.14 43.32 60.31 41.43 62.76 43.87 62.29 43.79 63.33 44.84 64.08 43.23 65.12"/><path class="cls-80" d="M56.72,46.65c0,14.71-10.48,26.63-23.41,26.63S9.89,61.36,9.89,46.65s10.62-3.72,23.55-3.72S56.72,32,56.72,46.65Z"/><path class="cls-81" d="M53.76,48.7c0,3.93-6.73,7.68-10.28,7.68s-2.57-3.75-2.57-7.68,2.88-7.1,6.43-7.1S53.76,44.78,53.76,48.7Z"/><ellipse class="cls-82" cx="50.14" cy="45.48" rx="1.73" ry="1.98"/><path d="M52.73,47.84c0,3.29-6,6.43-9.24,6.43s-2.31-3.14-2.31-6.43a5.78,5.78,0,1,1,11.55,0Z"/><ellipse class="cls-82" cx="44.66" cy="44.59" rx="1.56" ry="1.66"/><ellipse class="cls-82" cx="48.34" cy="46.39" rx="0.71" ry="0.69"/><path class="cls-82" d="M51.32,47.91a5.81,5.81,0,0,1-1.18,2.32,7.9,7.9,0,0,1-2,1.73,9.05,9.05,0,0,1-2.45,1c-.42.11-.86.15-1.29.22s-.86,0-1.3,0c.85-.21,1.68-.38,2.47-.66a13.07,13.07,0,0,0,2.28-1A9.21,9.21,0,0,0,51.32,47.91Z"/><path class="cls-81" d="M12.69,48.7c0,3.93,6.73,7.68,10.28,7.68s2.57-3.75,2.57-7.68-2.88-7.1-6.43-7.1S12.69,44.78,12.69,48.7Z"/><ellipse class="cls-82" cx="16.31" cy="45.48" rx="1.73" ry="1.98"/><path d="M13.72,47.84c0,3.29,6,6.43,9.24,6.43s2.31-3.14,2.31-6.43a5.78,5.78,0,1,0-11.55,0Z"/><ellipse class="cls-82" cx="21.79" cy="44.59" rx="1.56" ry="1.66"/><ellipse class="cls-82" cx="18.11" cy="46.39" rx="0.71" ry="0.69"/><path class="cls-82" d="M15.14,47.91a9.12,9.12,0,0,0,3.46,3.56,13.07,13.07,0,0,0,2.28,1c.8.28,1.63.45,2.47.66-.43,0-.86,0-1.3,0s-.87-.11-1.29-.22a9.05,9.05,0,0,1-2.45-1,7.85,7.85,0,0,1-2-1.73A5.69,5.69,0,0,1,15.14,47.91Z"/><path class="cls-5" d="M40.1,66.83c-2.85,6.12-3.33,12.6-7.44,12.6s-4.59-6.67-7.45-12.6c-3.07-6.37,3.32-10.19,7.43-10.19S43.09,60.43,40.1,66.83Z"/><path class="cls-83" d="M32.49,56.13c1.23,2.09.5,3.5-2.05,4.94s-4.74,2.61-6,.52-.16-5,2.4-6.4S31.25,54,32.49,56.13Z"/><path class="cls-84" d="M30.24,57.36c.53.91-.19,1.12-1.41,1.81s-1.93,1.69-2.46.78,0-2.2,1.25-2.89S29.7,56.46,30.24,57.36Z"/><path class="cls-83" d="M33.32,56.13c-1.24,2.09-.51,3.5,2,4.94s4.74,2.61,6,.52.16-5-2.4-6.4S34.55,54,33.32,56.13Z"/><path class="cls-84" d="M35.57,57.36c-.54.91.18,1.12,1.41,1.81s1.92,1.69,2.46.78,0-2.2-1.26-2.89S36.1,56.46,35.57,57.36Z"/><path class="cls-85" d="M49.83,28.69c1.63-.88,5.56,3.62,7.59,8.12,2.12,4.71,2.13,9.35,1.64,9.51-.82.25-4-11.63-8-11.83A2.05,2.05,0,0,1,49.62,34C48.41,32.86,48.66,29.32,49.83,28.69Z"/><path class="cls-85" d="M15.75,29.17c-1.64-.89-5.56,3.61-7.59,8.11C6,42,6,46.63,6.52,46.79c.81.26,4-11.63,8-11.83A2,2,0,0,0,16,34.5C17.16,33.33,16.92,29.8,15.75,29.17Z"/><path class="cls-85" d="M50.1,27.4c-2.35-2.75-8.49-1.61-10.67-1.06-1.78.44-1.79.72-3.61,1.09a21.9,21.9,0,0,1-7,.15C24.5,27,24.43,26,21.22,25.87A6.63,6.63,0,0,0,16,27.4c-1.81,1.48-1.82,4-1.42,5.91a6.53,6.53,0,0,0,1.66,3.55C19.5,39.67,26.4,39.41,27.87,38c3.31-3.07,3.7-2.9,5.79-2.81,1.54.07,1.64,1.51,3.79,2.5,3,1.39,7.11,1.86,9.58.55a7.56,7.56,0,0,0,4.12-6C51.32,30.45,51.52,29.05,50.1,27.4Z"/><path class="cls-85" d="M49.63,32.37c0,2.88-2.33,4.73-6.13,4.73s-6.88-2.34-6.88-5.22,5.27-4.25,9.08-4.25S49.63,29.48,49.63,32.37Z"/><path class="cls-1" d="M15.57,32.72c0,3.39,2.7,5.56,7.13,5.56s8-2.75,8-6.14-6.14-5-10.56-5S15.57,29.33,15.57,32.72Z"/><g class="cls-86"><rect class="cls-87" x="24.07" y="26.59" width="1.17" height="12.06" transform="translate(39.22 70.83) rotate(-163.77)"/><rect class="cls-87" x="22.65" y="26.59" width="1.17" height="12.06" transform="translate(36.44 70.43) rotate(-163.77)"/><rect class="cls-87" x="21.24" y="26.59" width="1.17" height="12.06" transform="translate(33.66 70.03) rotate(-163.77)"/></g><path class="cls-85" d="M16,32.84c0,2.88,2.33,4.73,6.13,4.73s6.88-2.34,6.88-5.22S23.78,28.11,20,28.11,16,30,16,32.84Z"/><path class="cls-2" d="M16.75,32.84c0,2.59,2.07,4.26,5.46,4.26s6.13-2.11,6.13-4.7-4.7-3.82-8.08-3.82S16.75,30.24,16.75,32.84Z"/><g class="cls-88"><rect class="cls-87" x="23.26" y="27.27" width="1.17" height="12.06" transform="translate(37.44 71.94) rotate(-163.77)"/><rect class="cls-87" x="21.8" y="26.82" width="1.17" height="12.06" transform="translate(34.7 70.65) rotate(-163.77)"/><rect class="cls-87" x="20.38" y="26.35" width="1.17" height="12.06" transform="translate(32.05 69.33) rotate(-163.77)"/></g><g class="cls-89"><path class="cls-82" d="M27.75,33.43a4.69,4.69,0,0,1-1.1,1.89,4,4,0,0,1-.89.69,2,2,0,0,1-1.09.26,4.35,4.35,0,0,0,.89-.56,7.17,7.17,0,0,0,.75-.71C26.81,34.51,27.22,34,27.75,33.43Z"/></g><g class="cls-90"><path class="cls-82" d="M20.64,29.21a5.06,5.06,0,0,0-2.38.61,2.46,2.46,0,0,0-1.13,2,2,2,0,0,1,.06-1.31,2.18,2.18,0,0,1,.87-1.05A3.3,3.3,0,0,1,20.64,29.21Z"/></g><path class="cls-3" d="M50.1,32.48C50.1,35.87,47.4,38,43,38s-8-2.74-8-6.13,6.14-5,10.56-5S50.1,29.1,50.1,32.48Z"/><g class="cls-91"><rect class="cls-87" x="40.42" y="26.35" width="1.17" height="12.06" transform="translate(-7.42 12.76) rotate(-16.23)"/><rect class="cls-87" x="41.84" y="26.35" width="1.17" height="12.06" transform="translate(-7.36 13.15) rotate(-16.23)"/><rect class="cls-87" x="43.26" y="26.35" width="1.17" height="12.06" transform="translate(-7.3 13.55) rotate(-16.23)"/></g><path class="cls-85" d="M49.63,32.6c0,2.88-2.33,4.73-6.13,4.73S36.62,35,36.62,32.11s5.27-4.24,9.08-4.24S49.63,29.72,49.63,32.6Z"/><path class="cls-2" d="M48.92,32.6c0,2.6-2.07,4.26-5.46,4.26s-6.13-2.1-6.13-4.7,4.7-3.82,8.08-3.82S48.92,30,48.92,32.6Z"/><g class="cls-92"><rect class="cls-87" x="41.49" y="27.03" width="1.17" height="12.06" transform="translate(-7.56 13.08) rotate(-16.23)"/><rect class="cls-87" x="42.95" y="26.58" width="1.17" height="12.06" transform="matrix(0.96, -0.28, 0.28, 0.96, -7.38, 13.47)"/><rect class="cls-87" x="44.37" y="26.11" width="1.17" height="12.06" transform="matrix(0.96, -0.28, 0.28, 0.96, -7.19, 13.85)"/></g><g class="cls-89"><path class="cls-82" d="M37.92,33.19c.53.52.94,1.09,1.44,1.57a7.17,7.17,0,0,0,.75.71A3.64,3.64,0,0,0,41,36a1.9,1.9,0,0,1-1.09-.26,4,4,0,0,1-.89-.68A4.79,4.79,0,0,1,37.92,33.19Z"/></g><ellipse class="cls-93" cx="46.93" cy="54.96" rx="5.5" ry="1.3" transform="translate(-16.37 20.09) rotate(-20.66)"/><ellipse class="cls-93" cx="19.17" cy="55.11" rx="1.07" ry="5.7" transform="translate(-39.16 53.6) rotate(-69.34)"/><path d="M20.26,39.47A17.09,17.09,0,0,0,15,40.59a12.49,12.49,0,0,0-2.28,1.21,26,26,0,0,0-2.19,1.72,6.23,6.23,0,0,1,3.85-4.43,6.71,6.71,0,0,1,3-.5A5.82,5.82,0,0,1,20.26,39.47Z"/><path d="M46.18,39.47A5.75,5.75,0,0,1,49,38.59a6.71,6.71,0,0,1,3,.5,6.27,6.27,0,0,1,3.86,4.43,27.78,27.78,0,0,0-2.2-1.72,12.49,12.49,0,0,0-2.28-1.21A17.08,17.08,0,0,0,46.18,39.47Z"/><polyline class="cls-94" points="55.54 57 55.94 56.16 56.73 56.16 57.19 55.43 58.02 55.51 58.3 54.44 59.16 54.57 60.05 54.77 60.69 54.43 60.99 53.42 61.55 52.94 62.66 53.57 63.1 52.85 63.86 52.77 64.38 52.21 64.99 51.83 65.92 52.06 66.17 50.98 66.81 50.65 67.26 49.97 68.48 50.75 68.66 49.56 69.69 49.97 69.86 48.78 71.08 49.52 71.62 49.01 71.89 48.01 72.55 47.72 72.91 46.88 74.36 47.99 74.87 47.43 74.82 45.89 75.88 46.28 76.55 45.98 77.46 46.11 77.27 44.38 78.08 44.33 79.29 44.9 79.81 44.36 79.94 43.22 80.34 42.5 81.33 42.7 82.22 42.74 82.2 41.39 83.39 41.86 84.23 41.81 84.39 40.76 85.06 40.45 85.86 40.31 86.41 39.84 87.06 39.49 87.57 38.96 87.29 37.45 87.89 37.06 88.98 37.23 89.34 36.54 89.44 35.59 90.36 35.53 91.47 35.62 91.2 34.36 92.33 34.42 92.9 33.93 92.98 33.06 92.76 32.05 93.51 31.71 94.12 31.23 94.22 30.41 94.53 29.66 95.13 29.04 96.19 28.44 96.82 29.62 96.56 30.51 96.63 31.15 98.11 31.56 97.42 32.41 98.13 33.06 97.51 33.84 97.77 34.54 98.31 35.24 97.34 35.99 97.25 36.7 97.27 37.42 98.62 38.17 97.94 38.89 98.17 39.63 98.12 40.36 98.25 41.09 98.19 41.81 96.92 42.47 97.78 43.24 97.76 43.95 98.24 44.72 96.82 45.24 96.55 45.87 96.64 46.58 96.25 47.18 95.92 47.77 95.76 48.47 95.86 49.27 96.73 50.36 96.42 51.02 95.31 51.38 94.81 51.96 94.28 52.52 94.86 53.54 94.9 54.35 93.42 54.49 93.46 55.3 93.08 55.91 93.48 56.89 93.01 57.47 92.46 58 91.48 58.31 92.54 59.68 92.15 60.3 91.06 60.53 90.86 61.25 90.26 61.74 89.47 62.1 90.22 63.43 89.43 63.79 89.48 64.71 87.93 64.51 88.47 65.81 87.73 66.16 87.14 66.62 86.18 66.76 86.09 67.64 85.26 67.84 85.32 68.91 84.6 69.2 84.13 69.77 84.09 70.86 82.54 70.08 82.29 70.92 81.51 71.02 81.61 72.6 80.94 72.98 80.17 73.12 79.28 72.94 78.52 72.93 77.86 73.22 77.1 73.1 76.47 73.73 75.68 73.05 74.98 73.09 74.26 73.83 73.49 74.24 72.81 73.61 72.21 72.82 71.38 73.31 70.64 73.22 70.16 72.38 69.08 73.18 68.5 72.64 67.69 72.59 67.22 71.89 66.86 71.07 66.25 70.69 65.91 69.93 65.09 69.84 64.72 69.16 63.41 69.6 63.19 68.74 62.98 67.9 61.84 68.02 62.03 66.82 61.46 66.37 61.15 65.68 60.41 65.36 60.26 64.57 59.43 64.29 58.77 63.88 58.04 63.49 57.56 62.93 57.5 62.09 56.84 61.64 57.1 60.63 56.2 60.3 55.57 59.81 56.31 58.59 55.62 58.14 54.86 57.69"/></svg>