<?xml version="1.0" encoding="utf-8"?>
<!-- Generator: Adobe Illustrator 22.1.0, SVG Export Plug-In . SVG Version: 6.00 Build 0)  -->
<svg version="1.1" id="Layer_1" xmlns="http://www.w3.org/2000/svg" xmlns:xlink="http://www.w3.org/1999/xlink" x="0px" y="0px"
	 viewBox="0 0 100 50" style="enable-background:new 0 0 100 50;" xml:space="preserve">
<style type="text/css">
	.st0{opacity:0.39;clip-path:url(#SVGID_2_);fill:#FFFFFF;}
	.st1{fill:#FFFFFF;}
</style>
<g>
	<defs>
		<path id="SVGID_1_" d="M75,48H25C12.3,48,2,37.7,2,25v0C2,12.3,12.3,2,25,2h50c12.7,0,23,10.3,23,23v0C98,37.7,87.7,48,75,48z"/>
	</defs>
	<use xlink:href="#SVGID_1_"  style="overflow:visible;fill:#E84903;"/>
	<clipPath id="SVGID_2_">
		<use xlink:href="#SVGID_1_"  style="overflow:visible;"/>
	</clipPath>
	<rect x="5.2" y="-3.6" transform="matrix(0.9304 0.3666 -0.3666 0.9304 8.4413 -1.2496)" class="st0" width="4.5" height="50.3"/>
	<rect x="11.2" y="-1.9" transform="matrix(0.9304 0.3666 -0.3666 0.9304 9.4774 -3.2978)" class="st0" width="4.5" height="50.3"/>
	
		<rect x="17.3" y="-0.8" transform="matrix(0.9304 0.3666 -0.3666 0.9304 10.4706 -5.4579)" class="st0" width="4.5" height="51.2"/>
	
		<rect x="78.2" y="0.4" transform="matrix(0.9304 0.3666 -0.3666 0.9304 14.9911 -27.7353)" class="st0" width="4.5" height="50.3"/>
	
		<rect x="84.2" y="2.1" transform="matrix(0.9304 0.3666 -0.3666 0.9304 16.0272 -29.7834)" class="st0" width="4.5" height="50.3"/>
	
		<rect x="90.2" y="4.1" transform="matrix(0.9304 0.3666 -0.3666 0.9304 17.1629 -31.8537)" class="st0" width="4.5" height="50.3"/>
</g>
<path class="st1" d="M20,32.3l0.6-4.7c1.3,0.5,3.3,1,5,1c1.1,0,1.8-0.2,1.8-0.7c0-1.8-7.3-1.8-7.3-7.3c0-3.5,3.1-5.6,7.5-5.6
	c1.7,0,3.5,0.3,4.9,0.9l-0.7,4.6c-1.1-0.4-2.7-0.8-4.2-0.8c-1,0-1.7,0.2-1.7,0.7c0,1.7,7.4,1.5,7.4,7.2c0,3.5-2.8,5.8-7.7,5.8
	C23.4,33.3,21.1,32.8,20,32.3z"/>
<path class="st1" d="M35.3,27.4v-3.3H34l0.3-3.9l1.4-0.1l0.3-3l5-1v4h2.5l-0.2,4h-2.3v2.9c0,1.2,0.6,1.7,1.9,1.7c0.1,0,0.3,0,0.6,0
	l0,4.2c-0.6,0.2-2.1,0.4-3.4,0.4C36.5,33.3,35.3,31.7,35.3,27.4z"/>
<path class="st1" d="M44.2,29.1c0-2.1,1.2-3.7,3.8-3.7h3.6v-0.8c0-0.5-0.6-0.7-1.4-0.7c-1.4,0-3.3,0.5-4.2,0.9L45,20.9
	c1.2-0.4,3.4-1.1,6.3-1.1c3.8,0,5.8,1,5.8,4.1v6.3c0,1.2,0,2.3,0.1,2.9h-4L52,31.6H52c-0.9,1.2-2.2,1.6-3.5,1.6
	C46,33.3,44.2,31.6,44.2,29.1z M51.7,29.5v-1.5H50c-0.4,0-0.6,0.4-0.6,0.9c0,0.5,0.4,0.8,1.1,0.8C50.8,29.7,51.3,29.6,51.7,29.5z"/>
<path class="st1" d="M59.1,24.6c0-2-0.1-3.3-0.1-4.5l4.8-0.1l0.5,2.1h0.1c0.7-1.6,2.4-2.5,4.1-2.2v5c-1.3-0.6-3-0.9-3.7,0.2v8h-5.6
	V24.6z"/>
<path class="st1" d="M70.4,27.4v-3.3h-1.3l0.3-3.9l1.4-0.1l0.3-3l5-1v4h2.5l-0.2,4H76v2.9c0,1.2,0.6,1.7,1.9,1.7c0.1,0,0.3,0,0.6,0
	l0,4.2c-0.6,0.2-2.1,0.4-3.4,0.4C71.6,33.3,70.4,31.7,70.4,27.4z"/>
<g>
	<path class="st1" d="M19,6c-1.7,1.5-3.2,2.9-4.7,4.5c-1.5,1.6-2.8,3.2-4,4.9C9,17.1,8,19,7.1,20.9c-0.9,1.9-1.5,4-2.1,6.1
		c-0.2-2.2,0-4.5,0.7-6.7l0.2-0.8l0.3-0.8c0.2-0.5,0.4-1.1,0.7-1.6c0.5-1,1.1-2,1.7-2.9c1.3-1.8,2.9-3.5,4.6-4.9
		C15,7.9,16.9,6.7,19,6z"/>
</g>
<g>
	<path class="st1" d="M95.6,26.2c-0.2,2.2-0.9,4.4-1.9,6.4c-0.9,2-2.2,3.9-3.7,5.6c-0.7,0.9-1.6,1.6-2.4,2.4c-0.4,0.4-0.9,0.7-1.4,1
		l-0.7,0.5l-0.7,0.4c-1.9,1.2-4.1,1.9-6.3,2.2c1.9-1.1,3.8-2.2,5.4-3.5c1.7-1.3,3.2-2.7,4.6-4.3c1.4-1.6,2.7-3.3,3.8-5.1
		C93.5,30.1,94.5,28.2,95.6,26.2z"/>
</g>
</svg>
