<?xml version="1.0" encoding="utf-8"?>
<!-- Generator: Adobe Illustrator 22.1.0, SVG Export Plug-In . SVG Version: 6.00 Build 0)  -->
<svg version="1.1" id="Layer_1" xmlns="http://www.w3.org/2000/svg" xmlns:xlink="http://www.w3.org/1999/xlink" x="0px" y="0px"
	 viewBox="0 0 300 200" style="enable-background:new 0 0 300 200;" xml:space="preserve">
<style type="text/css">
	.st0{fill:#003876;}
	.st1{fill:#CFE5F9;}
</style>
<title>talkDialog</title>
<path class="st0" d="M17,10.5h265c4.7,0,8.5,3.8,8.5,8.5v163c0,4.7-3.8,8.5-8.5,8.5H17c-4.7,0-8.5-3.8-8.5-8.5V19
	C8.5,14.3,12.3,10.5,17,10.5z"/>
<path class="st1" d="M282,14c2.8,0,5,2.2,5,5v163c0,2.8-2.2,5-5,5H17c-2.8,0-5-2.2-5-5V19c0-2.8,2.2-5,5-5H282 M282,7H17
	C10.4,7,5,12.4,5,19v163c0,6.6,5.4,12,12,12h265c6.6,0,12-5.4,12-12V19C294,12.4,288.6,7,282,7z"/>
</svg>
