<svg id="Layer_1" data-name="Layer 1" xmlns="http://www.w3.org/2000/svg" viewBox="0 0 43.84 14.36"><defs><style>.cls-1,.cls-2{fill:#fff;}.cls-2{font-size:4.05px;font-family:CCMonsterMash, CCMonsterMash;}.cls-3{letter-spacing:-0.03em;}.cls-4{fill:none;stroke:#fff;stroke-miterlimit:10;stroke-width:0.5px;}</style></defs><title>newLogo</title><g id="Layer_1-2" data-name="Layer 1"><path class="cls-1" d="M1.71,5.27h.82V9.7a1.12,1.12,0,0,1-1.09,1.15H1v-.78h.24a.4.4,0,0,0,.46-.44V5.27m0-1.64h.82v.83H1.71ZM3.89,7a.87.87,0,0,1,1.73-.19.6.6,0,0,1,0,.19H3.89m2.56.68V7a1.67,1.67,0,0,0-1.6-1.73h-.1c-.79,0-1.69.5-1.69,2.11S4,9.44,4.89,9.44A1.87,1.87,0,0,0,6.37,8.8l-.6-.5a1.28,1.28,0,0,1-.89.39.92.92,0,0,1-1-.85V7.69ZM7.1,4.05h.83V5.27h.6V5.9h-.6V8.3c0,.22.09.3.29.3h.31v.78H8.1a.94.94,0,0,1-1-.87V5.93H6.68V5.27h.41Zm4.18,2.79a.87.87,0,1,1,.18,1.73H9.93V6.84h1.35M9.06,9.4h2.43a1.57,1.57,0,0,0,1.6-1.54v-.1a1.29,1.29,0,0,0-.94-1.33A1.26,1.26,0,0,0,13,5.19,1.51,1.51,0,0,0,11.3,3.64H9.06V9.41m2.14-5a.83.83,0,1,1,.18,1.65H9.94V4.42Zm2.36-.79h.83V8.34c0,.19.11.28.31.28H15V9.4h-.36a.93.93,0,0,1-1.06-1Zm1.77,1.64h.83V7.72a.81.81,0,0,0,1.62.12.24.24,0,0,0,0-.12V5.27h.83V9.38h-.83V8.94a1.29,1.29,0,0,1-1.06.5,1.38,1.38,0,0,1-1.38-1.38V5.27ZM19.88,7a.86.86,0,0,1,.76-1h.11c.5,0,.84.34.86,1H19.88m2.56.68V7a1.66,1.66,0,0,0-1.6-1.73h-.09c-.79,0-1.7.5-1.7,2.11s1,2.08,1.82,2.08a1.86,1.86,0,0,0,1.48-.66l-.6-.5a1.28,1.28,0,0,1-.89.39.91.91,0,0,1-1-.86.65.65,0,0,1,0-.14Z"/><path class="cls-1" d="M22.74,5.22a.38.38,0,0,1,.37.37.37.37,0,0,1-.37.36h0a.37.37,0,1,1,0-.73Zm.29.37a.29.29,0,1,0-.57,0,.28.28,0,0,0,.28.28A.27.27,0,0,0,23,5.62Z"/><path class="cls-1" d="M22.8,5.62a.11.11,0,0,0,.11-.12h0q0-.12-.15-.12H22.6v.41h.07V5.6h0l.12.18h.09Zm-.12-.07V5.43h.06c.05,0,.1,0,.1.06s-.06.06-.11.06Z"/></g><text class="cls-2" transform="translate(26.1 8.98)"><tspan class="cls-3">P</tspan><tspan x="2.22" y="0">eckaDest</tspan></text><line class="cls-4" x1="24.4" y1="4.05" x2="24.4" y2="10.56"/></svg>